<?xml version="1.0" encoding="utf-8"?>
<!-- Generator: Adobe Illustrator 21.1.0, SVG Export Plug-In . SVG Version: 6.00 Build 0)  -->
<svg version="1.1" id="Capa_1" xmlns="http://www.w3.org/2000/svg" xmlns:xlink="http://www.w3.org/1999/xlink" x="0px" y="0px"
	 viewBox="0 0 406 306" style="enable-background:new 0 0 406 306;" xml:space="preserve">
<style type="text/css">
	.st0{fill:#C5FF26;}
	.st1{fill:#093F68;}
	.st2{fill:#FFFFFF;}
	.st3{fill:#68E1FD;}
	.st4{fill:#68E817;}
	.st5{fill:#FF7A19;}
	.st6{fill:#DFEAEF;}
	.st7{fill:#B50DFF;}
</style>
<g id="_69__digital_content_outline">
	<path class="st0" d="M117.3,199.2h171.3l0,0v6c0,4.4-3.6,8-8,8H125.4c-4.4,0-8-3.6-8-8V199.2L117.3,199.2z"/>
	<path class="st1" d="M280.6,214.2H125.4c-5,0-9.1-4.1-9.1-9.1v-6c0-0.6,0.5-1,1-1h171.3c0.6,0,1,0.5,1,1v6
		C289.7,210.1,285.6,214.2,280.6,214.2z M118.3,200.2v5c0,3.9,3.2,7,7,7h155.2c3.9,0,7-3.1,7-7v-5H118.3z"/>
	<path class="st0" d="M136,102.1h134c3.9,0,7.1,3.2,7.1,7.1v89.9l0,0H128.9l0,0v-89.9C128.9,105.3,132,102.1,136,102.1
		C136,102.1,136,102.1,136,102.1z"/>
	<path class="st1" d="M277.1,200.2H128.9c-0.6,0-1-0.5-1-1v-89.9c0-4.5,3.6-8.1,8.1-8.1h134c4.5,0,8.1,3.6,8.1,8.1v89.9
		C278.1,199.7,277.7,200.2,277.1,200.2z M129.9,198.2h146.2v-88.9c0-3.4-2.7-6.1-6.1-6.1H136c-3.4,0-6.1,2.7-6.1,6.1V198.2z"/>
	<rect x="140" y="113.5" class="st2" width="126.1" height="74.8"/>
	<path class="st1" d="M266,189.3H140c-0.6,0-1-0.5-1-1v-74.8c0-0.6,0.5-1,1-1H266c0.6,0,1,0.5,1,1v74.8
		C267,188.9,266.6,189.3,266,189.3C266,189.3,266,189.3,266,189.3z M141,187.3h124v-72.8H141L141,187.3z"/>
	<path class="st1" d="M190,199.2h26.1l0,0v1.5c0,2.6-2.1,4.8-4.8,4.8l0,0h-16.6c-2.6,0-4.8-2.1-4.8-4.8l0,0L190,199.2L190,199.2z"/>
	<path class="st1" d="M211.3,206.4h-16.6c-3.2,0-5.8-2.6-5.8-5.8v-1.5c0-0.6,0.5-1,1-1H216c0.6,0,1,0.5,1,1v1.5
		C217,203.9,214.5,206.4,211.3,206.4z M191,200.2v0.5c0,2.1,1.7,3.7,3.7,3.7h16.6c2.1,0,3.7-1.7,3.7-3.7v-0.5L191,200.2z"/>
	<circle class="st3" cx="205.7" cy="107.1" r="1"/>
	<path class="st1" d="M205.7,109.1c-1.1,0-2-0.9-2-2s0.9-2,2-2s2,0.9,2,2S206.8,109.1,205.7,109.1z M205.7,107L205.7,107h1H205.7z"
		/>
	<path class="st4" d="M201.4,140.7h54.2c3.3,0,5.9,2.7,5.9,5.9v29.2c0,3.3-2.7,5.9-5.9,5.9h-54.2c-3.3,0-5.9-2.7-5.9-5.9v-29.2
		C195.4,143.3,198.1,140.7,201.4,140.7z"/>
	<path class="st1" d="M255.6,182.7h-54.2c-3.8,0-6.9-3.1-7-7v-29.2c0-3.8,3.1-7,7-7h54.2c3.8,0,7,3.1,7,7v29.2
		C262.5,179.6,259.4,182.7,255.6,182.7z M201.4,141.7c-2.7,0-4.9,2.2-4.9,4.9v29.2c0,2.7,2.2,4.9,4.9,4.9h54.2
		c2.7,0,4.9-2.2,4.9-4.9v0v-29.2c0-2.7-2.2-4.9-4.9-4.9L201.4,141.7z"/>
	<path class="st1" d="M195.4,173.3c-0.3,0-0.6-0.2-0.8-0.4c-0.3-0.4-0.2-1.1,0.2-1.4l25.2-18.9c0.4-0.3,0.9-0.3,1.3,0l22,18.9
		c0.4,0.4,0.5,1,0.1,1.4c-0.4,0.4-1,0.5-1.4,0.1l-21.4-18.4L196,173.1C195.9,173.2,195.6,173.3,195.4,173.3z"/>
	<path class="st1" d="M261.5,168.4c-0.2,0-0.5-0.1-0.6-0.2l-12.2-10.3l-11.3,9.5c-0.4,0.4-1,0.4-1.4,0c-0.4-0.4-0.4-1,0-1.4
		c0,0,0.1-0.1,0.1-0.1l11.9-10.1c0.4-0.3,0.9-0.3,1.3,0l12.9,10.8c0.4,0.4,0.5,1,0.1,1.4c0,0,0,0,0,0
		C262.1,168.2,261.8,168.4,261.5,168.4z"/>
	<path class="st1" d="M240.4,156.4c-2.6,0-4.7-2.1-4.7-4.7c0-2.6,2.1-4.7,4.7-4.7c2.6,0,4.7,2.1,4.7,4.7
		C245.1,154.3,243,156.4,240.4,156.4C240.4,156.4,240.4,156.4,240.4,156.4z M240.4,149c-1.5,0-2.7,1.2-2.7,2.7
		c0,1.5,1.2,2.7,2.7,2.7c1.5,0,2.7-1.2,2.7-2.7C243.1,150.2,241.9,149,240.4,149C240.4,149,240.4,149,240.4,149z"/>
	<path class="st5" d="M106.9,108.5h71.8c3.8,0,7,3.1,7,7v51.2c0,3.8-3.1,7-7,7h-71.8c-3.8,0-7-3.1-7-7v-51.2
		C100,111.6,103.1,108.5,106.9,108.5z"/>
	<path class="st1" d="M178.8,174.9h-71.8c-4.7,0-8.4-3.8-8.4-8.4v-51c0-4.7,3.8-8.4,8.4-8.4h71.8c4.7,0,8.4,3.8,8.4,8.4v51.2
		C187.1,171.2,183.4,174.9,178.8,174.9z M106.9,109.8c-3.1,0-5.6,2.5-5.6,5.6v51.2c0,3.1,2.5,5.6,5.6,5.6h71.8
		c3.1,0,5.6-2.5,5.6-5.6v-51.2c0-3.1-2.5-5.6-5.6-5.6H106.9z"/>
	<polygon class="st2" points="161.1,141 130.6,159.8 130.6,122.3 	"/>
	<path class="st1" d="M130.6,161.2c-0.2,0-0.5-0.1-0.7-0.2c-0.4-0.2-0.7-0.7-0.7-1.2v-37.5c0-0.5,0.3-1,0.7-1.2c0.4-0.3,1-0.3,1.4,0
		l30.6,18.8c0.7,0.4,0.9,1.3,0.5,1.9c-0.1,0.2-0.3,0.3-0.5,0.5L131.3,161C131.1,161.1,130.8,161.2,130.6,161.2z M132,124.7v32.5
		l26.5-16.3L132,124.7z"/>
	<path class="st2" d="M225.5,92.8h-29.1c-1.6,0-3,1.3-3,3c0,0,0,0,0,0v19.7c0,1.6,1.3,3,3,3l0,0h3.9v6.6l5.2-6.6h20c1.6,0,3-1.3,3-3
		c0,0,0,0,0,0V95.8C228.5,94.2,227.1,92.8,225.5,92.8C225.5,92.8,225.5,92.8,225.5,92.8z"/>
	<path class="st1" d="M200.3,126.1c-0.1,0-0.2,0-0.3-0.1c-0.4-0.1-0.7-0.5-0.7-1v-5.6h-2.9c-2.2,0-4-1.8-4-4V95.8c0-2.2,1.8-4,4-4
		h29.1c2.2,0,4,1.8,4,4v19.7c0,2.2-1.8,4-4,4H206l-4.9,6.2C200.9,126,200.6,126.1,200.3,126.1z M196.4,93.8c-1.1,0-2,0.9-2,2
		c0,0,0,0,0,0v19.7c0,1.1,0.9,2,2,2l0,0h3.9c0.6,0,1,0.5,1,1v3.7l3.4-4.3c0.2-0.2,0.5-0.4,0.8-0.4h20c1.1,0,2-0.9,2-2c0,0,0,0,0,0
		V95.8c0-1.1-0.9-2-2-2l0,0H196.4z"/>
	<path class="st6" d="M221.1,102.5h-20.4c-0.6,0-1-0.5-1-1c0-0.6,0.5-1,1-1h20.4c0.6,0,1,0.5,1,1C222.1,102,221.7,102.5,221.1,102.5
		z"/>
	<path class="st6" d="M215.6,109.8h-14.8c-0.6,0-1-0.5-1-1c0-0.6,0.5-1,1-1h14.8c0.6,0,1,0.5,1,1
		C216.6,109.3,216.2,109.8,215.6,109.8z"/>
	<path class="st7" d="M242.2,96.3h39.1c2.6,0,4.7,2.1,4.7,4.7v28.5c0,2.6-2.1,4.7-4.7,4.7h-39.1c-2.6,0-4.7-2.1-4.7-4.7V101
		C237.5,98.4,239.6,96.3,242.2,96.3z"/>
	<path class="st1" d="M281.2,135.1h-39.1c-3.1,0-5.7-2.6-5.7-5.7V101c0-3.1,2.5-5.7,5.7-5.7l0,0h39.1c3.1,0,5.7,2.5,5.7,5.7
		c0,0,0,0,0,0v28.5C286.9,132.6,284.4,135.1,281.2,135.1z M242.2,97.3c-2,0-3.6,1.6-3.7,3.7v28.5c0,2,1.6,3.7,3.7,3.7h39.1
		c2,0,3.7-1.6,3.7-3.7V101c0-2-1.6-3.7-3.7-3.7l0,0H242.2z"/>
	<g id="SBwUh1">
		<path class="st2" d="M268.6,117.7V110c0-0.7-0.3-0.9-1-0.8c-0.9,0.3-1.8,0.5-2.7,0.8l-3.8,1.2c-1,0.3-2,0.6-3,0.9
			c-0.3,0.1-0.5,0.3-0.8,0.5c-0.3,0.3-0.4,0.6-0.4,1c0,3,0,6,0,9c0.1,1.6-0.7,3.1-2.1,3.9c-1.4,0.9-3.2,1.2-4.8,0.7
			c-1.5-0.4-2.5-2-2.1-3.5c0.1-0.2,0.1-0.4,0.2-0.6c0.5-1.1,1.5-2,2.6-2.5c0.8-0.4,1.8-0.6,2.7-0.5c0.5,0,1,0.1,1.5,0.3v-0.3
			c0-3.6,0-7.2,0-10.8c0-1.5,1-2.9,2.5-3.3c2.3-0.7,4.5-1.4,6.8-2l3.7-1.1c0.4-0.2,0.9-0.2,1.3-0.1c0.6,0.2,1.1,0.7,1.2,1.3
			c0,0.2,0,0.4,0,0.5c0,5.1,0,10.3,0,15.4c0,1.2-0.5,2.3-1.4,3c-1.2,1.1-2.8,1.6-4.5,1.4c-0.9,0-1.7-0.4-2.4-1
			c-0.7-0.6-1.1-1.6-0.9-2.6c0.2-1,0.8-2,1.6-2.6c1.2-0.9,2.7-1.4,4.3-1.2c0.4,0.1,0.8,0.2,1.2,0.3L268.6,117.7z"/>
	</g>
</g>
</svg>
