<?xml version="1.0" encoding="utf-8"?>
<!-- Generator: Adobe Illustrator 21.1.0, SVG Export Plug-In . SVG Version: 6.00 Build 0)  -->
<svg version="1.1" xmlns="http://www.w3.org/2000/svg" xmlns:xlink="http://www.w3.org/1999/xlink" x="0px" y="0px"
	 viewBox="0 0 406 306" style="enable-background:new 0 0 406 306;" xml:space="preserve">
<style type="text/css">
	.st0{fill:#C5FF26;}
	.st1{fill:#093F68;}
	.st2{fill:#FFE219;}
	.st3{fill:#FFFFFF;}
	.st4{fill:#FF7A19;}
	.st5{fill:#DFEAEF;}
</style>
<g id="_210_creative_process_outline">
	<polygon class="st0" points="138.3,145.1 119.8,138.8 184.2,103.5 202.7,110.3 	"/>
	<path class="st1" d="M138.3,146.1c-0.1,0-0.2,0-0.3-0.1l-18.5-6.3c-0.5-0.2-0.8-0.8-0.6-1.3c0.1-0.2,0.3-0.5,0.5-0.6l64.4-35.2
		c0.3-0.1,0.6-0.2,0.8-0.1l18.6,6.8c0.4,0.1,0.6,0.5,0.7,0.9c0,0.4-0.2,0.8-0.5,1L138.8,146C138.7,146.1,138.5,146.1,138.3,146.1z
		 M122.3,138.5l15.9,5.5l62-33.5l-16-5.8L122.3,138.5z"/>
	<polygon class="st0" points="202.7,110.3 217.4,103.5 286.2,138.3 267.2,145.1 	"/>
	<path class="st1" d="M267.2,146.1c-0.2,0-0.3,0-0.5-0.1l-64.4-34.8c-0.3-0.2-0.6-0.5-0.5-0.9c0-0.4,0.2-0.7,0.6-0.9l14.7-6.8
		c0.3-0.1,0.6-0.1,0.9,0l68.8,34.7c0.4,0.2,0.6,0.6,0.5,1c0,0.4-0.3,0.8-0.7,0.9l-19,6.8C267.4,146.1,267.3,146.1,267.2,146.1z
		 M205,110.4l62.2,33.6l16.4-5.9l-66.2-33.4L205,110.4z"/>
	<polygon class="st1" points="202.7,110.3 138.3,145 138.3,212 202.7,223 267.2,212 267.2,145 	"/>
	<path class="st1" d="M202.7,224h-0.2L138.2,213c-0.5-0.1-0.8-0.5-0.8-1v-67c0-0.4,0.2-0.7,0.5-0.9l64.4-34.7c0.3-0.2,0.7-0.2,1,0
		l64.4,34.7c0.3,0.2,0.5,0.5,0.5,0.9v67c0,0.5-0.4,0.9-0.8,1L202.9,224H202.7z M139.3,211.1l63.4,10.9l63.4-10.9v-65.5l-63.4-34.2
		l-63.4,34.2L139.3,211.1z"/>
	<ellipse class="st1" cx="202.7" cy="177.4" rx="11" ry="8.4"/>
	<path class="st1" d="M202.7,186.8c-6.6,0-12-4.2-12-9.4c0-5.2,5.4-9.4,12-9.4s12,4.2,12,9.4C214.8,182.6,209.4,186.8,202.7,186.8z
		 M202.7,170c-5.5,0-10,3.3-10,7.4s4.5,7.4,10,7.4s10-3.3,10-7.4C212.7,173.3,208.3,170,202.7,170z"/>
	<path class="st2" d="M235.3,119.4c0-18-14.6-32.6-32.6-32.6c-18,0-32.6,14.6-32.6,32.6c0,8.6,3.4,16.9,9.5,23
		c4.2,4.3,7.1,9.6,8.3,15.4l0.3,1.1h28.9l0.3-1.3c1.5-5.9,4.5-11.3,8.7-15.7C232.1,135.9,235.4,127.8,235.3,119.4z"/>
	<path class="st1" d="M217.2,160h-28.9c-0.5,0-0.9-0.3-1-0.8l-0.3-1.1c-1.3-5.6-4.1-10.8-8.1-15c-13.1-13.1-13.1-34.4,0.1-47.5
		c5.8-5.8,13.5-9.2,21.6-9.7c9.3-0.6,18.4,2.7,25.2,9c6.7,6.4,10.6,15.2,10.6,24.5c0,8.7-3.3,17-9.3,23.2c-4.1,4.2-7.1,9.5-8.5,15.2
		l-0.3,1.4C218,159.6,217.7,159.9,217.2,160z M189.1,157.9h27.3l0.1-0.6c1.5-6.1,4.6-11.7,9-16.1c12.1-12.6,11.6-32.6-1-44.6
		s-32.6-11.6-44.6,1c-11.9,12.4-11.7,32,0.4,44.1c4.3,4.4,7.3,9.9,8.6,15.9L189.1,157.9z"/>
	<path class="st3" d="M189.2,158.9h27.1c1.7,0,3,1.3,3,3v0.7c0,1.7-1.3,3-3,3h-27.1c-1.7,0-3-1.3-3-3V162
		C186.2,160.3,187.5,158.9,189.2,158.9z"/>
	<path class="st1" d="M216.3,166.7h-27.1c-2.2,0-4.1-1.8-4.1-4.1v-0.7c0-2.2,1.8-4.1,4.1-4.1h27.1c2.2,0,4.1,1.8,4.1,4.1v0.7
		C220.4,164.8,218.5,166.7,216.3,166.7z M189.2,160c-1.1,0-2,0.9-2,2v0.7c0,1.1,0.9,2,2,2h27.1c1.1,0,2-0.9,2-2V162c0-1.1-0.9-2-2-2
		H189.2z"/>
	<path class="st3" d="M189.2,165.6h27.1c1.7,0,3,1.3,3,3v0.7c0,1.7-1.3,3-3,3h-27.1c-1.7,0-3-1.3-3-3v-0.7
		C186.2,167,187.5,165.6,189.2,165.6z"/>
	<path class="st1" d="M216.3,173.3h-27.1c-2.2,0-4.1-1.8-4.1-4.1v-0.7c0-2.2,1.8-4.1,4.1-4.1h27.1c2.2,0,4.1,1.8,4.1,4.1v0.7
		C220.4,171.5,218.5,173.3,216.3,173.3z M189.2,166.6c-1.1,0-2,0.9-2,2v0.7c0,1.1,0.9,2,2,2h27.1c1.1,0,2-0.9,2-2v-0.7
		c0-1.1-0.9-2-2-2H189.2z"/>
	<path class="st3" d="M189.2,172.3h27.1c1.7,0,3,1.3,3,3v0.7c0,1.7-1.3,3-3,3h-27.1c-1.7,0-3-1.3-3-3v-0.7
		C186.2,173.7,187.5,172.3,189.2,172.3z"/>
	<path class="st1" d="M216.3,180h-27.1c-2.2,0-4.1-1.8-4.1-4.1v-0.6c0-2.2,1.8-4.1,4.1-4.1h27.1c2.2,0,4.1,1.8,4.1,4.1v0.7
		C220.4,178.2,218.5,180,216.3,180z M189.2,173.3c-1.1,0-2,0.9-2,2v0.7c0,1.1,0.9,2,2,2h27.1c1.1,0,2-0.9,2-2v-0.7c0-1.1-0.9-2-2-2
		H189.2z"/>
	<path class="st3" d="M197.2,156.9c-0.5,0-0.9-0.4-1-0.9l-5.5-40.6c0-0.4,0.2-0.8,0.6-1c0.4-0.2,0.9-0.1,1.2,0.2l10.8,11.7
		l10.9-14.6c0.3-0.4,1-0.5,1.4-0.2c0.3,0.2,0.4,0.6,0.4,0.9l-5,43.5c-0.1,0.6-0.6,1-1.1,0.9c-0.6-0.1-1-0.6-0.9-1.1l4.6-39.8
		l-9.4,12.5c-0.2,0.2-0.5,0.4-0.8,0.4c-0.3,0-0.6-0.1-0.8-0.3l-9.4-10.3l5.1,37.4c0.1,0.6-0.3,1.1-0.9,1.1L197.2,156.9z"/>
	<polygon class="st0" points="202.7,179.8 267.2,145.1 267.2,212 202.7,246.8 	"/>
	<path class="st1" d="M202.7,247.8c-0.2,0-0.4-0.1-0.5-0.2c-0.3-0.2-0.5-0.5-0.5-0.9v-67c0-0.4,0.2-0.7,0.5-0.9l64.4-34.7
		c0.3-0.2,0.7-0.2,1,0c0.3,0.2,0.5,0.5,0.5,0.9V212c0,0.4-0.2,0.7-0.5,0.9l-64.4,34.7C203.1,247.7,202.9,247.8,202.7,247.8z
		 M203.8,180.4v64.6l62.4-33.6v-64.6L203.8,180.4z"/>
	<polygon class="st0" points="202.7,179.8 138.3,145.1 138.3,212 202.7,246.8 	"/>
	<path class="st1" d="M202.7,247.8c-0.2,0-0.3,0-0.5-0.1l-64.4-34.7c-0.3-0.2-0.5-0.5-0.5-0.9v-66.9c0-0.6,0.5-1,1-1
		c0.2,0,0.3,0,0.5,0.1l64.4,34.7c0.3,0.2,0.5,0.5,0.5,0.9v67C203.8,247.4,203.3,247.8,202.7,247.8L202.7,247.8z M139.3,211.4
		l62.4,33.6v-64.7l-62.4-33.6V211.4z"/>
	<polygon class="st0" points="202.7,179.8 218.9,201.7 283.5,168.1 267.2,145.1 	"/>
	<path class="st1" d="M218.9,202.7c-0.3,0-0.6-0.1-0.8-0.4L202,180.4c-0.2-0.2-0.2-0.5-0.2-0.8c0.1-0.3,0.2-0.5,0.5-0.7l64.4-34.7
		c0.5-0.2,1-0.1,1.3,0.3l16.4,23c0.2,0.2,0.2,0.5,0.2,0.8c-0.1,0.3-0.3,0.5-0.5,0.7l-64.6,33.5C219.3,202.6,219.1,202.7,218.9,202.7
		z M204.3,180.2l15,20.2l62.8-32.6l-15.2-21.3L204.3,180.2z"/>
	<polygon class="st0" points="202.7,179.8 186.2,201.7 122.3,167.8 138.3,145.1 	"/>
	<path class="st1" d="M186.2,202.7c-0.2,0-0.3,0-0.5-0.1l-63.9-33.9c-0.5-0.3-0.7-0.9-0.4-1.4c0,0,0-0.1,0.1-0.1l16-22.7
		c0.3-0.4,0.9-0.5,1.3-0.3l64.4,34.7c0.3,0.1,0.4,0.4,0.5,0.7c0.1,0.3,0,0.6-0.2,0.8L187,202.3C186.8,202.6,186.5,202.7,186.2,202.7
		z M123.8,167.4l62.1,32.9l15.3-20.2l-62.6-33.7L123.8,167.4z"/>
	<polygon class="st4" points="196,234.1 174.6,223 174.6,213.6 196,224.6 	"/>
	<path class="st1" d="M196,235.1c-0.2,0-0.3,0-0.5-0.1l-21.4-11c-0.3-0.2-0.5-0.5-0.5-0.9v-9.4c0-0.6,0.5-1,1-1c0.2,0,0.3,0,0.5,0.1
		l21.3,11c0.3,0.2,0.5,0.5,0.5,0.9v9.4C197,234.6,196.5,235.1,196,235.1L196,235.1z M175.7,222.4l19.3,10v-7.2l-19.3-10V222.4z"/>
	<path class="st5" d="M203,76.8c-0.6,0-1-0.5-1-1V59.2c0-0.6,0.5-1,1-1s1,0.5,1,1v16.5C204,76.3,203.6,76.8,203,76.8z"/>
	<path class="st5" d="M184.8,78c-0.4,0-0.8-0.3-1-0.7l-5-13.5c-0.2-0.5,0.1-1.1,0.6-1.3c0.5-0.2,1.1,0.1,1.3,0.6l0,0l5,13.5
		c0.2,0.5-0.1,1.1-0.6,1.3C185,78,184.9,78,184.8,78z"/>
	<path class="st5" d="M171,87.8c-0.2,0-0.5-0.1-0.6-0.2l-12.5-10c-0.4-0.4-0.5-1-0.2-1.4c0,0,0,0,0,0c0.3-0.4,1-0.5,1.4-0.2
		c0,0,0,0,0,0L171.7,86c0.4,0.4,0.5,1,0.2,1.4c0,0,0,0,0,0C171.6,87.7,171.4,87.8,171,87.8z"/>
	<path class="st5" d="M162.3,103.9c-0.1,0-0.1,0-0.2,0l-19.3-4c-0.6-0.1-0.9-0.7-0.8-1.2c0.1-0.6,0.7-0.9,1.2-0.8l19.3,4
		c0.6,0.1,1,0.6,0.9,1.1C163.3,103.6,162.8,104,162.3,103.9z"/>
	<path class="st5" d="M221.2,78c-0.1,0-0.2,0-0.4-0.1c-0.5-0.2-0.8-0.8-0.6-1.3l5-13.5c0.2-0.5,0.8-0.8,1.3-0.6
		c0.5,0.2,0.8,0.8,0.6,1.3l-5,13.5C222,77.7,221.6,78,221.2,78z"/>
	<path class="st5" d="M235,87.8c-0.3,0-0.6-0.1-0.8-0.4c-0.4-0.4-0.3-1.1,0.1-1.4c0,0,0,0,0,0l12.5-10c0.4-0.4,1.1-0.3,1.4,0.2
		c0.4,0.4,0.3,1.1-0.2,1.4l-12.5,10C235.4,87.7,235.2,87.8,235,87.8z"/>
	<path class="st5" d="M243.7,103.9c-0.6,0.1-1.1-0.4-1.1-0.9c-0.1-0.6,0.4-1.1,0.9-1.1l19.3-4c0.6-0.1,1.1,0.3,1.2,0.8
		c0.1,0.6-0.3,1.1-0.8,1.2l-19.3,4C243.9,103.9,243.8,103.9,243.7,103.9z"/>
</g>
<g id="Capa_1">
</g>
</svg>
