<?xml version="1.0" encoding="utf-8"?>
<!-- Generator: Adobe Illustrator 21.1.0, SVG Export Plug-In . SVG Version: 6.00 Build 0)  -->
<svg version="1.1" id="Capa_1" xmlns="http://www.w3.org/2000/svg" xmlns:xlink="http://www.w3.org/1999/xlink" x="0px" y="0px"
	 viewBox="0 0 406 306" style="enable-background:new 0 0 406 306;" xml:space="preserve">
<style type="text/css">
	.st0{fill:#FFC9B0;}
	.st1{fill:#093F68;}
	.st2{fill:#C5FF26;}
	.st3{fill:#B50DFF;}
	.st4{fill:#FF7A19;}
	.st5{fill:#FFE219;}
	.st6{fill:#AD7972;}
	.st7{fill:#FFFFFF;}
	.st8{fill:#68E817;}
</style>
<g id="_232_designer_outline">
	<path class="st0" d="M260.9,213.6c4.6,5.7-7.9,17.5-13.9,11C240,217,256.4,208.1,260.9,213.6z"/>
	<path class="st1" d="M251.2,227.5c-1.9,0-3.7-0.8-5-2.2c-1.8-1.7-2.4-4.3-1.6-6.7c1.4-4,6.3-6.9,10.1-7.6c3-0.5,5.5,0.2,6.9,1.9
		c2.8,3.4,0.5,8.4-3.2,11.5C256.5,226.3,253.9,227.4,251.2,227.5z M256.7,212.9c-0.5,0-1,0.1-1.5,0.1c-3.8,0.7-7.6,3.4-8.6,6.2
		c-0.6,1.7-0.1,3.5,1.2,4.7c2.5,2.7,6.5,1.5,9.4-1c2.9-2.5,4.8-6.3,2.9-8.7l0,0C259.2,213.3,257.9,212.8,256.7,212.9z"/>
	<path class="st2" d="M195.3,65.2c0,0-4.8-9-8.7-8.1s-2.4,3.5-1.5,4.1s7,1,8.1,5.9L195.3,65.2z"/>
	<path class="st1" d="M193.1,68c-0.1,0-0.2,0-0.3,0c-0.3-0.1-0.6-0.4-0.7-0.7c-0.8-3.2-4.4-4.2-6.3-4.8c-0.5-0.1-1-0.3-1.5-0.5
		c-1.1-0.8-1.6-2.1-1.4-3.3c0.2-0.9,0.9-2.1,3.3-2.6c4.5-1,9.3,7.7,9.8,8.7c0.2,0.4,0.1,0.9-0.2,1.3l-2.1,1.8
		C193.6,67.9,193.4,68,193.1,68z M187.1,58h-0.3c-1,0.2-1.6,0.6-1.7,1c0,0.5,0.2,0.9,0.5,1.2c0.1,0,0.5,0.2,0.9,0.3
		c1.9,0.5,5.6,1.5,7.2,4.8l0.4-0.3C192.1,61.8,189.1,58,187.1,58L187.1,58z"/>
	<path class="st2" d="M193.8,174.6h22.4c14.3,0,25.9,11.6,25.9,25.9l0,0v46.3l0,0h-74.1l0,0v-46.3
		C167.9,186.2,179.5,174.6,193.8,174.6z"/>
	<path class="st1" d="M242.1,247.7h-74.2c-0.6,0-1-0.5-1-1v-46.3c0-14.9,12.1-26.9,26.9-26.9c0,0,0,0,0,0h22.3
		c14.8,0,26.9,12,26.9,26.9v46.3C243.1,247.3,242.7,247.7,242.1,247.7z M169,245.7h72.1v-45.2c0-13.7-11.2-24.9-24.9-24.8h-22.3
		c-13.7,0-24.8,11.1-24.9,24.8L169,245.7z"/>
	<path class="st1" d="M228.6,226.7c-0.6,0-1-0.5-1-1v-36.1c0-0.6,0.5-1,1-1s1,0.5,1,1v36.1C229.6,226.2,229.2,226.7,228.6,226.7
		C228.6,226.7,228.6,226.7,228.6,226.7z"/>
	<path class="st1" d="M183.6,247.7c-0.6,0-1-0.5-1-1v-57.2c0-0.6,0.5-1,1-1s1,0.5,1,1v57.1C184.6,247.2,184.2,247.7,183.6,247.7
		C183.6,247.7,183.6,247.7,183.6,247.7z"/>
	<polygon class="st1" points="219.5,202 190.6,202 183.6,208.8 183.6,246.7 226.5,246.7 226.5,208.8 	"/>
	<path class="st1" d="M226.5,247.7h-42.9c-0.6,0-1-0.5-1-1v-37.9c0-0.3,0.1-0.5,0.3-0.7l7-6.7c0.2-0.2,0.4-0.3,0.7-0.3h28.9
		c0.3,0,0.5,0.1,0.7,0.3l7,6.7c0.2,0.2,0.3,0.5,0.3,0.7v37.9C227.5,247.3,227,247.7,226.5,247.7z M184.6,245.7h40.8v-36.5l-6.4-6.2
		H191l-6.4,6.2V245.7z"/>
	<path class="st1" d="M190.6,204.8c-0.6,0-1-0.5-1-1v-29.2c0-0.6,0.5-1,1-1s1,0.5,1,1v29.2C191.6,204.4,191.1,204.8,190.6,204.8z"/>
	<path class="st1" d="M219.6,204.8c-0.6,0-1-0.5-1-1v-29.2c0-0.6,0.5-1,1-1s1,0.5,1,1v29.2C220.7,204.4,220.2,204.8,219.6,204.8z"/>
	<path class="st3" d="M162.4,166.3c1.1,2.4,3.4,3.2,7.5,3c8.8-0.4,17.6,0,26.4,0h48.4c2.9,0,4.4-1.4,4.5-4.3
		c0.7-12.6,0-24.9-0.8-37.4c-0.7-11.3-2.2-22.8-7.9-32.8c-11-19.3-40.3-28.1-53-11.6c0,0-9.1-3-17.7,7.6c-7,8.7-7.7,20.2-7.8,30.9
		l-0.5,39.7C161.5,163,161.8,164.7,162.4,166.3z"/>
	<path class="st1" d="M168.7,170.4c-2.9,0-5.9-0.6-7.3-3.7c-0.7-1.7-1-3.6-0.9-5.5l0.5-39.7c0.1-11.1,0.9-22.6,8.1-31.5
		c7.6-9.4,15.7-8.6,18.1-8.1c5-6.1,12.6-9.1,21.5-8.5c13.1,0.9,26.2,9.2,32.8,20.7c5.9,10.4,7.4,22.6,8,33.2
		c0.8,12.3,1.5,25,0.8,37.6c-0.2,3.5-2.1,5.3-5.5,5.3h-48.4c-2.9,0-5.7,0-8.6-0.1c-5.9-0.1-11.9-0.2-17.8,0.1
		C169.5,170.4,169.1,170.4,168.7,170.4z M184.4,83.8c-3.2,0-8.5,1.2-13.7,7.6c-6.8,8.4-7.5,19.5-7.6,30.2l-0.5,39.7
		c-0.1,1.6,0.1,3.1,0.7,4.6l0,0c0.6,1.4,1.9,2.7,6.5,2.4c6-0.3,12-0.2,17.9-0.1c2.9,0,5.7,0.1,8.5,0.1h48.4c2.4,0,3.4-1,3.5-3.4
		c0.7-12.5,0-24.5-0.8-37.3c-0.7-10.9-2.1-22.3-7.8-32.4c-6.2-10.9-18.7-18.8-31.1-19.7c-8.5-0.6-15.6,2.3-20.1,8.2
		c-0.3,0.3-0.7,0.5-1.1,0.3C186.3,83.9,185.3,83.8,184.4,83.8L184.4,83.8z"/>
	<path class="st0" d="M198.9,174.6h11.9l0,0v6.8c0,2.8-2.3,5.1-5.1,5.1h-1.8c-2.8,0-5.1-2.3-5.1-5.1L198.9,174.6L198.9,174.6z"/>
	<path class="st1" d="M205.7,187.5h-1.8c-3.4,0-6.1-2.7-6.1-6.1v-6.9c0-0.6,0.5-1,1-1h11.9c0.6,0,1,0.5,1,1v6.9
		C211.8,184.8,209.1,187.5,205.7,187.5z M199.9,175.6v5.8c0,2.2,1.8,4.1,4.1,4.1h1.8c2.2,0,4.1-1.8,4.1-4.1v-5.8L199.9,175.6z"/>
	<ellipse class="st0" cx="170.8" cy="143.6" rx="11.6" ry="10"/>
	<path class="st1" d="M170.8,154.6c-7,0-12.6-4.9-12.6-11s5.7-11,12.6-11c7,0,12.6,4.9,12.6,11S177.7,154.6,170.8,154.6z
		 M170.8,134.6c-5.8,0-10.6,4.1-10.6,9s4.7,9,10.6,9c5.8,0,10.6-4.1,10.6-9S176.6,134.6,170.8,134.6z"/>
	<ellipse class="st0" cx="238.3" cy="143.6" rx="11.6" ry="10"/>
	<path class="st1" d="M238.3,154.6c-6.9,0-12.6-4.9-12.6-11s5.7-11,12.6-11s12.6,4.9,12.6,11S245.3,154.6,238.3,154.6z M238.3,134.6
		c-5.8,0-10.6,4.1-10.6,9s4.7,9,10.6,9c5.8,0,10.6-4.1,10.6-9S244.1,134.6,238.3,134.6z"/>
	<path class="st0" d="M226.1,114l-11.3-14.5c0,0-2.5,9-4.1,14.5l-17.8-0.1l-4.2-13l-4.9,13h-13.8v27.4c0,19.3,15.6,35,34.9,35
		c0,0,0,0,0,0l0,0c19.3,0,35-15.7,35-35l0,0V114L226.1,114z"/>
	<path class="st1" d="M204.8,177.2c-19.9,0-35.9-16.1-36-36v-27.4c0-0.6,0.5-1,1-1H183l4.7-12.3c0.2-0.4,0.6-0.7,1-0.6
		c0.4,0,0.8,0.3,0.9,0.7l4,12.3l16.3,0.1c1.5-5.5,3.9-13.7,3.9-13.7c0.1-0.5,0.7-0.9,1.2-0.7c0.2,0.1,0.4,0.2,0.5,0.4l11,14.1h13.2
		c0.6,0,1,0.5,1,1v27.2C240.8,161.1,224.7,177.1,204.8,177.2z M170.9,114.8v26.4c-0.3,18.7,14.6,34.2,33.3,34.5s34.2-14.6,34.5-33.3
		c0-0.4,0-0.8,0-1.2V115h-12.7c-0.3,0-0.6-0.1-0.8-0.4l-10.1-13c-0.8,2.9-2.4,8.6-3.6,12.6c-0.1,0.5-0.5,0.8-1,0.7l0,0l-17.8-0.1
		c-0.4,0-0.8-0.3-1-0.7l-3.3-10.2l-3.9,10.3c-0.2,0.4-0.5,0.6-0.9,0.6l0,0L170.9,114.8z"/>
	<path class="st1" d="M188.9,151.1c-6.9,0-12.4-5.6-12.5-12.4s5.6-12.4,12.4-12.5c6.9,0,12.4,5.6,12.5,12.4c0,0,0,0,0,0
		C201.4,145.5,195.8,151.1,188.9,151.1z M188.9,128.3c-5.8,0-10.4,4.7-10.4,10.4c0,5.8,4.7,10.4,10.4,10.4c5.8,0,10.4-4.7,10.4-10.4
		c0,0,0,0,0,0C199.3,132.9,194.7,128.3,188.9,128.3z"/>
	<path class="st1" d="M220.8,151.1c-6.9,0-12.4-5.6-12.5-12.4s5.6-12.4,12.4-12.5c6.9,0,12.4,5.6,12.5,12.4c0,0,0,0,0,0
		C233.2,145.5,227.6,151.1,220.8,151.1z M220.8,128.3c-5.8,0-10.4,4.7-10.4,10.4c0,5.8,4.7,10.4,10.4,10.4c5.8,0,10.4-4.7,10.4-10.4
		c0,0,0,0,0,0C231.2,132.9,226.5,128.3,220.8,128.3z"/>
	<circle class="st1" cx="190" cy="139.3" r="3.2"/>
	<circle class="st1" cx="218.8" cy="138.7" r="3.2"/>
	<path class="st1" d="M204.3,150.4c-1.1,0-2.1-0.1-3.2-0.3c-0.6-0.1-0.9-0.6-0.8-1.2c0.1-0.6,0.6-0.9,1.2-0.8
		c1.6,0.3,3.2,0.3,4.8,0.1c0.2-0.9-1-4.4-2.7-7.6c-0.3-0.5-0.1-1.1,0.4-1.4c0.5-0.3,1.1-0.1,1.4,0.4c1.1,2.2,3.7,7.5,2.7,9.5
		c-0.2,0.5-0.6,0.9-1.2,1C206,150.3,205.1,150.4,204.3,150.4z"/>
	<path class="st1" d="M206.8,163.1c-6,0-11.7-2.5-15.9-6.8c-0.4-0.4-0.3-1.1,0.2-1.4c0.4-0.3,1-0.3,1.4,0.1
		c0.4,0.4,9.6,10.5,23.9,3.9c0.5-0.2,1.1,0,1.3,0.5s0,1.1-0.5,1.3C213.8,162.3,210.3,163.1,206.8,163.1z"/>
	<path class="st1" d="M209.3,138.2c-0.2,0-0.4-0.1-0.6-0.2c-2.3-1.7-5.5-1.7-7.9,0c-0.4,0.3-1.1,0.3-1.4-0.2c0,0,0,0,0,0
		c-0.3-0.4-0.3-1.1,0.2-1.4c3.1-2.2,7.2-2.2,10.3,0c0.5,0.3,0.6,1,0.3,1.4C210,138,209.7,138.2,209.3,138.2z"/>
	<path class="st1" d="M177.4,136.5c-0.1,0-0.2,0-0.3,0l-6.7-1.8c-0.6-0.1-0.9-0.6-0.8-1.2c0.1-0.6,0.6-0.9,1.2-0.8
		c0.1,0,0.1,0,0.2,0l6.7,1.8c0.6,0.1,1,0.6,0.9,1.1C178.5,136.2,178,136.6,177.4,136.5L177.4,136.5z"/>
	<path class="st1" d="M232.7,136.5c-0.6,0.1-1.1-0.3-1.1-0.9c-0.1-0.6,0.3-1.1,0.9-1.1l6.7-1.8c0.5-0.2,1.1,0.1,1.3,0.6
		c0.2,0.5-0.1,1.1-0.6,1.3c-0.1,0-0.1,0-0.2,0.1l-6.7,1.8C232.9,136.4,232.8,136.4,232.7,136.5z"/>
	<path class="st2" d="M173.6,94.6c5.4-1.4,17.3-8.7,26-9.7c8.7-1,29.3,1.4,35.4-1.9c6.1-3.3,8-15.1-0.9-23.6s-34.5,0.5-51,10.1
		s-22.7,11.6-22.4,18.2S168.1,96,173.6,94.6z"/>
	<path class="st1" d="M169.9,96.1c-2.6,0.1-5.1-0.7-7.2-2.1c-2-1.5-3.1-3.8-3.2-6.2c-0.2-6,4.1-8.4,14.7-14.4
		c2.4-1.4,5.1-2.9,8.3-4.7c15.6-9.1,42.4-19.4,52.2-10c4.8,4.5,7.1,10.4,6.3,16.2c-0.5,4.1-2.6,7.4-5.6,9c-4.1,2.2-13.7,2-23,1.9
		c-4.3-0.2-8.6-0.1-12.8,0.1c-5.3,0.6-12,3.7-17.4,6.2c-2.7,1.4-5.5,2.5-8.4,3.5l0,0C172.5,95.9,171.2,96.1,169.9,96.1z M223.1,57
		c-3.9,0.1-7.8,0.6-11.5,1.6c-9.8,2.7-19.3,6.6-28.1,11.8c-3.1,1.8-5.9,3.4-8.3,4.8c-10,5.7-13.8,7.8-13.6,12.5
		c0,1.8,0.9,3.6,2.3,4.6c2.2,1.7,5.9,2.2,9.4,1.3l0,0c2.8-0.9,5.5-2,8.1-3.4c5.5-2.6,12.4-5.7,18-6.4c4.4-0.3,8.7-0.3,13.1-0.2
		c8.6,0.2,18.3,0.4,22-1.6c2.4-1.3,4.1-4.1,4.5-7.5c0.7-5.1-1.4-10.4-5.7-14.5C230.9,57.8,227.1,57,223.1,57z"/>
	<path class="st0" d="M181.9,246.8c-3.6,3.3-11.5,5.7-15.5-1c-4-6.7-11.9-35.3-11.9-35.3l9.3-8.3l18.5,30.4
		C184.9,236.7,185.5,243.5,181.9,246.8z"/>
	<path class="st1" d="M173.8,251c-0.5,0-1,0-1.5-0.1c-2.8-0.4-5.3-2.2-6.7-4.7c-4-6.8-11.6-34.4-12-35.6c-0.1-0.4,0-0.8,0.3-1
		l9.3-8.3c0.4-0.4,1.1-0.3,1.4,0.1c0,0,0.1,0.1,0.1,0.1l18.5,30.4c2.8,4.8,3.3,12.1-0.6,15.7C180.2,249.7,177,251,173.8,251z
		 M155.7,210.7c1.2,4.2,8.1,28.5,11.6,34.5c1.1,2,3,3.4,5.2,3.7c3.2,0.3,6.3-0.7,8.7-2.9c3-2.8,2.6-9.1,0.2-13.1l-17.9-29.3
		L155.7,210.7z"/>
	
		<rect x="148.9" y="184.9" transform="matrix(0.9384 -0.3456 0.3456 0.9384 -56.2804 64.635)" class="st4" width="8.5" height="10.5"/>
	<path class="st1" d="M151,197.5c-0.4,0-0.8-0.3-1-0.7l-3.6-9.8c-0.2-0.5,0.1-1.1,0.6-1.3l7.9-2.9c0.2-0.1,0.5-0.1,0.8,0
		c0.2,0.1,0.4,0.3,0.5,0.6l3.6,9.8c0.2,0.5-0.1,1.1-0.6,1.3l-7.9,2.9C151.2,197.5,151.1,197.5,151,197.5z M148.6,187.3l2.9,7.9
		l6.1-2.2l-2.9-7.9L148.6,187.3z"/>
	<path class="st5" d="M154.8,183.9c0.6-2.2,0.2-4.6-0.9-6.6c-3-5.4-5.9,1.5-9-9.1c0,0-4.2,6.3-2.5,11.4c1.9,5.7,5.9,6.7,5.9,6.7
		L154.8,183.9z"/>
	<path class="st1" d="M148.2,187.4c-0.1,0-0.2,0-0.3,0c-0.2,0-4.5-1.3-6.6-7.4c-1.9-5.6,2.4-12.1,2.6-12.3c0.2-0.3,0.6-0.5,1-0.4
		c0.4,0.1,0.7,0.3,0.8,0.7c1.6,5.6,3,5.8,4.5,5.9c2,0.1,3.7,1.2,4.5,3c1.3,2.2,1.7,4.9,1,7.4c-0.1,0.3-0.3,0.5-0.6,0.6l-6.5,2.4
		C148.5,187.4,148.3,187.4,148.2,187.4z M144.6,170.7c-1,2.1-2.3,5.6-1.3,8.6c1.4,4.2,4.1,5.6,4.9,5.9l5.7-2.1
		c0.3-1.8,0-3.7-0.9-5.3c-0.4-1.2-1.6-2-2.9-2C148,175.6,146.2,175.1,144.6,170.7L144.6,170.7z M154.7,183.9L154.7,183.9z
		 M154.7,183.9L154.7,183.9z"/>
	<path class="st6" d="M151.8,196.2c1.4,5,3.3,10.8,5.6,17c4.5,12.3,9.3,22.6,12.4,27.4l3.4-1.3c-0.7-5.7-3.8-16.6-8.3-28.9
		c-2.3-6.2-4.6-11.8-6.7-16.6L151.8,196.2z"/>
	<path class="st1" d="M169.8,241.7c-0.3,0-0.7-0.2-0.9-0.5c-3.3-5.1-8.1-15.7-12.5-27.6c-2.2-6-4.2-11.9-5.6-17.1
		c-0.2-0.5,0.1-1.1,0.6-1.2l6.4-2.3c0.5-0.2,1.1,0,1.3,0.5c2.2,4.9,4.6,10.7,6.8,16.6c4.4,12,7.6,23.1,8.4,29.1c0,0.5-0.2,0.9-0.6,1
		l-3.4,1.3C170,241.6,169.9,241.6,169.8,241.7z M153,196.8c1.4,4.9,3.3,10.4,5.3,16c4.2,11.3,8.7,21.3,11.9,26.5l1.9-0.7
		c-0.9-6-4-16.6-8.2-27.9c-2-5.6-4.2-11-6.3-15.7L153,196.8z"/>
	<path class="st0" d="M150.9,202.1l7.2-2.6c0.9-0.3,1.9,0.1,2.3,1l0.2,0.4c0.3,0.9-0.1,1.9-1,2.3l-7.2,2.6c-0.9,0.3-1.9-0.1-2.3-1
		l-0.2-0.4C149.5,203.5,150,202.5,150.9,202.1z"/>
	<path class="st1" d="M151.7,207c-0.4,0-0.8-0.1-1.2-0.3c-0.7-0.3-1.2-0.9-1.4-1.6l-0.2-0.4c-0.5-1.4,0.2-3,1.6-3.6l7.1-2.6
		c1.4-0.5,3,0.2,3.6,1.6l0.2,0.4c0.3,0.7,0.2,1.5-0.1,2.1c-0.3,0.7-0.9,1.2-1.6,1.4l-7.1,2.6C152.3,206.9,152,207,151.7,207z
		 M158.6,200.4c-0.1,0-0.2,0-0.3,0.1l-7.1,2.6c-0.4,0.1-0.6,0.6-0.4,1c0,0,0,0,0,0l0.2,0.4c0.1,0.2,0.2,0.3,0.4,0.4
		c0.2,0.1,0.4,0.1,0.6,0l7.1-2.6l0,0c0.2-0.1,0.3-0.2,0.4-0.4c0.1-0.2,0.1-0.4,0-0.6l-0.2-0.4c-0.1-0.2-0.2-0.3-0.4-0.4
		C158.8,200.4,158.7,200.4,158.6,200.4z"/>
	<path class="st0" d="M163.8,199.3l2.9,7.8c0.4,1-0.1,2-1.1,2.4l0,0c-1,0.4-2-0.1-2.4-1.1l-2.9-7.8c-0.4-1,0.1-2,1.1-2.4l0,0
		C162.3,197.8,163.4,198.3,163.8,199.3z"/>
	<path class="st1" d="M164.9,210.6c-1.2,0-2.3-0.8-2.7-1.9l-2.9-7.8c-0.5-1.5,0.2-3.1,1.7-3.7c0,0,0,0,0,0c0.7-0.3,1.5-0.2,2.2,0.1
		c0.7,0.3,1.2,0.9,1.5,1.6l2.9,7.8c0.5,1.5-0.2,3.1-1.7,3.7C165.6,210.5,165.2,210.6,164.9,210.6z M162,199.1c-0.1,0-0.2,0-0.3,0
		c-0.2,0.1-0.4,0.2-0.5,0.4c-0.1,0.2-0.1,0.4,0,0.6l2.9,7.8l0,0c0.1,0.2,0.2,0.4,0.4,0.5c0.4,0.2,0.9,0,1.1-0.4
		c0.1-0.2,0.1-0.4,0-0.6l-2.9-7.7c-0.1-0.2-0.2-0.4-0.4-0.5C162.3,199.2,162.2,199.1,162,199.1z"/>
	<path class="st0" d="M152.2,205.9l7.2-2.6c0.9-0.3,1.9,0.1,2.3,1l0.2,0.4c0.3,0.9-0.1,1.9-1,2.3l-7.2,2.6c-0.9,0.3-1.9-0.1-2.3-1
		l-0.2-0.4C150.9,207.2,151.3,206.2,152.2,205.9z"/>
	<path class="st1" d="M153,210.7c-1.2,0-2.2-0.7-2.6-1.8l-0.2-0.4c-0.5-1.4,0.2-3,1.6-3.6l7.1-2.6c1.4-0.5,3,0.2,3.6,1.6l0.2,0.4
		c0.5,1.4-0.2,3-1.6,3.6l0,0l-7.2,2.6C153.6,210.6,153.3,210.7,153,210.7z M160,204.1c-0.1,0-0.2,0-0.3,0l-7.2,2.7
		c-0.2,0.1-0.3,0.2-0.4,0.4c-0.1,0.2-0.1,0.4,0,0.6l0.2,0.4c0.1,0.4,0.5,0.6,0.9,0.5c0,0,0,0,0,0l7.2-2.6c0.4-0.1,0.6-0.6,0.4-0.9
		l-0.2-0.4c-0.1-0.2-0.2-0.3-0.4-0.4C160.2,204.1,160.1,204.1,160,204.1z M160.8,206.9L160.8,206.9z"/>
	<path class="st0" d="M153.6,209.6l7.2-2.6c0.9-0.3,1.9,0.1,2.3,1l0.2,0.4c0.3,0.9-0.1,1.9-1,2.3l-7.2,2.6c-0.9,0.3-1.9-0.1-2.3-1
		l-0.2-0.4C152.2,210.9,152.7,209.9,153.6,209.6z"/>
	<path class="st1" d="M154.4,214.4c-0.4,0-0.8-0.1-1.2-0.3c-0.7-0.3-1.2-0.9-1.4-1.6l-0.2-0.4c-0.5-1.4,0.2-3,1.6-3.6l7.2-2.6
		c1.4-0.5,3,0.2,3.6,1.6l0.2,0.4c0.5,1.4-0.2,3-1.6,3.6l-7.1,2.6C155.1,214.4,154.7,214.4,154.4,214.4z M161.4,207.8
		c-0.1,0-0.2,0-0.3,0.1l-7.2,2.6c-0.2,0.1-0.3,0.2-0.4,0.4c-0.1,0.2-0.1,0.4,0,0.6l0.2,0.4c0.1,0.2,0.2,0.3,0.4,0.4
		c0.2,0.1,0.4,0.1,0.6,0l7.1-2.6l0,0c0.4-0.1,0.6-0.6,0.4-0.9c0,0,0,0,0,0l-0.2-0.4C161.9,208,161.7,207.8,161.4,207.8z"/>
	<path class="st0" d="M155,213.3l7.2-2.6c0.9-0.3,1.9,0.1,2.3,1l0.2,0.4c0.3,0.9-0.1,1.9-1,2.3l-7.2,2.6c-0.9,0.3-1.9-0.1-2.3-1
		l-0.2-0.4C153.6,214.7,154.1,213.6,155,213.3z"/>
	<path class="st1" d="M155.8,218.1c-1.2,0-2.2-0.7-2.6-1.8l-0.2-0.4c-0.5-1.4,0.2-3,1.6-3.6l7.1-2.6c1.4-0.5,3,0.2,3.6,1.6l0.2,0.4
		c0.5,1.4-0.2,3-1.6,3.5c0,0,0,0,0,0l-7.1,2.6C156.4,218.1,156.1,218.1,155.8,218.1z M162.8,211.6c-0.1,0-0.2,0-0.3,0l-7.1,2.6
		c-0.4,0.1-0.6,0.6-0.4,0.9c0,0,0,0,0,0l0.2,0.4c0.1,0.2,0.2,0.3,0.4,0.4c0.2,0.1,0.4,0.1,0.6,0l7.1-2.6l0,0
		c0.4-0.1,0.6-0.6,0.4-0.9c0,0,0,0,0,0l-0.2-0.4C163.3,211.7,163.1,211.6,162.8,211.6L162.8,211.6z"/>
	<path class="st7" d="M254.8,198.3c-7.8-2.9-23.5-4.9-37,8.9c-13.5,13.8-8.9,30.4,5.4,37c14.3,6.6,26.5,3.4,29.3-5.5
		s-6.6-9.6-2.8-14.3c3.9-4.7,8.7,0.6,12.8-6.9S262.6,201.2,254.8,198.3z"/>
	<path class="st1" d="M237.6,248.8c-5.2-0.1-10.2-1.3-14.9-3.6c-7.4-3.4-12.4-9.5-13.7-16.6c-1.4-7.5,1.5-15.4,8-22.1
		c12.4-12.7,27.8-13,38.1-9.1l0,0c4.2,1.5,7.5,4.8,9.1,9c1.4,3.8,1.1,8.1-0.9,11.7c-2.5,4.7-5.6,4.9-8.1,5.1c-1.9,0.1-3.4,0.2-4.8,2
		c-1.2,1.5-0.8,2.1,0.7,3.9c1.7,2,4,4.8,2.3,10.1c-1.2,3.7-3.9,6.7-7.5,8.1C243.3,248.3,240.5,248.9,237.6,248.8z M243.1,197.2
		c-7.9,0-16.9,2.9-24.6,10.7c-6.1,6.2-8.7,13.4-7.5,20.3c1.2,6.5,5.8,12,12.5,15.1c8.1,3.7,15.9,4.4,21.5,2c3-1.2,5.4-3.8,6.4-6.9
		c1.3-4.3-0.3-6.3-1.9-8.2c-1.4-1.7-3-3.6-0.7-6.5c2-2.4,4.2-2.6,6.2-2.7c2.4-0.2,4.4-0.3,6.5-4.1c1.7-3.1,2-6.7,0.8-10
		c-1.4-3.6-4.2-6.4-7.9-7.8l0,0C250.8,197.9,247,197.2,243.1,197.2z"/>
	<path class="st5" d="M232.1,204c0.1,0.4,0.3,0.8,0.4,1.2c0,1.1-0.5,2.1-1.5,2.7c-0.9,0.5-1.8,1.3-2.4,2.1c-0.7,1.5-0.3,3.3,1.1,4.3
		c1.4,0.9,3.1,1,4.7,0.4c1.6-0.6,3.3-2,4.8-1.2c0.5,0.4,1,0.8,1.5,1.2c2,1.6,5,1.3,6.7-0.6c1.6-2,1.6-4.9,0-6.9
		c-2.2-2.7-0.3-7.1-5-7.5C239.9,199.3,231.4,200.4,232.1,204z"/>
	<path class="st1" d="M243.5,216.7c-1.3,0-2.6-0.4-3.6-1.3c-0.2-0.1-0.3-0.3-0.5-0.5c-0.2-0.2-0.5-0.5-0.8-0.6
		c-0.7-0.3-1.5,0-2.8,0.7c-0.4,0.2-0.8,0.4-1.2,0.6c-1.8,0.8-4,0.6-5.6-0.5c-1.8-1.3-2.4-3.7-1.4-5.7c0.5-0.8,1.2-1.5,2.1-2l0.6-0.4
		c0.6-0.4,1.2-1.1,1.1-1.7c0-0.1-0.1-0.3-0.1-0.4c-0.1-0.2-0.2-0.5-0.2-0.7l0,0c-0.2-1,0.1-2,0.8-2.7c2.3-2.5,8.7-3,10.5-2.9
		c3.7,0.4,4.2,2.9,4.6,4.9c0.1,1.1,0.5,2.1,1.1,3c1.9,2.4,1.9,5.8,0,8.2c-1,1.2-2.5,1.9-4.1,2L243.5,216.7z M238.1,212.1
		c0.5,0,1,0.1,1.4,0.3c0.5,0.3,0.9,0.6,1.3,1c0.1,0.1,0.2,0.3,0.4,0.4c0.7,0.6,1.7,0.9,2.6,0.8c1-0.1,2-0.5,2.7-1.3
		c1.3-1.7,1.2-4-0.1-5.6c-0.8-1.1-1.3-2.5-1.5-3.8c-0.4-2.1-0.7-3.1-2.8-3.3c-1.8-0.2-7.2,0.5-8.7,2.2c-0.3,0.2-0.4,0.6-0.3,1l0,0
		c0,0.1,0.1,0.3,0.1,0.4c0.1,0.2,0.2,0.5,0.2,0.7c0.2,1.5-0.6,2.9-1.8,3.7l-0.7,0.5c-0.6,0.3-1.1,0.8-1.5,1.3
		c-0.5,1.1-0.1,2.3,0.8,3c1.1,0.7,2.5,0.8,3.7,0.2c0.4-0.1,0.7-0.3,1-0.5C235.9,212.6,237,212.2,238.1,212.1z"/>
	<path class="st1" d="M252.7,210.5c-0.8,0.8-1.3,1.9-1.4,3c-0.1,0.8,0.2,1.6,0.8,2.1c0.5,0.4,1.1,0.5,1.7,0.5
		c1.6-0.1,3.1-0.6,4.3-1.6c1.6-1.2,4.3-4.8,1.8-6.5C257.7,206.6,254.2,208.9,252.7,210.5z"/>
	<path class="st1" d="M253.8,217.2L253.8,217.2c-0.8,0-1.7-0.2-2.3-0.7c-0.8-0.7-1.3-1.8-1.1-3c0.1-1.4,0.7-2.7,1.7-3.7l0,0
		c1.8-2,5.7-4.4,8.5-2.6c0.9,0.6,1.5,1.5,1.5,2.6c0.1,2.2-2,4.5-3.2,5.5C257.3,216.5,255.6,217.2,253.8,217.2z M253.4,211.2
		c-0.7,0.7-1.1,1.5-1.1,2.5c-0.1,0.5,0.1,0.9,0.4,1.3c0.3,0.2,0.7,0.3,1.1,0.3c1.4,0,2.7-0.5,3.7-1.4c1-0.8,2.5-2.6,2.4-3.9
		c0-0.4-0.2-0.8-0.6-1C257.9,208,254.9,209.6,253.4,211.2L253.4,211.2z"/>
	<path class="st0" d="M259.3,206.3c-0.4-0.9-1.2-2-2.2-1.8s-1.3,1.3-1.5,2.3c-0.5,2.6-0.5,5.3-1,8c-0.1,0.2,0,0.5,0.1,0.7
		c0.1,0.1,0.3,0.2,0.5,0.2c2.1,0.1,4-1.1,5-2.9C261,210.9,260.1,208.1,259.3,206.3z"/>
	<path class="st1" d="M255.5,216.6h-0.4c-0.4,0-0.8-0.2-1.1-0.5c-0.4-0.4-0.5-1-0.4-1.6c0.2-1.3,0.4-2.7,0.5-4
		c0.1-1.3,0.3-2.6,0.5-4c0.3-1.8,1.1-2.9,2.3-3.1c1.2-0.2,2.6,0.6,3.3,2.4l0,0c1.4,3.2,1.6,5.6,0.8,7.3
		C259.9,215.2,257.8,216.5,255.5,216.6z M257.4,205.5L257.4,205.5c-0.2,0-0.5,0.4-0.7,1.5c-0.2,1.2-0.4,2.5-0.5,3.8
		c-0.1,1.3-0.3,2.6-0.5,3.9c1.5-0.1,2.8-1,3.6-2.3c0.4-0.8,0.5-2.4-0.8-5.6C258.1,206,257.6,205.4,257.4,205.5L257.4,205.5z"/>
	<path class="st4" d="M219.3,215c-1.9,0.7-3.7,2.1-3.7,4c0.1,0.9,0.3,1.8,0.5,2.7c0.3,2.2-0.9,4.6,0.3,6.4c0.9,1.1,2.2,1.7,3.6,1.7
		c2,0.2,4.4-0.4,5.4-2.2c0.1-0.4,0.4-0.7,0.7-1c0.3-0.2,0.7-0.3,1.1-0.3c1.3-0.2,2.4-1.1,2.9-2.3c0.8-2-0.6-4.2-2-5.6
		c-1.7-1.7-4.3-3.8-6.9-3.8C220.7,214.6,220,214.7,219.3,215z"/>
	<path class="st1" d="M220.9,230.8H220c-1.7,0-3.3-0.8-4.4-2.1c-1-1.4-0.8-3-0.6-4.5c0.1-0.8,0.2-1.5,0.1-2.3
		c-0.1-0.3-0.1-0.6-0.2-1c-0.2-0.6-0.3-1.2-0.3-1.8c-0.1-2.5,2.3-4.2,4.3-5l0,0c0.8-0.3,1.6-0.4,2.4-0.5l0,0c3.1,0,6.1,2.6,7.6,4.1
		c2.2,2.3,3,4.7,2.2,6.7c-0.6,1.6-2,2.7-3.7,2.9h-0.3c-0.1,0-0.3,0-0.4,0.1c-0.1,0.1-0.2,0.2-0.2,0.4c0,0.1-0.1,0.2-0.1,0.3
		C225.5,229.8,223.4,230.8,220.9,230.8z M221.4,215.5L221.4,215.5c-0.6,0-1.2,0.1-1.7,0.3l0,0c-1.5,0.5-3,1.7-3,3
		c0,0.4,0.1,0.9,0.2,1.3c0.1,0.4,0.2,0.8,0.3,1.2c0.1,0.9,0,1.9-0.1,2.8c-0.2,1.3-0.3,2.4,0.2,3.2c0.7,0.8,1.8,1.2,2.8,1.2
		c1.6,0.1,3.7-0.2,4.5-1.6l0.1-0.2c0.2-0.5,0.5-0.9,0.9-1.2c0.4-0.2,0.8-0.4,1.3-0.4h0.2c0.9-0.2,1.7-0.8,2.1-1.7
		c0.7-1.7-1-3.8-1.8-4.6C226.5,218,223.9,215.6,221.4,215.5L221.4,215.5z M219.3,214.9L219.3,214.9z"/>
	<path class="st8" d="M228.6,235.8c0.1,1.3,0.8,2.5,1.9,3.3c1.1,0.8,2.3,1.3,3.5,1.5c3.3,0.8,6.8,0.7,10-0.4
		c0.6-0.2,1.2-0.5,1.6-0.9c0.9-1.1,0.9-2.6,0-3.7c-0.9-1-2-1.8-3.3-2.2c-2.3-1-2.6-4.7-5.7-4.8c-1.4,0-2.1,0.9-3,1.8
		c-1.5,1.4-1.5,1.2-3.5,1.2C228.4,231.7,228.6,234.7,228.6,235.8z"/>
	<path class="st1" d="M238.3,242.1c-1.5,0-3.1-0.2-4.5-0.5c-1.4-0.3-2.7-0.9-3.9-1.7c-1.3-1-2.1-2.4-2.3-4.1v-0.1
		c-0.1-1.1-0.2-3.2,0.9-4.3c0.4-0.4,1-0.7,1.6-0.7h0.6c1.2,0,1.2,0,2.2-0.9l0.3-0.3c0.8-1.1,2.1-1.7,3.5-1.8c2.4,0.1,3.5,1.7,4.4,3
		c0.4,0.8,1,1.4,1.7,1.8c1.4,0.5,2.7,1.4,3.7,2.5c1.2,1.5,1.1,3.5-0.1,5c-0.6,0.5-1.3,0.9-2,1.1
		C242.4,241.8,240.4,242.1,238.3,242.1z M230.1,232.7c0,0-0.1,0-0.1,0c-0.3,0.3-0.4,1.3-0.3,2.8v0.2l0,0c0.1,1,0.6,1.9,1.5,2.5
		c0.9,0.7,2,1.1,3.1,1.3c3.1,0.7,6.4,0.6,9.5-0.4c0.4-0.1,0.9-0.3,1.2-0.6c0.5-0.7,0.4-1.7-0.1-2.3c-0.8-0.9-1.7-1.5-2.8-1.9
		c-1.1-0.6-2-1.5-2.6-2.6c-0.9-1.3-1.5-2.1-2.7-2.1c-0.7,0-1.2,0.4-2,1.2l-0.3,0.3c-1.5,1.4-1.9,1.5-3.6,1.5L230.1,232.7z"/>
</g>
</svg>
