<?xml version="1.0" encoding="utf-8"?>
<!-- Generator: Adobe Illustrator 21.1.0, SVG Export Plug-In . SVG Version: 6.00 Build 0)  -->
<svg version="1.1" id="Capa_1" xmlns="http://www.w3.org/2000/svg" xmlns:xlink="http://www.w3.org/1999/xlink" x="0px" y="0px"
	 viewBox="0 0 48 48" style="enable-background:new 0 0 48 48;" xml:space="preserve">
<style type="text/css">
	.st0{fill:#C5FF26;}
	.st1{fill:#B50DFF;}
</style>
<g>
	<g>
		<g>
			<g>
				<path class="st0" d="M48,37.4L37.4,48L24,34.6L10.3,48L0,37.4L13.4,24L0,10.6L10.3,0L24,13.4L37.4,0L48,10.6L34.6,24L48,37.4z"
					/>
			</g>
		</g>
	</g>
	<g>
		<path class="st1" d="M44.4,6.1c-0.4-1.2-1.3-2.5-2.5-2.5c-0.6,0-1.9,0-3.2,0.6c-1.3,0.4-2.2,1.2-2.5,2.2c0,0.2-0.4,0.6-1,0.7
			c-0.2-0.2-1-0.6-1.7-1l0,0c-1.2-0.7-1.7-1-2.9-1.6C30,4.3,29.3,4,28.7,4c-1-0.2-1.7-0.2-2.5-0.2c-0.2,0-0.2,0-0.4,0
			c-0.2,0.2-0.2,0.4,0,0.6c0.2,0.2,0.4,0.2,0.6,0.2c0.2,0,0.4,0,0.7,0.2c0.6,0.4,0.4,1.2,1,1.6c0.2,0.2,0.6,0.2,0.7,0.2
			c0.7,0,1.7-0.4,2.3,0c0.4,0.2,0.6,0.6,0.7,0.7c0.4,0.4,1,0.4,1.3,0.4c0.2,0,0.4,0,0.6-0.2c0,0,0.2-0.2,0.2-0.4
			c0.6,0.4,1,0.6,1,0.6h0.2c0.7-0.2,1.3-1,1.3-1l0,0c0.6-1.9,3.6-2.5,5.4-2.5c0.7,0,1.7,1,2.2,2.3c0.4,1.7-0.2,3.1-1.7,4.4l-1.3,1
			l-0.2,0.2c0,0,0,0.2,0.2,0.2c0,0,0.7,0.4,0.7,1.3c0,0.4,0,0.7,0,1.2c0,0.5,0,0.6-0.4,0.7l-0.2,0.2c0,0-0.2,1.7-0.6,2.5
			c0,0,0,0,0,0.2c0,0,0.4,2.6,0.4,4.2l0,0c-0.6-0.2-1.2,0.7-1.6,1.3v-0.2c-0.2-0.2-0.4-0.2-0.6,0c-1,1.3-1.6,2.9-1.7,4.6
			c0,0.2,0.4,0.4,0.6,0.4c0.6-0.2,0.7-0.6,1-1.2c0.4-0.6,0.7-0.4,1.2-0.7c0.2,0,0.2-0.2,0.4-0.4c0.7-0.7,0.7-2.2,1.3-2.9l0,0
			c0.2-0.2,0.2-0.7,0.2-0.7c0-1.3-0.4-4.2-0.4-4.6c0.4-0.7,0.4-2.2,0.6-2.5c0.6-0.4,0.4-0.7,0.4-1.2c0-0.2,0-0.6,0-1
			c0-1-0.4-1.3-0.7-1.7l1.2-0.7C44.5,9.4,44.8,7.4,44.4,6.1z"/>
		<path class="st1" d="M25.3,14c0-0.6,0-1.3-0.2-1.7c-0.4-0.7-1.3-0.6-1.9,0l0,0c-0.2-0.7-0.6-1.6-1.3-1.3c-0.2,0-0.4,0.2-0.6,0.4
			L21,11.8c0,0-0.6-0.2-0.7-0.2c-0.2,0-0.4,0-0.6,0.2c-0.7,0.4-0.2,1.3,0.2,1.7c0.2,0.2,0.4,0.4,0.6,0.7c0.2,0.2,0.2,0.4,0.4,0.6
			c0.2,0.2,0.6,0.2,1,0.4c0.4,0.2,0.6,0.2,0.7,0.7c0,0.2,0,0.4,0,0.7c0,0.4,0.4,0.7,0.7,1.2c0.7,0.6,1.7-0.4,1.7-1.2
			C25.6,15.6,25.3,14.8,25.3,14z"/>
		<path class="st1" d="M27.6,21.1c-0.2,0-0.2,0.2-0.4,0.4v0.2c0,0.2,0,0.2-0.2,0c-0.4-0.2-0.6-0.4-1,0c-0.2,0.4,0,0.7,0.2,1.2
			c0.2,0.5,0.6,0.7,1,0.7c0.4,0,0.6-0.2,0.6-0.6c0.2,0,0.4,0,0.6-0.2c0.2-0.2,0.4-0.7,0.2-1C28.6,21.5,28.2,20.9,27.6,21.1z"/>
		<path class="st1" d="M31.7,17.6c0.2-0.2,0.4-0.4,0.6-0.6c0.6-0.6,0.7,0,1.3,0.2c0.4,0.2,1,0.2,1.2-0.2c0.6-0.7-0.7-2.2-1.6-2.3
			c-1.3-0.4-2.2,1-2.6,2.2v0.2C30.7,17.5,31.1,17.9,31.7,17.6z"/>
		<path class="st1" d="M37.4,30.1c-0.6,0.2-1.2,1.3-1.6,1.7c-0.6,0.7-1,1.7-1.2,2.6c-0.2,0.4,0.2,0.4,0.6,0.2c1-0.7,1.7-1.6,2.5-2.5
			l0,0l0,0C38,31.9,38.6,29.5,37.4,30.1z"/>
		<path class="st1" d="M39.7,19.2c0-0.4-0.2-0.7-0.4-1.2c-0.2-0.2-0.4-1.2-0.6-1.6c-0.2-0.2-0.4-0.2-0.6-0.2c0-0.7,0-1.6-0.6-2.2
			c-0.4-0.4-1.2-0.4-1.3,0.2c-0.2,0.4,0,0.6,0.2,1c0.4,1,0.6,1.6,0.6,2.6c0,1.6,0,2.3,1,3.6c0.2,0.4,0.7,1.2,1.2,0.4
			c0-0.2,0-0.2,0-0.4c0-0.6,0-0.7,0.2-1.3C39.4,19.8,39.7,19.6,39.7,19.2z"/>
		<path class="st1" d="M29.2,37.4L29.2,37.4L29.2,37.4L29.2,37.4L29.2,37.4C29.2,37.4,29,37.4,29.2,37.4c-0.2,0-0.4,0-0.4,0
			c0,0.2,0,0.4,0.2,0.4s0.4,0,0.4-0.2C29.4,37.7,29.4,37.7,29.2,37.4L29.2,37.4z"/>
		<path class="st1" d="M19.2,37.4L19.2,37.4L19.2,37.4L19.2,37.4L19.2,37.4C19.2,37.4,19,37.4,19.2,37.4c-0.2,0-0.4,0-0.4,0
			c0,0.2,0,0.4,0.2,0.4s0.4,0,0.4-0.2C19.4,37.7,19.2,37.7,19.2,37.4L19.2,37.4z"/>
		<path class="st1" d="M29.2,35.3c-0.2,0-0.2,0-0.4,0c0,0,0,0-0.2,0c-0.2,0.2-0.2,0.4,0,0.6c0.2,0.2,0.4,0.2,0.6,0
			C29.4,35.8,29.4,35.5,29.2,35.3z"/>
		<path class="st1" d="M30.5,37.2c-0.2,0-0.2,0-0.4,0c0,0,0,0-0.2,0c-0.2,0.2-0.2,0.4,0,0.6c0.2,0.2,0.4,0.2,0.6,0
			C31,37.7,31,37.2,30.5,37.2z"/>
		<path class="st1" d="M32.3,35.3L32.3,35.3c0-0.2-0.2-0.4-0.4-0.6c-0.2,0-0.4,0.2-0.6,0.4c0,0.2,0,0.6,0.4,0.6
			C32,35.9,32.3,35.8,32.3,35.3L32.3,35.3z"/>
		<path class="st1" d="M32.9,34.9c0,0.2,0,0.6,0.4,0.6c0.2,0,0.6-0.2,0.6-0.4l0,0l0,0c0-0.2-0.2-0.4-0.4-0.4
			C33.2,34.6,33,34.8,32.9,34.9z"/>
		<path class="st1" d="M31.9,36.7c-0.2,0-0.4,0.2-0.6,0.4c0,0.2,0,0.6,0.4,0.6c0.2,0,0.6-0.2,0.6-0.4l0,0l0,0
			C32.3,37.1,32,36.8,31.9,36.7z"/>
		<path class="st1" d="M30.4,33.6L30.4,33.6C30.4,33.4,30.4,33.4,30.4,33.6C30.4,33.4,30.4,33.4,30.4,33.6
			C30.4,33.4,30.4,33.4,30.4,33.6C30.4,33.4,30.4,33.4,30.4,33.6c-0.2,0-0.4,0-0.4,0c-0.2,0.2,0,0.4,0.2,0.4c0.2,0,0.4,0,0.4-0.2
			C30.5,33.8,30.5,33.6,30.4,33.6C30.5,33.6,30.4,33.6,30.4,33.6z"/>
		<path class="st1" d="M27.8,35.3L27.8,35.3L27.8,35.3L27.8,35.3L27.8,35.3C27.8,35.3,27.6,35.3,27.8,35.3c-0.2,0-0.4,0-0.4,0
			c-0.2,0.2,0,0.4,0.2,0.4c0.2,0,0.4,0,0.4-0.2C28.1,35.8,28.1,35.5,27.8,35.3L27.8,35.3z"/>
		<path class="st1" d="M31.7,33.2L31.7,33.2L31.7,33.2L31.7,33.2L31.7,33.2L31.7,33.2c-0.2,0-0.4,0-0.4,0c-0.2,0.2,0,0.4,0.2,0.4
			s0.4,0,0.4-0.2C31.9,33.6,31.9,33.4,31.7,33.2C31.9,33.2,31.9,33.2,31.7,33.2z"/>
		<path class="st1" d="M33,32.9C32.9,32.9,32.9,32.9,33,32.9C32.9,33,32.9,33,33,32.9c-0.2,0-0.2,0-0.2,0l0,0l0,0l0,0l0,0
			c-0.2,0.2-0.2,0.4-0.2,0.6c0.2,0.2,0.4,0.2,0.6,0.2c0.2-0.2,0.2-0.4,0.2-0.6C33.2,33,33,33,33,32.9z"/>
		<path class="st1" d="M30.1,35.3L30.1,35.3L30.1,35.3c0,0.2,0,0.6,0.2,0.6c0.2,0.2,0.6,0,0.6-0.4C31,35.3,30.4,34.9,30.1,35.3z"/>
		<path class="st1" d="M30.1,13.4c-0.2-1-0.6-1.3-1.3-1.7c-0.2,0-0.2-0.2-0.4,0c-0.2,0-0.4,0-0.4,0.4c-0.6,1.2-1,2.5-0.6,3.6
			c0.2,1,1.2,1.3,1.9,0.7C30,15.7,30.4,14.4,30.1,13.4z"/>
		<path class="st1" d="M23.4,21.4c0.2,0.2,0.4,0.4,0.6,0.4h0.2l0,0c0.6,0,1.3-0.7,1.2-1.3c-0.2-0.4-0.6-0.6-1-0.4
			c-0.4,0-0.6,0-0.7-0.4c0-0.2-0.2-0.4-0.4-0.6c-0.6-0.6-1.7,0.2-1.3,1c0.2,0.4,0.6,0.6,1,0.7c0.2,0,0.4,0,0.6,0.2
			C23.3,21.1,23.3,21.1,23.4,21.4z"/>
		<path class="st1" d="M29.2,19.4c0-0.4-0.4-0.6-0.6-0.6c-0.2,0-0.4-0.2-0.4-0.4c0-0.1-0.2-0.4-0.2-0.6c-0.4-0.4-1.2-0.6-1.7,0
			c-0.6,0.6-0.2,1.3,0.2,1.7c0.2,0,0.4,0,0.4,0c0.2-0.2,0.2-0.4,0.4-0.2l0.2,0.4c0.1,0.2,0.1,0.7,0.6,0.7h0.2
			C28.6,20.4,29.2,19.8,29.2,19.4z"/>
		<path class="st1" d="M21.5,23.3c0.4,0.2,0.7,0,1.2-0.2c0.4-0.4,0.4-0.7,0.2-1.2c0-0.2-0.2-0.4-0.4-0.2c-0.2,0-0.2,0-0.4,0
			c-0.2,0-0.2,0-0.4,0l0,0l0,0c-0.4,0-0.7,0.4-0.7,0.7C20.9,22.8,21.1,23,21.5,23.3z"/>
		<path class="st1" d="M36.2,22.7c0.4-0.4,0.4-0.7,0.4-1.2c0-0.2-0.2-0.2-0.4-0.2c-0.2,0-0.6,0-0.7,0c0,0,0,0-0.2,0
			c-0.4,0-0.6,0.2-0.7,0.6c0,0.2,0,0.2,0,0.4c0,0,0,0-0.2,0c-0.4-0.2-0.7,0-1,0.4c-0.2,0.2-0.2,0.6-0.6,0.6c-0.2,0-0.4-0.2-0.7-0.2
			c-1,0-1.2,1.3-0.4,1.7c0.4,0.2,1,0,1.2-0.2c0.6-0.6,0.7-0.6,1.2-0.6c0.2,0,0.4,0,0.7-0.2l0,0l0,0c0.2,0,0.2-0.2,0.2-0.2
			c0.2-0.2,0.2-0.6,0-1c0,0,0,0,0.2,0C35.5,22.8,36.1,22.8,36.2,22.7z"/>
		<path class="st1" d="M35.8,9.8c-0.4,0-0.7,0-1.2,0.2c-0.6,0.4-0.4,0.4-0.7-0.4C33.5,9,32.6,8.2,31.7,8c-1-0.2-1.7,0.7-1.6,1.7
			c0,0.6,0.2,1,0.6,1.6c0.2,0.6,0.4,1.2,0.6,1.6c0.4,1,1.3,0.6,1.9,0.2c0,0,0.2,0,0.2-0.2c0,0.2,0,0.4,0.2,0.6
			c0.2,0.4,0.6,0.6,1,0.6c1,0,1.3-1,1.6-1.7c0.2-0.6,0.4-1.6,0-2.2C36.1,9.8,35.9,9.8,35.8,9.8z"/>
		<path class="st1" d="M17,7.7c-1,0-1.7,0.7-2.2,1.7c-0.2,0.6-0.2,0.6-0.7,0.4c-0.4-0.2-0.6-0.2-1.2-0.2c-0.2,0-0.4,0.2-0.4,0.4
			c-0.4,0.6-0.2,1.6,0,2.2c0.2,0.7,0.6,1.7,1.3,1.7c0.4,0,0.7-0.2,1-0.6c0.2-0.2,0.2-0.4,0.2-0.6h0.2c0.7,0.4,1.6,0.6,1.9-0.2
			c0.2-0.6,0.4-1.2,0.6-1.6c0.2-0.4,0.6-1,0.6-1.6C18.6,8.6,18,7.7,17,7.7z"/>
		<path class="st1" d="M20.5,20.4c0.2-0.6,0.6-1.3-0.2-1.7l0,0l0,0c-0.6,0-0.6,0.7-0.6,1.2c-0.4,0.4-1,0.6-1,1.2
			c-0.2,0.4,0,1.2,0.6,1.2C19.9,22.1,20.4,20.9,20.5,20.4z"/>
		<path class="st1" d="M11.5,14.2c-0.6-0.6-1.6,0.2-1.9,0.7c-0.7,1-0.7,2.3-1.2,3.6c-0.2,0.7-1.2,2.2-0.4,2.9c0,0,0.2,0.2,0.4,0.2
			c0.4,0.2,0.2,0.4,0.4,0.7c0,0.4,0.2,0.6,0.4,0.7c0,0,0.2,0,0.4,0c1.2-0.7,0.7-2.2,0.7-3.2c0-1.7,0.7-3.6,1.2-5.4
			C11.5,14.6,11.5,14.4,11.5,14.2z"/>
		<path class="st1" d="M21.5,17.6c0.7-0.4,0.4-1.3,0-1.6c-0.6-0.4-1.6-0.5-2.3-0.5l0,0l0,0c-1,0.2-0.7,1-0.2,1.3
			C19.6,17.5,20.8,18,21.5,17.6z"/>
		<path class="st1" d="M9.8,26.6c-0.6-1.6-1.6-2.9-2.5-4.1c-0.2-0.2-0.2-0.2-0.4,0c0-1.6,0.4-4.2,0.4-4.4c0,0,0,0,0-0.2
			c-0.4-0.6-0.6-2.3-0.6-2.3s0-0.2-0.2-0.2c-0.4-0.2-0.4-0.4-0.4-0.7c0-0.2,0-0.6,0-1.2c-0.2-1,0.7-1.3,0.7-1.3l0.2-0.2
			c0,0,0-0.2-0.2-0.2l-1.3-0.8C3.8,9.5,3.2,7.9,3.8,6.4C4.2,5.2,5.2,4.2,6,4.1c1.7,0,4.8,0.4,5.4,2.5l0,0c0,0,0.6,0.7,1.3,1H13
			c0,0,0.6-0.4,1.3-0.7c0,0.2,0.2,0.2,0.2,0.2c0.2,0.2,0.4,0.2,0.6,0.2c0.6,0,1,0,1.6-0.4c0.4-0.2,0.6-0.6,1-0.7
			c0.7-0.4,1.6,0.2,2.5,0.2c0.4,0,0.6,0,0.7-0.2c0.6-0.4,0.6-1.2,1-1.6c0.2-0.2,0.4-0.2,0.7-0.2c0.2,0,0.6,0,0.7-0.2
			c0.2-0.2,0.2-0.4,0-0.6c-0.2,0-0.2-0.2-0.4-0.2c-0.7,0-1.7,0-2.6,0c-0.6,0-1.6,0.4-2.2,0.6c-1.6,0.6-2.2,0.7-3.6,1.7l0,0l0,0
			c-0.7,0.4-1.6,0.7-1.7,1c-0.6-0.2-1-0.7-1-0.7c-0.4-1-1.2-1.7-2.5-2.2C7.9,3.1,6.5,3.1,6,3.1c-1.2,0-2.4,1.3-2.5,2.4
			c-0.4,1.3-0.2,3.1,1.9,5l1.2,0.7C6.2,11.5,5.9,12,5.9,13c0,0.4,0,0.7,0,1c0,0.4-0.2,0.7,0.4,1.2c0,0.4,0.2,1.7,0.6,2.5
			c0,0.4-0.4,3.2-0.4,4.6c0,0,0,1.6,0.2,2.3C7,25.1,7.1,25.8,7.4,26c0.2,0.2,0.4,0.2,0.6,0.2c0.7,0.4,0.6,0.6,0.7,1.3
			C9,28,9.1,28.3,9.5,28.3C10.9,29.4,10,27.1,9.8,26.6z"/>
		<path class="st1" d="M34.8,32c0-1.2-0.4-1.9-1-2.9c-1-1.3-1.7-2.3-2.3-3.8c-0.4-1.2-0.7-2.3-1-3.2c0-0.4,0-1,0-1.6
			c0.4,0.6,1,1,1.7,0.7c1,0,1.7-0.7,1.6-1.7c0-0.4-0.2-0.7-0.6-1c0.4,0.2,0.7,0.4,1.3,0.6c0.2,0,0.2,0,0.2-0.2
			c0.2-0.7-0.6-1-1.3-1.2c-1.2-0.2-2.3,0.2-3.2,1l0,0l0,0l0,0l0,0l0,0c0,0,0,0,0,0.2c0,1-0.2,1.7-0.2,2.6c0.2,1,0.6,2.2,1,3.1
			c0.4,1.2,0.7,2.3,1.6,3.2c1,1.2,1.9,2.2,1.9,3.8C34.3,32.3,34.8,32.3,34.8,32z M31.9,20.2c-0.2,0-0.6-0.2-0.6-0.6s0.2-0.6,0.6-0.6
			c0.2,0,0.6,0.2,0.6,0.6S32.3,20.2,31.9,20.2z"/>
		<path class="st1" d="M17.5,16.7c-0.6-1-1.3-2.3-2.6-2.2c-0.7,0.2-2.2,1.6-1.6,2.3c0.2,0.4,0.7,0.4,1.2,0.2
			c0.4-0.2,0.7-0.6,1.3-0.2c0.2,0.2,0.4,0.4,0.7,0.6c0.6,0.2,1.2-0.2,1.2-0.6C17.6,16.9,17.6,16.9,17.5,16.7z"/>
		<path class="st1" d="M13.2,21.8c0-0.4-0.4-0.6-0.7-0.7c0,0,0,0-0.2,0s-0.6,0-0.7,0c-0.2,0-0.4,0.2-0.4,0.2c0,0.4,0,1,0.4,1.2
			c0.4,0.4,0.7,0.4,1.2,0.2c0,0,0,0,0.2,0c0,0.4,0,0.7,0,1c0,0,0,0.2,0.2,0.2l0,0l0,0c0.2,0,0.4,0.2,0.6,0.2c0.4,0,0.6,0,1,0.2
			c0.4,0.4,0.7,0.6,1.2,0.4c0.7-0.4,0.6-1.7-0.4-1.7c-0.2,0-0.4,0.2-0.6,0.2c-0.4,0-0.4-0.2-0.6-0.6c-0.2-0.4-0.6-0.6-1-0.4
			c0,0,0,0-0.2,0C13.2,22.1,13.2,21.8,13.2,21.8z"/>
		<path class="st1" d="M15.4,28.2c0.7-1,1.2-2.2,1.6-3.2c0.4-1,0.7-2.2,1-3.1c0.2-0.7-0.2-1.7-0.2-2.6V19l0,0l0,0l0,0l0,0l0,0
			c-1-0.7-2.2-1.2-3.2-1c-0.7,0-1.3,0.2-1.3,1.2c0,0.2,0.2,0.2,0.2,0.2c0.4-0.2,1-0.4,1.3-0.6c-0.2,0.2-0.4,0.6-0.6,1
			c0,0.7,0.6,1.6,1.6,1.7c0.7,0,1.3-0.2,1.7-0.7c0,0.6,0.2,1.2,0,1.6c-0.2,1.2-0.6,2.3-1,3.2c-0.6,1.6-1.3,2.5-2.3,3.8
			c-0.6,0.7-1.2,1.7-1,2.9c0,0.2,0.4,0.2,0.4,0C13.4,30.5,14.6,29.5,15.4,28.2z M16.1,20.2c-0.2,0-0.6-0.2-0.6-0.6s0.2-0.6,0.6-0.6
			c0.2,0,0.6,0.2,0.6,0.6S16.3,20.2,16.1,20.2z"/>
		<path class="st1" d="M12.2,32c-0.4-0.6-1-1.7-1.6-1.9c-1.3-0.6-0.6,1.7-0.2,2.2l0,0l0,0c0.7,1,1.6,1.7,2.5,2.5
			c0.2,0.2,0.6,0,0.6-0.2C13.1,33.6,12.7,32.9,12.2,32z"/>
		<path class="st1" d="M21.7,7.1c0,0.2-0.2,0.2-0.2,0.4c0,0.1,0,0.2-0.2,0.4C21,8,20.9,8,20.6,8.2c0,0-0.2,0-0.2,0.2
			C20.2,8.2,20,8.6,20,8.8s0,0.4,0,0.4c0.2,0.4,0.7,0.2,1.2,0.2c0.2,0,0.4,0,0.4,0c0.4,0,0.7,0.4,1.2,0.7l0.2,0.2
			c0.4,0.4,1,0.6,1.3,0.4c0.2,0,0.4-0.2,0.6-0.4c0-0.2,0-0.4,0-0.6s0-0.4,0.2-0.4c0,0,0.2-0.2,0.4,0c0.4,0,0.7,0.4,1,0.7
			c0.4,0.4,0.6,0.7,1.2,0.7c0,0,0,0,0.2,0s0.4-0.2,0.6-0.6c0.2-0.4,0-1-0.2-1.2L27,6.7c-0.6-1-1.3-1.6-1.9-1.3c-0.7,0.2-1,1-1.2,1.6
			c-0.2-0.2-0.6-0.4-1-0.4C22.4,6.5,21.8,6.5,21.7,7.1z"/>
		<path class="st1" d="M34,35.8c-0.2,0-0.2,0.2-0.2,0.2s0,1.7-2.5,2.6c-1.7,0.7-4.1,0.4-5.4-0.4c-0.7-0.4-1.3-0.7-1.6-1.3
			c0-0.2,0-0.6,0-0.7s0.2-0.4,0.4-0.6c0.6-1,1.6-1.9,2.2-2.3v-0.2c0,0,0-0.2-0.2-0.2c-0.2,0-0.4-0.2-0.4-0.4c0-0.2,0.2-0.4,0.6-0.7
			c0.2-0.2,0.4-0.2,0.6-0.4l0,0c0.6-0.4,0.4,0.2,0.4,0.4c0,0.2,0.2,0.2,0.2,0c0.4-0.2,0.7-0.6,0.7-1.3c0-0.7-0.6-1-0.7-1
			c-0.6-0.2-1.6,0-3.1,0.6c-0.2,0.2-1,0.4-1,0.4l0,0l-0.4-0.2c-0.2-0.2-0.6-0.4-0.7-0.4c-1.3,0-2.5,0-3.1,0c-0.2,0-0.7,0.2-0.7,1
			c0,1,0.4,1.2,0.7,1.3c0,0,0.4,0.2,0.2,0c0-0.2-0.2-0.7,0.4-0.4l0,0c0.2,0.2,0.4,0.2,0.6,0.4c0.4,0.2,0.6,0.6,0.6,0.7
			c0,0.1-0.4,0.4-0.4,0.4l-0.2,0.2v0.1c0.6,0.4,1.6,1.3,2.2,2.3c0.2,0.2,0.2,0.4,0.4,0.6c0,0.2,0,0.6,0,0.7c-0.2,0.4-0.7,1-1.6,1.3
			c-1.3,0.6-3.6,1-5.4,0.4c-2.5-1-2.5-2.6-2.5-2.6c0-0.2,0-0.2-0.2-0.2l0,0c-0.2,0-0.2,0.2-0.2,0.2s0,2.2,2.6,3.2
			c0.2,0,0.4,0.2,0.6,0.2l0,0c0,0,0.2,1,1.9,3.2c1,1.3,3.2,1.7,5,1.7l0,0c1.7,0,4.1-0.4,5-1.7c1.7-2.2,1.9-3.2,1.9-3.2l0,0
			c0.2,0,0.4-0.2,0.6-0.2c2.6-1.2,2.6-3.1,2.6-3.2C34.2,35.9,34,35.8,34,35.8z M28.6,42.5C27.8,43.4,26,44,24,44s-3.8-0.6-4.6-1.6
			c-1.2-1.6-1.6-2.5-1.7-2.9c0.4,0,0.7,0,1.2,0c0.6,0,1.2,0,1.7-0.2c0.6-0.2,1.2-0.2,1.7-0.2c0.4,0,0.6,0,1,0.2
			c0.2,0,0.2,0.2,0.4,0.2l0.2,0.2c0,0,0.2,0,0.2,0.2l0,0h0.2l0.2-0.2l0.2-0.2c0.2,0,0.2-0.2,0.4-0.2c0.2,0,0.6-0.2,1-0.2
			c0.6,0,1,0,1.6,0.2c0.4,0.2,1.1,0.2,1.7,0.2c0.4,0,0.7,0,1.2-0.2C30.4,39.7,30,40.7,28.6,42.5z"/>
		<path class="st1" d="M19.2,35.5C19.2,35.5,19.2,35.3,19.2,35.5c-0.2,0-0.4-0.2-0.4,0c-0.2,0-0.2,0.4-0.2,0.6
			c0.2,0.2,0.4,0.2,0.6,0C19.4,35.9,19.4,35.5,19.2,35.5z"/>
		<path class="st1" d="M17.6,37.2c-0.2,0-0.2,0-0.4,0c-0.2,0-0.2,0.4-0.2,0.6c0.2,0.2,0.4,0.2,0.6,0C18,37.7,18,37.4,17.6,37.2
			C17.9,37.2,17.9,37.2,17.6,37.2z"/>
		<path class="st1" d="M16.1,35.8c0.2,0,0.4-0.4,0.4-0.6s-0.2-0.4-0.6-0.4c-0.2,0-0.4,0.2-0.4,0.4l0,0l0,0
			C15.7,35.8,16,35.9,16.1,35.8z"/>
		<path class="st1" d="M14.6,34.6c-0.2,0-0.4,0.2-0.4,0.4l0,0l0,0c0,0.2,0.4,0.4,0.6,0.4s0.4-0.4,0.4-0.6
			C15,34.8,14.8,34.6,14.6,34.6z"/>
		<path class="st1" d="M15.7,37.2c0,0.2,0.4,0.4,0.6,0.4c0.2,0,0.4-0.4,0.4-0.6s-0.2-0.4-0.6-0.4C16,36.8,15.7,37.1,15.7,37.2
			L15.7,37.2L15.7,37.2z"/>
		<path class="st1" d="M18,33.6c0,0-0.2-0.2-0.4-0.2l0,0l0,0l0,0l0,0l0,0l0,0c0,0.2,0,0.2,0,0.4S18,34,18,34S18.2,33.8,18,33.6z"/>
		<path class="st1" d="M20.5,35.9c0.2,0,0.2-0.4,0.2-0.4s-0.2-0.2-0.4-0.2l0,0l0,0l0,0l0,0l0,0l0,0c0,0.2,0,0.2,0,0.4
			C20.2,36.1,20.4,36.1,20.5,35.9z"/>
		<path class="st1" d="M16.7,33.2c0,0-0.2-0.2-0.4-0.2l0,0l0,0l0,0l0,0l0,0l0,0c0,0.2,0,0.2,0,0.4c0,0.2,0.4,0.2,0.4,0.2
			S16.9,33.4,16.7,33.2z"/>
		<path class="st1" d="M15.4,33.6c0.2-0.2,0-0.4-0.2-0.6l0,0l0,0l0,0l0,0l0,0l0,0c0,0,0,0-0.2,0s-0.2,0-0.4,0.2
			c-0.2,0.2,0,0.4,0.2,0.6C15,33.8,15.4,33.8,15.4,33.6z"/>
		<path class="st1" d="M17.9,35.3L17.9,35.3L17.9,35.3c-0.2-0.4-1,0-0.7,0.2c0,0.2,0.4,0.4,0.6,0.4C17.9,35.9,18,35.5,17.9,35.3z"/>
		<path class="st1" d="M6.7,6c1.6-0.2,3.5,1.7,4.6,2.6c-2.2,1-3.2,3.2-3.5,5.5c0,0.4,0.6,0.4,0.6,0c0-2.3,1.2-4.4,3.5-5.2
			c0.2,0,0.2-0.2,0.2-0.4c-1.2-1.2-2.3-2.5-3.8-2.9c-1.6-0.6-2.8-0.2-3.5,1C4.6,7,5,7.3,5.2,7c0.4-0.4,0.6-0.7,1-0.7
			C6,6.7,6,7.3,6,7.9c0,0.4,0.6,0.2,0.4-0.2C6.4,7.1,6.5,6.5,6.7,6L6.7,6z"/>
		<path class="st1" d="M42.8,7c0.2,0.2,0.6,0,0.4-0.2c-0.7-1.2-1.9-1.3-3.2-1c-1.6,0.6-2.6,1.9-3.8,2.9c-0.2,0.2,0,0.4,0.2,0.4
			c2.2,1,3.2,3.1,3.5,5.2c0,0.4,0.6,0.4,0.6,0c0-2.3-1.2-4.6-3.5-5.5c1.2-1.2,2.9-2.9,4.6-2.6l0,0c0.2,0.6,0.4,1.2,0.2,1.7
			c0,0.4,0.4,0.4,0.4,0.2c0-0.6,0-1.2-0.2-1.7C42.2,6.4,42.6,6.5,42.8,7z"/>
	</g>
</g>
</svg>
