<?xml version="1.0" encoding="utf-8"?>
<!-- Generator: Adobe Illustrator 21.1.0, SVG Export Plug-In . SVG Version: 6.00 Build 0)  -->
<svg version="1.1" id="Capa_1" xmlns="http://www.w3.org/2000/svg" xmlns:xlink="http://www.w3.org/1999/xlink" x="0px" y="0px"
	 viewBox="0 0 48 44.1" style="enable-background:new 0 0 48 44.1;" xml:space="preserve">
<style type="text/css">
	.st0{fill:#68E817;}
	.st1{fill:#B50DFF;}
</style>
<g>
	<g>
		<path class="st0" d="M2.5,3.2C3,2.4,3.7,2,4.8,2S6.6,2.4,7,3.2c0.4,0.7,0.4,1.4,0.4,1.6S7.4,6,8.1,7c0.8,1.6,2.3,2.5,4.3,2.5
			S16,8.7,16.7,7c0.5-1.1,0.7-2.1,0.7-2.3l0,0c0,0,0-0.7,0.4-1.6C18.3,2.4,19,2,20.1,2s1.8,0.4,2.3,1.2c0.4,0.7,0.4,1.4,0.4,1.6
			s0,1.2,0.7,2.3c0.8,1.6,2.3,2.5,4.3,2.5c1.9,0,3.6-0.8,4.3-2.5c0.5-1.1,0.7-2.1,0.7-2.3l0,0c0,0,0-0.7,0.4-1.6
			C33.6,2.4,34.3,2,35.3,2c1.1,0,1.8,0.4,2.3,1.2C38,3.9,38,4.7,38,4.8S38,6,38.7,7C39.5,8.6,41,9.6,43,9.6c2,0,3.6-0.8,4.3-2.5
			C47.8,6,48,4.8,48,4.8h-2.1c0,0,0,0.7-0.4,1.4C45,7,44.3,7.4,43.2,7.4c-1.1,0-1.9-0.4-2.3-1.2c-0.4-0.7-0.4-1.4-0.4-1.4
			c0-0.1,0-1.2-0.7-2.3C39,1,37.6,0,35.6,0c-2,0-3.3,0.8-4.3,2.5c-0.5,1.1-0.7,2.1-0.7,2.3l0,0c0,0,0,0.7-0.4,1.4
			C29.7,7,29,7.4,27.9,7.4S26,7,25.7,6.2c-0.6-0.7-0.6-1.4-0.6-1.4c0-0.1,0-1.2-0.7-2.3C23.5,1,22.1,0,20.1,0
			c-1.9,0-3.3,0.8-4.3,2.5C15.3,3.6,15,4.7,15,4.8l0,0c0,0,0,0.7-0.4,1.4c-0.5,0.8-1.2,1.2-2.3,1.2S10.5,7,10.1,6.2
			C9.8,5.5,9.8,4.8,9.8,4.8c0-0.1,0-1.2-0.7-2.3C8.4,0.8,6.9,0,4.9,0S1.6,0.8,0.7,2.5C0.1,3.6,0,4.8,0,4.8h2.1
			C1.9,4.8,2.1,3.9,2.5,3.2z"/>
		<path class="st0" d="M45.3,17.7c-0.5,0.8-1.2,1.2-2.3,1.2c-1.1,0-1.9-0.4-2.3-1.2c-0.4-0.7-0.4-1.4-0.4-1.4c0-0.1,0-1.2-0.7-2.3
			c-0.8-1.6-2.3-2.5-4.3-2.5c-1.9,0-3.3,0.8-4.3,2.5c-0.5,1.1-0.7,2.1-0.7,2.3l0,0c0,0,0,0.7-0.4,1.4c-0.5,0.8-1.2,1.2-2.3,1.2
			s-1.9-0.4-2.3-1.2c-0.4-0.7-0.4-1.4-0.4-1.4c0-0.1,0-1.2-0.7-2.3c-0.8-1.6-2.3-2.5-4.3-2.5c-1.9,0-3.3,0.8-4.3,2.5
			C15.3,15,15,16.1,15,16.2l0,0c0,0,0,0.7-0.4,1.4c-0.5,0.8-1.2,1.2-2.3,1.2s-1.9-0.4-2.3-1.2c-0.4-0.7-0.4-1.4-0.4-1.4
			c0-0.1,0-1.2-0.7-2.3c-0.7-1.6-2.1-2.5-4.2-2.5s-3.3,1-4.2,2.5C0.1,15,0,16.2,0,16.2h2.1c0,0,0-0.7,0.4-1.6
			c0.5-0.8,1.2-1.2,2.3-1.2s1.8,0.4,2.3,1.2c0.4,0.7,0.4,1.4,0.4,1.6c0,0.1,0,1.2,0.7,2.3C9,20.1,10.4,21,12.4,21s3.6-0.8,4.3-2.5
			c0.5-1.1,0.7-2.1,0.7-2.3l0,0c0,0,0-0.7,0.4-1.6c0.5-0.8,1.2-1.2,2.3-1.2s1.8,0.4,2.3,1.2c0.4,0.7,0.4,1.4,0.4,1.6
			c0,0.1,0,1.2,0.7,2.3c0.8,1.6,2.3,2.5,4.3,2.5c1.9,0,3.6-0.8,4.3-2.5c0.5-1.1,0.7-2.1,0.7-2.3l0,0c0,0,0-0.7,0.4-1.6
			c0.5-0.8,1.2-1.2,2.3-1.2c1.1,0,1.8,0.4,2.3,1.2c0.4,0.7,0.4,1.4,0.4,1.6c0,0.1,0,1.2,0.7,2.3C39.5,20.1,41,21,43,21
			s3.6-0.8,4.3-2.5c0.5-1.1,0.7-2.3,0.7-2.3h-2.1C45.9,16.1,45.6,17,45.3,17.7z"/>
		<path class="st0" d="M45.3,29.1c-0.5,0.8-1.2,1.2-2.3,1.2c-1.1,0-1.9-0.4-2.3-1.2c-0.4-0.7-0.4-1.4-0.4-1.4c0-0.1,0-1.2-0.7-2.3
			c-0.8-1.6-2.3-2.5-4.3-2.5c-1.9,0-3.3,0.8-4.3,2.5c-0.5,1.1-0.7,2.1-0.7,2.3l0,0c0,0,0,0.7-0.4,1.4c-0.5,0.8-1.2,1.2-2.3,1.2
			s-1.9-0.4-2.3-1.2c-0.4-0.6-0.4-1.3-0.4-1.3c0-0.1,0-1.2-0.7-2.3C23.5,24,22.1,23,20.1,23c-1.9,0-3.3,0.8-4.3,2.5
			c-0.5,1.1-0.7,2.1-0.7,2.3l0,0c0,0,0,0.7-0.4,1.4c-0.5,0.8-1.2,1.2-2.3,1.2s-1.9-0.4-2.3-1.2c-0.4-0.7-0.4-1.4-0.4-1.4
			c0-0.1,0-1.2-0.7-2.3C8.2,24,6.8,23,4.8,23s-3.3,0.8-4.3,2.5c-0.4,1-0.5,2.3-0.5,2.3h2.1c0,0,0-0.7,0.4-1.6
			c0.5-0.8,1.2-1.2,2.3-1.2s1.8,0.4,2.3,1.2c0.4,0.7,0.4,1.4,0.4,1.6s0,1.2,0.7,2.3c0.8,1.6,2.3,2.5,4.3,2.5s3.6-0.8,4.3-2.5
			c0.5-1.1,0.7-2.1,0.7-2.3l0,0c0,0,0-0.7,0.4-1.6c0.5-0.8,1.2-1.2,2.3-1.2s1.8,0.4,2.3,1.2c0.4,0.7,0.4,1.4,0.4,1.6
			c0,0.1,0,1.2,0.7,2.3c0.8,1.6,2.3,2.5,4.3,2.5c1.9,0,3.6-0.8,4.3-2.5c0.5-1.1,0.7-2.1,0.7-2.3l0,0c0,0,0-0.7,0.4-1.6
			c0.5-0.8,1.2-1.2,2.3-1.2c1.1,0,1.8,0.4,2.3,1.2C38,27,38,27.7,38,27.8c0,0.1,0,1.2,0.7,2.3c0.8,1.6,2.3,2.5,4.3,2.5
			s3.6-0.8,4.3-2.5c0.5-1.1,0.7-2.3,0.7-2.3h-2.1C45.9,27.6,45.6,28.5,45.3,29.1z"/>
		<path class="st0" d="M45.3,40.7c-0.5,0.8-1.2,1.2-2.3,1.2c-1.1,0-1.9-0.4-2.3-1.2c-0.4-0.7-0.4-1.4-0.4-1.4c0-0.1,0-1.2-0.7-2.3
			c-0.8-1.6-2.3-2.5-4.3-2.5c-1.9,0-3.3,0.8-4.3,2.5c-0.5,1.1-0.7,2.1-0.7,2.3l0,0c0,0,0,0.7-0.4,1.4c-0.5,0.8-1.2,1.2-2.3,1.2
			s-1.9-0.4-2.3-1.2c-0.4-0.7-0.4-1.4-0.4-1.4c0-0.1,0-1.2-0.7-2.3c-0.8-1.6-2.3-2.5-4.3-2.5c-1.9,0-3.3,0.8-4.3,2.5
			c-0.5,1.1-0.7,2.1-0.7,2.3l0,0c0,0,0,0.7-0.4,1.4c-0.5,0.8-1.2,1.2-2.3,1.2s-1.9-0.4-2.3-1.2c-0.4-0.7-0.4-1.4-0.4-1.4
			c0-0.1,0-1.2-0.7-2.3c-0.8-1.6-2.3-2.5-4.3-2.5S1.4,35.3,0.5,37C0.1,38.1,0,39.3,0,39.3h2.1c0,0,0-0.7,0.4-1.6
			c0.5-0.8,1.2-1.2,2.3-1.2s1.8,0.4,2.3,1.2c0.4,0.7,0.4,1.4,0.4,1.6s0,1.2,0.7,2.3c0.8,1.6,2.3,2.5,4.3,2.5s3.6-0.8,4.3-2.5
			c0.5-1.1,0.7-2.1,0.7-2.3l0,0c0,0,0-0.7,0.4-1.6c0.5-0.8,1.2-1.2,2.3-1.2s1.8,0.4,2.3,1.2c0.4,0.7,0.4,1.4,0.4,1.6s0,1.2,0.7,2.3
			c0.8,1.6,2.3,2.5,4.3,2.5c1.9,0,3.6-0.8,4.3-2.5c0.5-1.1,0.7-2.1,0.7-2.3l0,0c0,0,0-0.7,0.4-1.6c0.5-0.8,1.2-1.2,2.3-1.2
			c1.1,0,1.8,0.4,2.3,1.2c0.4,0.7,0.4,1.4,0.4,1.6s0,1.2,0.7,2.3c0.8,1.6,2.3,2.5,4.3,2.5s3.6-0.8,4.3-2.5c0.5-1.1,0.7-2.3,0.7-2.3
			h-2.1C45.9,39,45.6,40,45.3,40.7z"/>
	</g>
	<g>
		<path class="st1" d="M42.6,5.5c-0.4-1.1-1.2-2.3-2.3-2.3c-0.5,0-1.8,0-3,0.5c-1.2,0.4-1.9,1.1-2.3,1.9c0,0.1-0.4,0.5-0.8,0.7
			c-0.1-0.1-0.8-0.5-1.6-0.8l0,0c-1.2-0.7-1.8-0.8-2.9-1.4c-0.5-0.1-1.2-0.5-1.8-0.5c-0.8-0.1-1.6-0.1-2.3-0.1c-0.1,0-0.1,0-0.4,0
			c-0.1,0.1-0.1,0.4,0,0.5c0.2,0.1,0.4,0.1,0.6,0.1c0.1,0,0.4,0,0.7,0.1c0.5,0.4,0.4,1.1,0.8,1.4c0.1,0.1,0.5,0.1,0.7,0.1
			c0.7,0,1.6-0.4,2.1,0c0.4,0.1,0.5,0.5,0.7,0.7c0.4,0.4,0.8,0.4,1.2,0.4c0.1,0,0.4,0,0.5-0.1c0,0,0.1-0.1,0.1-0.4
			c0.5,0.4,0.8,0.5,0.8,0.5h0.1C34.6,6.7,35.1,6,35.1,6l0,0c0.5-1.8,3.3-2.3,4.9-2.3c0.7,0,1.6,0.8,1.9,2.1c0.4,1.6-0.1,2.9-1.6,4.1
			l-1.2,0.8L39,10.9c0,0,0,0.1,0.1,0.1c0,0,0.7,0.4,0.7,1.2c0,0.4,0,0.7,0,1.1s0,0.5-0.4,0.7l-0.1,0.1c0,0-0.1,1.6-0.5,2.3
			c0,0,0,0,0,0.1c0,0,0.4,2.5,0.4,3.9l0,0c-0.5-0.1-1.1,0.7-1.4,1.2v-0.1c-0.1-0.1-0.4-0.1-0.5,0c-0.8,1.2-1.4,2.6-1.6,4.3
			c0,0.1,0.4,0.4,0.5,0.4c0.5-0.1,0.7-0.5,0.8-1.1c0.4-0.5,0.7-0.4,1.1-0.7c0.1,0,0.1-0.1,0.4-0.4c0.7-0.7,0.7-1.9,1.2-2.6l0,0
			c0.1-0.1,0.1-0.7,0.1-0.7c0-1.2-0.4-3.9-0.4-4.3c0.4-0.7,0.4-1.9,0.5-2.3c0.5-0.4,0.4-0.7,0.4-1.1c0-0.1,0-0.5,0-0.8
			c0-0.8-0.4-1.2-0.7-1.6l1.1-0.7C42.9,8.5,43,6.7,42.6,5.5z"/>
		<path class="st1" d="M25.1,12.8c0-0.5,0-1.2-0.1-1.6c-0.4-0.7-1.2-0.5-1.8,0l0,0C23,10.5,22.7,9.8,22,10c-0.1,0-0.4,0.1-0.5,0.4
			l-0.1,0.4c0,0-0.5-0.1-0.7-0.1c-0.2,0-0.4,0-0.5,0.1c-0.7,0.4-0.1,1.2,0.1,1.6c0.1,0.1,0.4,0.4,0.5,0.7c0.1,0.1,0.1,0.4,0.4,0.5
			c0.1,0.1,0.5,0.1,0.8,0.4c0.4,0.1,0.5,0.1,0.7,0.7c0,0.1,0,0.4,0,0.7c0,0.4,0.4,0.7,0.7,1.1c0.7,0.5,1.6-0.4,1.6-1.1
			C25.3,14.2,25.1,13.5,25.1,12.8z"/>
		<path class="st1" d="M27.2,19.3c-0.1,0-0.1,0.1-0.4,0.4v0.1c0,0.1,0,0.1-0.1,0c-0.4-0.1-0.5-0.4-0.8,0c-0.1,0.4,0,0.7,0.1,1.1
			c0.1,0.4,0.5,0.7,0.8,0.7s0.5-0.1,0.5-0.5c0.1,0,0.4,0,0.5-0.1c0.1-0.1,0.4-0.7,0.1-0.8C28.2,19.7,27.8,19.1,27.2,19.3z"/>
		<path class="st1" d="M30.9,16.1c0.1-0.1,0.4-0.4,0.5-0.5c0.5-0.5,0.7,0,1.2,0.1c0.4,0.1,0.8,0.1,1.1-0.1c0.5-0.7-0.7-1.9-1.4-2.1
			c-1.2-0.4-1.9,0.8-2.5,1.9v0.1C30.1,15.9,30.4,16.2,30.9,16.1z"/>
		<path class="st1" d="M36.3,27.6c-0.5,0.1-1.1,1.2-1.4,1.6c-0.5,0.7-0.8,1.6-1.1,2.5c-0.1,0.4,0.1,0.4,0.5,0.1
			c0.8-0.7,1.6-1.4,2.3-2.3l0,0l0,0C36.8,29.1,37.4,27.1,36.3,27.6z"/>
		<path class="st1" d="M38.3,17.6c0-0.4-0.1-0.7-0.4-1.1c-0.1-0.1-0.4-1.1-0.5-1.4c-0.1-0.1-0.4-0.1-0.5-0.1c0-0.7,0-1.4-0.5-1.9
			c-0.4-0.4-1.1-0.4-1.2,0.1c-0.1,0.4,0,0.5,0.1,0.8c0.4,0.8,0.5,1.4,0.5,2.5c0,1.4,0,2.1,0.8,3.3c0.1,0.4,0.7,1.1,1.1,0.4
			c0-0.1,0-0.1,0-0.4c0-0.5,0-0.7,0.1-1.2C38.1,18,38.3,17.9,38.3,17.6z"/>
		<path class="st1" d="M28.7,34.3L28.7,34.3L28.7,34.3L28.7,34.3L28.7,34.3C28.7,34.3,28.5,34.3,28.7,34.3c-0.1,0-0.4,0-0.4,0
			c0,0.1,0,0.4,0.1,0.4s0.4,0,0.4-0.1C28.8,34.5,28.8,34.5,28.7,34.3L28.7,34.3z"/>
		<path class="st1" d="M19.5,34.3L19.5,34.3L19.5,34.3L19.5,34.3L19.5,34.3C19.5,34.3,19.2,34.3,19.5,34.3c-0.1,0-0.4,0-0.4,0
			c0,0.1,0,0.4,0.1,0.4s0.4,0,0.4-0.1C19.6,34.5,19.5,34.5,19.5,34.3L19.5,34.3z"/>
		<path class="st1" d="M28.7,32.4c-0.1,0-0.1,0-0.4,0c0,0,0,0-0.1,0c-0.1,0.1-0.1,0.4,0,0.5c0.1,0.1,0.4,0.1,0.5,0
			C28.8,32.7,28.8,32.6,28.7,32.4z"/>
		<path class="st1" d="M29.9,34.1c-0.1,0-0.1,0-0.4,0c0,0,0,0-0.1,0c-0.1,0.1-0.1,0.4,0,0.5c0.1,0.1,0.4,0.1,0.5,0
			C30.2,34.5,30.2,34.1,29.9,34.1z"/>
		<path class="st1" d="M31.5,32.4L31.5,32.4c0-0.1-0.1-0.4-0.4-0.5c-0.1,0-0.4,0.1-0.5,0.4c0,0.1,0,0.5,0.4,0.5
			C31.3,33,31.5,32.7,31.5,32.4L31.5,32.4z"/>
		<path class="st1" d="M32,32c0,0.1,0,0.5,0.4,0.5c0.1,0,0.5-0.1,0.5-0.4l0,0l0,0c0-0.1-0.1-0.4-0.4-0.4C32.4,31.6,32.2,31.9,32,32z
			"/>
		<path class="st1" d="M31.2,33.7c-0.1,0-0.4,0.1-0.5,0.4c0,0.1,0,0.5,0.4,0.5c0.1,0,0.5-0.1,0.5-0.4l0,0l0,0
			C31.5,33.9,31.3,33.8,31.2,33.7z"/>
		<path class="st1" d="M29.7,30.8L29.7,30.8C29.7,30.6,29.7,30.6,29.7,30.8C29.7,30.6,29.7,30.6,29.7,30.8
			C29.7,30.6,29.7,30.6,29.7,30.8C29.7,30.6,29.7,30.6,29.7,30.8c-0.1,0-0.4,0-0.4,0c-0.1,0.1,0,0.4,0.1,0.4s0.4,0,0.4-0.1
			C29.9,30.9,29.9,30.8,29.7,30.8C29.9,30.8,29.7,30.8,29.7,30.8z"/>
		<path class="st1" d="M27.5,32.4L27.5,32.4L27.5,32.4L27.5,32.4L27.5,32.4C27.5,32.4,27.2,32.4,27.5,32.4c-0.1,0-0.4,0-0.4,0
			c-0.1,0.1,0,0.4,0.1,0.4s0.4,0,0.4-0.1C27.6,32.7,27.6,32.6,27.5,32.4L27.5,32.4z"/>
		<path class="st1" d="M30.9,30.4L30.9,30.4L30.9,30.4L30.9,30.4L30.9,30.4L30.9,30.4c-0.1,0-0.4,0-0.4,0c-0.1,0.1,0,0.4,0.1,0.4
			c0.1,0,0.4,0,0.4-0.1C31.2,30.8,31.2,30.6,30.9,30.4C31.2,30.4,31.2,30.4,30.9,30.4z"/>
		<path class="st1" d="M32.2,30.1C32,30.1,32,30.1,32.2,30.1C32,30.2,32,30.2,32.2,30.1c-0.1,0-0.1,0-0.1,0l0,0l0,0l0,0l0,0
			C32,30.2,32,30.4,32,30.6c0.1,0.1,0.4,0.1,0.5,0.1c0.1-0.1,0.1-0.4,0.1-0.5C32.4,30.2,32.2,30.2,32.2,30.1z"/>
		<path class="st1" d="M29.5,32.4L29.5,32.4L29.5,32.4c0,0.1,0,0.5,0.1,0.5c0.1,0.1,0.5,0,0.5-0.4C30.2,32.4,29.7,32,29.5,32.4z"/>
		<path class="st1" d="M29.5,12.2c-0.1-0.8-0.5-1.2-1.2-1.6c-0.1,0-0.1-0.1-0.4,0c-0.1,0-0.4,0-0.4,0.4c-0.5,1.1-0.8,2.3-0.5,3.3
			c0.1,0.8,1.1,1.2,1.8,0.7C29.4,14.3,29.7,13.1,29.5,12.2z"/>
		<path class="st1" d="M23.4,19.5c0.1,0.1,0.4,0.4,0.5,0.4H24l0,0c0.5,0,1.2-0.7,1.1-1.2c-0.1-0.4-0.5-0.5-0.8-0.4
			c-0.4,0-0.5,0-0.7-0.4c0-0.1-0.1-0.4-0.4-0.5c-0.5-0.5-1.6,0.1-1.2,0.8c0.1,0.4,0.5,0.5,0.8,0.7c0.1,0,0.4,0,0.5,0.1
			C23.2,19.3,23.2,19.3,23.4,19.5z"/>
		<path class="st1" d="M28.7,17.7c0-0.4-0.4-0.5-0.5-0.5c-0.1,0-0.4-0.1-0.4-0.4s-0.1-0.4-0.1-0.5c-0.4-0.4-1.1-0.5-1.6,0
			s-0.1,1.2,0.1,1.6c0.1,0,0.4,0,0.4,0c0.1-0.1,0.1-0.4,0.4-0.1l0.1,0.4c0.1,0.1,0.1,0.5,0.5,0.5h0.1C28.2,18.6,28.7,18,28.7,17.7z"
			/>
		<path class="st1" d="M21.6,21.3c0.4,0.1,0.7,0,1.1-0.1c0.4-0.4,0.4-0.7,0.1-1.1c0-0.1-0.1-0.4-0.4-0.1c-0.1,0-0.1,0-0.4,0
			c-0.1,0-0.1,0-0.4,0l0,0l0,0c-0.4,0-0.7,0.4-0.7,0.7C21,20.9,21.3,21,21.6,21.3z"/>
		<path class="st1" d="M35.2,20.7c0.4-0.4,0.4-0.7,0.4-1.1c0-0.1-0.1-0.1-0.4-0.1c-0.2,0-0.5,0-0.7,0c0,0,0,0-0.1,0
			c-0.4,0-0.5,0.1-0.7,0.5c0,0.1,0,0.1,0,0.4c0,0,0,0-0.1,0c-0.4-0.1-0.7,0-0.8,0.4c-0.1,0.1-0.1,0.5-0.5,0.5
			c-0.1,0-0.4-0.1-0.7-0.1c-0.8,0-1.1,1.2-0.4,1.6c0.4,0.1,0.8,0,1.1-0.1C32.7,22,33,22,33.3,22c0.1,0,0.4,0,0.7-0.1l0,0l0,0
			c0.1,0,0.1-0.1,0.1-0.1c0.1-0.1,0.1-0.5,0-0.8c0,0,0,0,0.1,0C34.5,20.9,35,20.9,35.2,20.7z"/>
		<path class="st1" d="M34.6,8.8c-0.4,0-0.7,0-1.1,0.1c-0.5,0.4-0.4,0.4-0.7-0.4c-0.4-0.7-1.1-1.4-1.9-1.6c-0.8-0.1-1.6,0.7-1.4,1.6
			c0,0.5,0.1,0.8,0.5,1.4c0.1,0.5,0.4,1.1,0.5,1.4c0.4,0.8,1.2,0.5,1.8,0.1c0,0,0.1,0,0.1-0.1c0,0.1,0,0.4,0.1,0.5
			c0.1,0.4,0.5,0.5,0.8,0.5c0.8,0,1.2-0.8,1.4-1.6c0.1-0.5,0.4-1.4,0-1.9C35,8.8,34.9,8.8,34.6,8.8z"/>
		<path class="st1" d="M17.6,6.9c-0.8,0-1.6,0.7-1.9,1.6C15.5,9,15.5,9,14.9,8.8c-0.4-0.1-0.5-0.1-1.1-0.1c-0.1,0-0.4,0.1-0.4,0.4
			c-0.4,0.5-0.1,1.4,0,1.9c0.1,0.7,0.5,1.6,1.2,1.6c0.4,0,0.7-0.1,0.8-0.5c0.1-0.1,0.1-0.4,0.1-0.5h0.1c0.7,0.4,1.4,0.5,1.8-0.1
			c0.1-0.5,0.4-1.1,0.5-1.4c0.1-0.4,0.5-0.8,0.5-1.4C19,7.8,18.4,6.9,17.6,6.9z"/>
		<path class="st1" d="M20.7,18.6c0.1-0.5,0.5-1.2-0.1-1.6l0,0l0,0c-0.5,0-0.5,0.7-0.5,1.1c-0.5,0.2-1,0.5-1,1
			c-0.1,0.4,0,1.1,0.5,1.1C20.2,20.2,20.5,19.1,20.7,18.6z"/>
		<path class="st1" d="M12.4,12.9c-0.5-0.5-1.4,0.1-1.8,0.7c-0.7,0.8-0.7,2.1-1.1,3.3c-0.1,0.7-1.1,1.9-0.4,2.6c0,0,0.1,0.1,0.4,0.1
			c0.4,0.1,0.1,0.4,0.4,0.7c0,0.4,0.1,0.5,0.4,0.7c0,0,0.1,0,0.4,0c1.1-0.7,0.7-1.9,0.7-3c0-1.6,0.7-3.3,1.1-4.9
			C12.4,13.3,12.4,13.1,12.4,12.9z"/>
		<path class="st1" d="M21.6,16.1c0.7-0.4,0.4-1.2,0-1.4c-0.5-0.4-1.4-0.5-2.1-0.5l0,0l0,0c-0.8,0.1-0.7,0.8-0.1,1.2
			C19.8,15.9,20.9,16.5,21.6,16.1z"/>
		<path class="st1" d="M10.7,24.4c-0.5-1.4-1.4-2.6-2.3-3.7c-0.1-0.1-0.1-0.1-0.4,0c0-1.4,0.4-3.9,0.4-4.1c0,0,0,0,0-0.1
			C8.1,15.8,8,14.2,8,14.2s0-0.1-0.1-0.1c-0.4-0.1-0.4-0.4-0.4-0.7c0-0.1,0-0.5,0-1.1c-0.1-0.8,0.7-1.2,0.7-1.2L8.4,11
			c0,0,0-0.1-0.1-0.1L7,10C5.5,8.8,4.9,7.4,5.5,6c0.4-1.1,1.2-1.9,1.9-2.1c1.6,0,4.4,0.4,4.9,2.3l0,0c0,0,0.5,0.7,1.2,0.8h0.1
			c0,0,0.5-0.4,1.2-0.7c0,0.1,0.1,0.1,0.1,0.1c0.1,0.1,0.4,0.1,0.5,0.1c0.5,0,0.8,0,1.4-0.4c0.4-0.1,0.5-0.5,0.8-0.7
			c0.7-0.4,1.4,0.1,2.3,0.1c0.4,0,0.5,0,0.7-0.1c0.5-0.4,0.5-1.1,0.8-1.4c0.1-0.1,0.4-0.1,0.7-0.1c0.1,0,0.5,0,0.7-0.1
			c0.2-0.1,0.1-0.4,0-0.5c-0.1,0-0.1-0.1-0.4-0.1c-0.7,0-1.6,0-2.5,0c-0.5,0-1.4,0.4-1.9,0.5c-1.4,0.5-1.9,0.7-3.3,1.6l0,0l0,0
			c-0.7,0.4-1.4,0.7-1.6,0.8c-0.5-0.1-0.8-0.7-0.8-0.7c-0.4-0.8-1.1-1.6-2.3-1.9C9,2.9,7.6,2.9,7.2,2.9C6.1,2.9,5,4.1,4.9,5.1
			C4.5,6.3,4.8,8,6.7,9.8l1.1,0.7C7.4,10.6,7,11.2,7,12.1c0,0.4,0,0.7,0,0.8c0,0.4-0.1,0.7,0.4,1.1c0,0.4,0.1,1.6,0.5,2.3
			c0,0.4-0.4,3-0.4,4.3c0,0,0,1.4,0.1,2.1c0.1,0.5,0.4,1.2,0.7,1.4c0.1,0.1,0.4,0.1,0.5,0.1c0.7,0.4,0.5,0.5,0.7,1.2
			c0.1,0.4,0.4,0.7,0.7,0.7C11.8,26.9,11,24.7,10.7,24.4z"/>
		<path class="st1" d="M33.8,29.4c0-1.1-0.4-1.8-0.8-2.6c-0.8-1.2-1.6-2.1-2.1-3.6c-0.4-1.1-0.7-2.1-0.8-3c0-0.4,0-0.8,0-1.4
			c0.4,0.5,0.8,0.8,1.6,0.7c0.8,0,1.6-0.7,1.4-1.6c0-0.4-0.1-0.7-0.5-0.8c0.4,0.1,0.7,0.4,1.2,0.5c0.1,0,0.1,0,0.1-0.1
			c0.1-0.7-0.5-0.8-1.2-1.1c-1.1-0.1-2.1,0.1-3,0.8l0,0l0,0l0,0l0,0l0,0c0,0,0,0,0,0.1c0,0.8-0.1,1.6-0.1,2.5
			c0.1,0.8,0.5,1.9,0.8,2.9c0.4,1.1,0.7,2.1,1.4,3c0.8,1.1,1.8,1.9,1.8,3.6C33.4,29.5,33.8,29.5,33.8,29.4z M31.2,18.4
			c-0.1,0-0.5-0.1-0.5-0.5s0.1-0.5,0.5-0.5c0.1,0,0.5,0.1,0.5,0.5S31.5,18.4,31.2,18.4z"/>
		<path class="st1" d="M17.9,15.2c-0.5-0.8-1.2-2.1-2.5-1.9c-0.7,0.1-1.9,1.4-1.4,2.1c0.1,0.4,0.7,0.4,1.1,0.1s0.7-0.5,1.2-0.1
			c0.1,0.1,0.4,0.4,0.7,0.5c0.5,0.1,1.1-0.1,1.1-0.5C18,15.4,18,15.4,17.9,15.2z"/>
		<path class="st1" d="M14,19.9c0-0.4-0.4-0.5-0.7-0.7c0,0,0,0-0.1,0c-0.1,0-0.5,0-0.7,0s-0.4,0.1-0.4,0.1c0,0.4,0,0.8,0.4,1.1
			c0.4,0.4,0.7,0.4,1.1,0.1c0,0,0,0,0.1,0c0,0.4,0,0.7,0,0.8c0,0,0,0.1,0.1,0.1l0,0l0,0c0.1,0,0.4,0.1,0.5,0.1c0.4,0,0.5,0,0.8,0.1
			c0.4,0.4,0.7,0.5,1.1,0.4c0.7-0.4,0.5-1.6-0.4-1.6c-0.1,0-0.4,0.1-0.5,0.1c-0.4,0-0.4-0.1-0.5-0.5c-0.1-0.4-0.5-0.5-0.8-0.4
			c0,0,0,0-0.1,0C14,20.2,14,19.9,14,19.9z"/>
		<path class="st1" d="M15.9,25.8c0.7-0.8,1.1-1.9,1.4-3c0.4-0.8,0.7-1.9,0.8-2.9c0.1-0.7-0.1-1.6-0.1-2.5v-0.1l0,0l0,0l0,0l0,0l0,0
			c-0.8-0.7-1.9-1.1-3-0.8c-0.7,0-1.2,0.1-1.2,1.1c0,0.1,0.1,0.1,0.1,0.1c0.4-0.1,0.8-0.4,1.2-0.5c-0.1,0.1-0.4,0.5-0.5,0.8
			c0,0.7,0.5,1.4,1.4,1.6c0.7,0,1.2-0.1,1.6-0.7c0,0.5,0.1,1.1,0,1.4c-0.1,1.1-0.5,2.1-0.8,3c-0.5,1.4-1.2,2.3-2.1,3.6
			c-0.5,0.7-1.1,1.6-0.8,2.6c0,0.1,0.4,0.1,0.4,0C14.2,27.9,15.2,27.1,15.9,25.8z M16.6,18.4c-0.1,0-0.5-0.1-0.5-0.5
			s0.1-0.5,0.5-0.5c0.1,0,0.5,0.1,0.5,0.5S16.8,18.4,16.6,18.4z"/>
		<path class="st1" d="M13.1,29.4c-0.4-0.5-0.8-1.6-1.4-1.8c-1.2-0.5-0.5,1.6-0.1,1.9l0,0l0,0c0.7,0.8,1.4,1.6,2.3,2.3
			c0.1,0.1,0.5,0,0.5-0.1C13.9,30.8,13.5,30.1,13.1,29.4z"/>
		<path class="st1" d="M21.7,6.3c0,0.1-0.1,0.1-0.1,0.4c0,0.1,0,0.1-0.1,0.4c-0.1,0.1-0.4,0.1-0.5,0.4c0,0-0.1,0-0.1,0.1
			c-0.1-0.1-0.4,0.1-0.4,0.4c0,0.2,0,0.4,0,0.4c0.1,0.4,0.7,0.1,1.1,0.1c0.1,0,0.4,0,0.4,0c0.4,0,0.7,0.4,1.1,0.7l0.1,0.1
			c0.4,0.4,0.8,0.5,1.2,0.4c0.1,0,0.4-0.1,0.5-0.4c0-0.1,0-0.4,0-0.5c0-0.1,0-0.4,0.1-0.4c0,0,0.1-0.1,0.4,0c0.4,0,0.7,0.4,0.8,0.7
			c0.4,0.4,0.5,0.7,1.1,0.7c0,0,0,0,0.1,0c0.1,0,0.4-0.1,0.5-0.5c0.1-0.4,0-0.8-0.1-1.1l-1.2-2.1c-0.5-0.8-1.2-1.4-1.8-1.2
			C24,5,23.9,5.7,23.6,6.3C23.5,6.2,23.2,6,22.8,6C22.4,5.9,22,5.9,21.7,6.3z"/>
		<path class="st1" d="M33.1,32.7c-0.1,0-0.1,0.1-0.1,0.1s0,1.6-2.3,2.5c-1.6,0.7-3.7,0.4-4.9-0.4c-0.7-0.4-1.2-0.7-1.4-1.2
			c0-0.1,0-0.5,0-0.7c0-0.2,0.1-0.4,0.4-0.5c0.5-0.8,1.4-1.8,1.9-2.1v-0.1c0,0,0-0.1-0.1-0.1s-0.4-0.1-0.4-0.4
			c0-0.1,0.1-0.4,0.5-0.7c0.1-0.1,0.4-0.1,0.5-0.4l0,0c0.5-0.4,0.4,0.1,0.4,0.4c0,0.1,0.1,0.1,0.1,0c0.4-0.1,0.7-0.5,0.7-1.2
			c0-0.7-0.5-0.8-0.7-0.8c-0.5-0.1-1.4,0-2.9,0.5c-0.1,0.1-0.8,0.4-0.8,0.4l0,0l-0.4-0.1c-0.1-0.1-0.5-0.4-0.7-0.4
			c-1.2,0-2.3,0-2.9,0c-0.1,0-0.7,0.1-0.7,0.8c0,0.8,0.4,1.1,0.7,1.2c0,0,0.4,0.1,0.1,0c0-0.1-0.1-0.7,0.4-0.4l0,0
			c0.1,0.1,0.4,0.1,0.5,0.4c0.4,0.1,0.5,0.5,0.5,0.7c0,0.1-0.4,0.4-0.4,0.4l-0.1,0.1v0.1c0.5,0.4,1.4,1.2,1.9,2.1
			c0.1,0.1,0.1,0.4,0.4,0.5c0,0.1,0,0.5,0,0.7c-0.1,0.4-0.7,0.8-1.4,1.2c-1.2,0.5-3.3,0.8-4.9,0.4c-2.3-0.8-2.3-2.5-2.3-2.5
			c0-0.1,0-0.1-0.1-0.1l0,0c-0.1,0-0.1,0.1-0.1,0.1s0,1.9,2.5,3c0.1,0,0.4,0.1,0.5,0.1l0,0c0,0,0.1,0.8,1.8,3c0.8,1.2,3,1.6,4.7,1.6
			l0,0c1.6,0,3.7-0.4,4.7-1.6c1.6-1.9,1.8-3,1.8-3l0,0c0.1,0,0.4-0.1,0.5-0.1c2.5-1.1,2.5-2.9,2.5-3C33.3,33,33.1,32.7,33.1,32.7z
			 M28.2,38.9c-0.7,0.8-2.3,1.4-4.3,1.4c-1.9,0-3.6-0.5-4.3-1.4c-1.1-1.4-1.4-2.3-1.6-2.6c0.4,0,0.7,0,1.1,0c0.5,0,1.1,0,1.6-0.1
			c0.5-0.1,1.1-0.1,1.6-0.1c0.4,0,0.5,0,0.8,0.1c0.1,0,0.1,0.1,0.4,0.1l0.1,0.1c0,0,0.1,0,0.1,0.1l0,0h0.1l0.1-0.1l0.1-0.1
			c0.1,0,0.1-0.1,0.4-0.1c0.1,0,0.5-0.1,0.8-0.1c0.5,0,0.8,0,1.4,0.1c0.6,0.1,1.2,0.1,1.8,0.1c0.4,0,0.7,0,1.1-0.1
			C29.7,36.4,29.4,37.4,28.2,38.9z"/>
		<path class="st1" d="M19.5,32.6C19.5,32.6,19.5,32.4,19.5,32.6c-0.1,0-0.4-0.1-0.4,0C19,32.6,19,33,19,33.1c0.1,0.1,0.4,0.1,0.5,0
			C19.6,33,19.6,32.6,19.5,32.6z"/>
		<path class="st1" d="M18,34.1c-0.1,0-0.1,0-0.4,0c-0.1,0-0.1,0.4-0.1,0.5c0.1,0.1,0.4,0.1,0.5,0C18.4,34.5,18.4,34.3,18,34.1
			C18.3,34.1,18.3,34.1,18,34.1z"/>
		<path class="st1" d="M16.6,32.7c0.1,0,0.4-0.4,0.4-0.5c0-0.1-0.1-0.4-0.5-0.4c-0.1,0-0.4,0.1-0.4,0.4l0,0l0,0
			C16.2,32.7,16.5,33,16.6,32.7z"/>
		<path class="st1" d="M15.2,31.6c-0.1,0-0.4,0.1-0.4,0.4l0,0l0,0c0,0.1,0.4,0.4,0.5,0.4s0.4-0.4,0.4-0.5
			C15.5,31.9,15.4,31.6,15.2,31.6z"/>
		<path class="st1" d="M16.2,34.1c0,0.1,0.4,0.4,0.5,0.4s0.4-0.4,0.4-0.5c0-0.1-0.1-0.4-0.5-0.4C16.5,33.8,16.2,33.9,16.2,34.1
			L16.2,34.1L16.2,34.1z"/>
		<path class="st1" d="M18.4,30.8c0,0-0.1-0.1-0.4-0.1l0,0l0,0l0,0l0,0l0,0l0,0c0,0.1,0,0.1,0,0.4c0,0.1,0.4,0.1,0.4,0.1
			S18.6,30.9,18.4,30.8z"/>
		<path class="st1" d="M20.7,33c0.1,0,0.1-0.4,0.1-0.4s-0.1-0.1-0.4-0.1l0,0l0,0l0,0l0,0l0,0l0,0c0,0.1,0,0.1,0,0.4
			C20.3,33.1,20.5,33.1,20.7,33z"/>
		<path class="st1" d="M17.2,30.4c0,0-0.1-0.1-0.4-0.1l0,0l0,0l0,0l0,0l0,0l0,0c0,0.1,0,0.1,0,0.4c0,0.1,0.4,0.1,0.4,0.1
			S17.3,30.6,17.2,30.4z"/>
		<path class="st1" d="M15.9,30.8c0.1-0.1,0-0.4-0.1-0.5l0,0l0,0l0,0l0,0l0,0l0,0c0,0,0,0-0.1,0s-0.1,0-0.4,0.1
			c-0.1,0.1,0,0.4,0.1,0.5C15.5,30.9,15.9,30.9,15.9,30.8z"/>
		<path class="st1" d="M18.3,32.4L18.3,32.4L18.3,32.4c-0.1-0.4-0.8,0-0.7,0.1c0,0.1,0.4,0.4,0.5,0.4C18.3,33,18.4,32.6,18.3,32.4z"
			/>
		<path class="st1" d="M8,5.4c1.4-0.1,3.2,1.6,4.3,2.5c-1.9,0.8-3,3-3.2,5.1c0,0.4,0.5,0.4,0.5,0c0-2.1,1.1-4.1,3.2-4.8
			c0.1,0,0.1-0.1,0.1-0.4c-1.1-1.1-2.1-2.3-3.6-2.6C7.9,4.8,6.8,5.1,6.1,6.1C6,6.2,6.2,6.6,6.4,6.2c0.4-0.4,0.5-0.7,0.8-0.7
			C7.2,6,7.2,6.6,7.2,7c0,0.4,0.5,0.1,0.4-0.1C7.6,6.3,7.8,5.9,8,5.4L8,5.4z"/>
		<path class="st1" d="M41.2,6.2c0.1,0.1,0.5,0,0.4-0.1c-0.7-1.1-1.8-1.2-3-0.8C37.1,5.7,36.1,7,35,7.9c-0.1,0.1,0,0.4,0.1,0.4
			c1.9,0.8,3,2.9,3.2,4.8c0,0.4,0.5,0.4,0.5,0c0-2.1-1.1-4.3-3.2-5.1c1.1-1.1,2.6-2.6,4.3-2.5l0,0C40,5.9,40.2,6.4,40,6.9
			c0,0.4,0.4,0.4,0.4,0.1c0-0.5,0-1.1-0.1-1.6C40.7,5.6,41.1,5.9,41.2,6.2z"/>
	</g>
</g>
</svg>
