<?xml version="1.0" encoding="utf-8"?>
<!-- Generator: Adobe Illustrator 21.1.0, SVG Export Plug-In . SVG Version: 6.00 Build 0)  -->
<svg version="1.1" id="Capa_1" xmlns="http://www.w3.org/2000/svg" xmlns:xlink="http://www.w3.org/1999/xlink" x="0px" y="0px"
	 viewBox="0 0 48 44.2" style="enable-background:new 0 0 48 44.2;" xml:space="preserve">
<style type="text/css">
	.st0{fill:#C5FF26;}
	.st1{font-family:'MonumentExtended-Regular';}
	.st2{font-size:13.6744px;}
	.st3{font-family:'Montserrat-UltraLight';}
	.st4{font-size:7.7293px;}
	.st5{fill:#68E817;}
	.st6{fill:#B50DFF;}
</style>
<g>
	<g>
		<g>
			<g>
				<g>
					<path class="st0" d="M48,19.5L42.5,25l-7-7l-7.1,7L23,19.5l7-7l-7-7L28.4,0l7.1,7l7-7L48,5.5l-7,7L48,19.5z"/>
				</g>
			</g>
		</g>
		<text transform="matrix(1 0 0 1 -0.2646 36.5596)" class="st1 st2">GEDE</text>
		<g>
			<text transform="matrix(1 0 0 1 12.7617 44.2148)" class="st3 st4">media</text>
		</g>
		<g>
			<path class="st5" d="M1.5,1.9c0.3-0.5,0.7-0.7,1.3-0.7s1,0.2,1.3,0.7c0.2,0.4,0.2,0.8,0.2,0.8c0,0.1,0,0.7,0.4,1.3
				C5.2,5,6,5.5,7.1,5.5S9.1,5,9.6,4.1C9.9,3.5,10,2.8,10,2.7l0,0c0,0,0-0.4,0.2-0.8c0.3-0.5,0.7-0.7,1.3-0.7s1,0.2,1.3,0.7
				C13,2.3,13,2.7,13,2.7c0,0.1,0,0.7,0.4,1.3c0.5,0.9,1.3,1.4,2.4,1.4c1.1,0,1.9-0.5,2.4-1.4c0.3-0.6,0.4-1.2,0.4-1.3l0,0
				c0,0,0-0.4,0.2-0.8c0.3-0.5,0.7-0.7,1.3-0.7c0.6,0,1,0.2,1.3,0.7c0.2,0.4,0.2,0.8,0.2,0.8c0,0.1,0,0.7,0.4,1.3
				c0.5,0.9,1.3,1.4,2.4,1.4c1.1,0,1.9-0.5,2.4-1.4c0.3-0.6,0.4-1.3,0.4-1.3h-1.2c0,0,0,0.4-0.2,0.8c-0.6,0.5-1,0.7-1.6,0.7
				s-1-0.2-1.3-0.7c-0.2-0.4-0.2-0.8-0.2-0.8c0-0.1,0-0.7-0.3-1.3C22.1,0.5,21.3,0,20.1,0c-1.1,0-1.9,0.5-2.4,1.4
				c-0.3,0.6-0.4,1.2-0.4,1.3l0,0c0,0,0,0.4-0.2,0.8c-0.3,0.5-0.7,0.7-1.3,0.7c-0.6,0-1-0.2-1.3-0.7c-0.2-0.4-0.2-0.8-0.2-0.8
				c0-0.1,0-0.7-0.3-1.3C13.4,0.5,12.6,0,11.5,0S9.6,0.5,9.1,1.4C8.7,2,8.6,2.6,8.6,2.7l0,0c0,0,0,0.4-0.2,0.8
				C8.1,4.1,7.7,4.3,7.1,4.3s-1-0.2-1.3-0.7C5.6,3.2,5.6,2.7,5.6,2.7c0-0.1,0-0.7-0.3-1.3C4.8,0.4,3.9,0,2.9,0
				C1.7,0,0.9,0.5,0.4,1.4C0.1,2,0,2.6,0,2.7h1.2C1.2,2.7,1.3,2.3,1.5,1.9z"/>
			<path class="st5" d="M25.7,10.1c-0.3,0.5-0.7,0.7-1.3,0.7c-0.6,0-1-0.2-1.3-0.7c-0.2-0.4-0.2-0.8-0.2-0.8c0-0.1,0-0.7-0.3-1.3
				c-0.5-0.9-1.3-1.4-2.4-1.4c-1.1,0-1.9,0.5-2.4,1.4c-0.3,0.6-0.4,1.2-0.4,1.3l0,0c0,0,0,0.4-0.2,0.8c-0.3,0.5-0.7,0.7-1.3,0.7
				c-0.6,0-1-0.2-1.3-0.7c-0.2-0.4-0.2-0.8-0.2-0.8c0-0.1,0-0.7-0.3-1.3c-0.5-0.9-1.3-1.4-2.4-1.4S9.6,7,9.1,7.9
				C8.7,8.5,8.6,9.2,8.6,9.3l0,0c0,0,0,0.4-0.2,0.8c-0.3,0.5-0.7,0.7-1.3,0.7s-1-0.2-1.3-0.7C5.6,9.7,5.6,9.3,5.6,9.3
				c0-0.1,0-0.7-0.3-1.3c-0.5-1-1.4-1.5-2.4-1.5c-1.1,0-1.9,0.5-2.4,1.4C0.1,8.5,0,9.2,0,9.3h1.2c0,0,0-0.4,0.2-0.8
				c0.3-0.5,0.7-0.7,1.3-0.7s1,0.2,1.3,0.7c0.2,0.4,0.2,0.8,0.2,0.8c0,0.1,0,0.7,0.4,1.3C5.2,11.5,6,12,7.1,12s1.9-0.5,2.4-1.4
				C9.9,10,10,9.4,10,9.3l0,0c0,0,0-0.4,0.2-0.8c0.3-0.5,0.7-0.7,1.3-0.7s1,0.2,1.3,0.7C13,8.8,13,9.3,13,9.3c0,0.1,0,0.7,0.4,1.3
				c0.5,0.9,1.3,1.4,2.4,1.4c1.1,0,1.9-0.5,2.4-1.4c0.3-0.6,0.4-1.2,0.4-1.3l0,0c0,0,0-0.4,0.2-0.8c0.3-0.5,0.7-0.7,1.3-0.7
				c0.6,0,1,0.2,1.3,0.7c0.2,0.4,0.2,0.8,0.2,0.8c0,0.1,0,0.7,0.4,1.3c0.5,0.9,1.3,1.4,2.4,1.4c1.1,0,1.9-0.5,2.4-1.4
				c0.3-0.6,0.4-1.3,0.4-1.3h-1.2C25.9,9.3,25.9,9.7,25.7,10.1z"/>
			<path class="st5" d="M25.7,16.6c-0.3,0.5-0.7,0.7-1.3,0.7s-1-0.2-1.3-0.7c-0.2-0.4-0.2-0.8-0.2-0.8c0-0.1,0-0.7-0.3-1.3
				c-0.5-0.9-1.3-1.4-2.4-1.4c-1.1,0-1.9,0.5-2.4,1.4c-0.3,0.6-0.4,1.2-0.4,1.3l0,0c0,0,0,0.4-0.2,0.8c-0.3,0.5-0.7,0.7-1.3,0.7
				c-0.6,0-1-0.2-1.3-0.7c-0.2-0.4-0.2-0.8-0.2-0.8c0-0.1,0-0.7-0.3-1.3c-0.5-0.9-1.3-1.4-2.4-1.4s-1.9,0.5-2.4,1.4
				c-0.3,0.6-0.4,1.2-0.4,1.3l0,0c0,0,0,0.4-0.2,0.8c-0.3,0.4-0.7,0.7-1.3,0.7s-1-0.2-1.3-0.7c-0.2-0.4-0.2-0.8-0.2-0.8
				c0-0.1,0-0.7-0.3-1.3C4.8,13.5,4,13,2.9,13s-1.9,0.5-2.4,1.4C0.1,15,0,15.7,0,15.7h1.2c0,0,0-0.4,0.2-0.8
				c0.3-0.5,0.7-0.7,1.3-0.7s1,0.2,1.3,0.7c0.2,0.5,0.3,0.9,0.3,0.9c0,0.1,0,0.7,0.4,1.3c0.5,0.9,1.3,1.4,2.4,1.4s1.9-0.5,2.4-1.4
				c0.3-0.6,0.4-1.2,0.4-1.3l0,0c0,0,0-0.4,0.2-0.8c0.3-0.5,0.7-0.7,1.3-0.7s1,0.2,1.3,0.7c0.2,0.4,0.2,0.8,0.2,0.8
				c0,0.1,0,0.7,0.4,1.3c0.5,0.9,1.3,1.4,2.4,1.4s1.9-0.5,2.4-1.4c0.3-0.6,0.4-1.2,0.4-1.3l0,0c0,0,0-0.4,0.2-0.8
				c0.3-0.5,0.7-0.7,1.3-0.7s1,0.2,1.3,0.7c0.2,0.4,0.2,0.8,0.2,0.8c0,0.1,0,0.7,0.4,1.3c0.5,0.9,1.3,1.4,2.4,1.4
				c1.1,0,1.9-0.5,2.4-1.4c0.3-0.6,0.4-1.3,0.4-1.3h-1.2C25.9,15.7,25.9,16.2,25.7,16.6z"/>
			<path class="st5" d="M25.7,23c-0.3,0.5-0.7,0.7-1.3,0.7c-0.6,0-1-0.2-1.3-0.7c-0.2-0.4-0.2-0.8-0.2-0.8c0-0.1,0-0.7-0.3-1.3
				c-0.5-0.9-1.3-1.4-2.4-1.4c-1.1,0-1.9,0.5-2.4,1.4c-0.3,0.6-0.4,1.2-0.4,1.3l0,0c0,0,0,0.4-0.2,0.8c-0.3,0.5-0.7,0.7-1.3,0.7
				c-0.6,0-1-0.2-1.3-0.7c-0.2-0.3-0.2-0.8-0.2-0.8c0-0.1,0-0.7-0.3-1.3c-0.5-0.9-1.3-1.4-2.4-1.4s-1.9,0.5-2.4,1.4
				c-0.3,0.6-0.4,1.2-0.4,1.3l0,0c0,0,0,0.4-0.2,0.8c-0.3,0.5-0.7,0.8-1.3,0.8s-1-0.2-1.3-0.7c-0.2-0.4-0.2-0.8-0.2-0.8
				c0-0.1,0-0.7-0.3-1.3C4.8,20,4,19.5,2.9,19.5S0.9,20,0.4,20.9C0.1,21.6,0,22.2,0,22.2h1.2c0,0,0-0.4,0.2-0.8
				c0.3-0.5,0.7-0.7,1.3-0.7s1,0.2,1.3,0.7c0.2,0.4,0.2,0.8,0.2,0.8c0,0.1,0,0.7,0.4,1.3c0.5,0.9,1.3,1.4,2.4,1.4s1.9-0.5,2.4-1.4
				c0.3-0.6,0.4-1.2,0.4-1.3l0,0c0,0,0-0.4,0.2-0.8c0.3-0.5,0.7-0.7,1.3-0.7s1,0.2,1.3,0.7c0.2,0.4,0.2,0.8,0.2,0.8
				c0,0.1,0,0.7,0.4,1.3c0.5,0.9,1.3,1.4,2.4,1.4c1.1,0,1.9-0.5,2.4-1.4c0.3-0.6,0.4-1.2,0.4-1.3l0,0c0,0,0-0.4,0.2-0.8
				c0.3-0.5,0.7-0.7,1.3-0.7c0.6,0,1,0.2,1.3,0.7c0.2,0.4,0.2,0.8,0.2,0.8c0,0.1,0,0.7,0.4,1.3c0.5,0.9,1.3,1.4,2.4,1.4
				c1.1,0,1.9-0.5,2.4-1.4c0.3-0.6,0.4-1.3,0.4-1.3h-1.2C25.9,22.2,25.9,22.6,25.7,23z"/>
		</g>
		<g>
			<path class="st6" d="M34.8,3.2c-0.2-0.6-0.7-1.3-1.3-1.3c-0.3,0-1,0-1.7,0.3c-0.7,0.2-1.1,0.6-1.3,1.1c0,0.1-0.2,0.3-0.5,0.4
				c-0.1-0.1-0.4-0.3-0.9-0.5l0,0c-0.6-0.3-0.8-0.5-1.5-0.8c-0.3-0.1-0.7-0.3-1-0.3c-0.5-0.1-0.9-0.1-1.3-0.1c-0.1,0-0.1,0-0.2,0
				c-0.1,0.1-0.1,0.2,0,0.3c0.1,0.1,0.2,0.1,0.3,0.1c0.1,0,0.2,0,0.3,0.1c0.3,0.2,0.2,0.6,0.5,0.8c0.1,0.1,0.3,0.1,0.4,0.1
				c0.4,0,0.8-0.2,1.2,0c0.2,0.1,0.3,0.2,0.4,0.4C28.3,4,28.6,4,28.8,4c0.1,0,0.2,0,0.3-0.1c0,0,0.1-0.1,0.1-0.2
				C29.5,3.9,29.7,4,29.7,4h0.1c0.4-0.1,0.7-0.5,0.7-0.5l0,0c0.3-1,1.9-1.3,2.8-1.2c0.4,0,0.9,0.5,1.1,1.1c0.2,0.8-0.1,1.6-0.9,2.3
				l-0.7,0.5c0,0-0.1,0.1,0,0.1c0,0,0,0.1,0.1,0.1c0,0,0.4,0.2,0.4,0.7c0,0.2,0,0.4,0,0.5c0,0.2,0,0.3-0.1,0.4l-0.1,0.1
				c0,0-0.1,0.9-0.2,1.3c0,0,0,0,0,0.1c0,0,0.2,1.4,0.2,2.2l0,0c-0.3-0.1-0.6,0.4-0.8,0.7c0,0,0,0,0-0.1c-0.1-0.1-0.2-0.1-0.3,0
				c-0.5,0.7-0.8,1.5-0.9,2.3c0,0.1,0.2,0.2,0.3,0.2c0.2-0.1,0.4-0.3,0.5-0.5c0.2-0.2,0.4-0.2,0.6-0.3c0.1,0,0.1-0.1,0.2-0.2
				c0.4-0.4,0.4-1,0.7-1.5l0,0c0.1-0.1,0.1-0.4,0.1-0.4c0-0.7-0.2-2.1-0.2-2.4c0.2-0.4,0.2-1.1,0.2-1.3c0.3-0.2,0.2-0.4,0.2-0.6
				c0-0.1,0-0.3,0-0.5c0-0.4-0.2-0.7-0.3-0.9l0.6-0.4C35,4.9,35,3.9,34.8,3.2z"/>
			<path class="st6" d="M24.9,7.3c0-0.3,0-0.7-0.1-0.9c-0.2-0.4-0.7-0.3-1,0l0,0c-0.1-0.4-0.3-0.8-0.7-0.7c-0.1,0-0.2,0.1-0.3,0.2
				l-0.1,0.2c0,0-0.3-0.1-0.4-0.1c-0.1,0-0.2,0-0.3,0.1c-0.4,0.2-0.1,0.7,0.1,0.9c0.1,0.1,0.2,0.2,0.3,0.4c0.1,0.1,0.1,0.2,0.2,0.3
				c0.1,0.1,0.3,0.1,0.5,0.2C23.3,8,23.4,8,23.5,8.3c0,0.1,0,0.2,0,0.4c0,0.2,0.2,0.4,0.3,0.5c0.4,0.3,0.9-0.2,0.9-0.6
				C25,8.1,25,7.6,24.9,7.3z"/>
			<path class="st6" d="M26.2,11c-0.1,0-0.1,0.1-0.2,0.2v0.1c0,0.1,0,0.1-0.1,0c-0.2-0.1-0.3-0.2-0.5,0c-0.1,0.2,0,0.4,0.1,0.6
				c0.1,0.2,0.2,0.4,0.5,0.3c0.2,0,0.3-0.1,0.3-0.3c0.1,0,0.2,0,0.3-0.1s0.2-0.4,0.1-0.5C26.6,11.2,26.4,10.9,26.2,11z"/>
			<path class="st6" d="M28.3,9.2c0.1-0.1,0.2-0.2,0.3-0.3c0.3-0.2,0.4,0,0.7,0.1c0.2,0.1,0.5,0.1,0.6-0.1c0.3-0.4-0.4-1.1-0.8-1.2
				c-0.7-0.2-1.1,0.5-1.4,1v0.1C27.8,9.1,28,9.3,28.3,9.2z"/>
			<path class="st6" d="M31.2,15.7c-0.3,0.1-0.6,0.7-0.8,0.9c-0.3,0.4-0.5,0.9-0.6,1.3c-0.1,0.2,0.1,0.2,0.3,0.1
				c0.5-0.4,0.9-0.8,1.2-1.3l0,0l0,0C31.5,16.6,31.8,15.4,31.2,15.7z"/>
			<path class="st6" d="M32.4,10c0-0.2-0.1-0.4-0.2-0.5c0-0.1-0.2-0.6-0.3-0.7c-0.1-0.1-0.2-0.1-0.3-0.1c0-0.4,0-0.8-0.3-1
				c-0.2-0.2-0.6-0.2-0.7,0.1c-0.1,0.1,0,0.3,0.1,0.5C30.9,8.7,31,9.1,31,9.7c0,0.7,0,1.2,0.5,1.8c0.1,0.2,0.4,0.5,0.6,0.2
				c0-0.1,0-0.1,0-0.2c0-0.3,0-0.4,0.1-0.7C32.2,10.4,32.4,10.2,32.4,10z"/>
			<path class="st6" d="M27,19.5L27,19.5L27,19.5C27,19.4,27,19.4,27,19.5C27,19.4,27,19.4,27,19.5C27,19.4,27,19.4,27,19.5
				c-0.1,0-0.2,0-0.2,0c0,0.1,0,0.2,0.1,0.2s0.1,0,0.2-0.1C27.1,19.6,27.1,19.5,27,19.5L27,19.5z"/>
			<path class="st6" d="M21.8,19.5L21.8,19.5L21.8,19.5C21.8,19.4,21.8,19.4,21.8,19.5C21.8,19.4,21.8,19.4,21.8,19.5
				C21.8,19.4,21.7,19.4,21.8,19.5c-0.1,0-0.2,0-0.2,0c0,0.1,0,0.2,0.1,0.2c0.1,0,0.1,0,0.2-0.1C21.9,19.6,21.8,19.5,21.8,19.5
				L21.8,19.5z"/>
			<path class="st6" d="M27,18.4c-0.1,0-0.1,0-0.2,0c0,0,0,0-0.1,0c-0.1,0.1-0.1,0.2,0,0.3c0.1,0.1,0.2,0.1,0.3,0
				C27.1,18.6,27.1,18.4,27,18.4z"/>
			<path class="st6" d="M27.7,19.3c-0.1,0-0.1,0-0.2,0c0,0,0,0-0.1,0c-0.1,0.1-0.1,0.2,0,0.3c0.1,0.1,0.2,0.1,0.3,0
				C27.9,19.5,27.8,19.4,27.7,19.3z"/>
			<path class="st6" d="M28.6,18.4L28.6,18.4c0-0.1-0.1-0.2-0.2-0.2c-0.1,0-0.2,0.1-0.3,0.2c0,0.1,0,0.3,0.2,0.3
				C28.5,18.6,28.6,18.5,28.6,18.4L28.6,18.4z"/>
			<path class="st6" d="M28.9,18.2c0,0.1,0,0.3,0.2,0.3c0.1,0,0.3-0.1,0.3-0.2l0,0l0,0c0-0.1-0.1-0.2-0.2-0.2
				C29,18,28.9,18.1,28.9,18.2z"/>
			<path class="st6" d="M28.4,19.1c-0.1,0-0.2,0.1-0.3,0.2c0,0.1,0,0.3,0.2,0.3c0.1,0,0.3-0.1,0.3-0.2l0,0l0,0
				C28.6,19.2,28.5,19.1,28.4,19.1z"/>
			<path class="st6" d="M27.6,17.4L27.6,17.4L27.6,17.4L27.6,17.4L27.6,17.4L27.6,17.4c-0.1,0-0.2,0-0.2,0c-0.1,0.1,0,0.2,0.1,0.2
				c0.1,0,0.2,0,0.2-0.1C27.7,17.6,27.7,17.5,27.6,17.4C27.7,17.5,27.6,17.4,27.6,17.4z"/>
			<path class="st6" d="M26.2,18.4L26.2,18.4L26.2,18.4L26.2,18.4L26.2,18.4L26.2,18.4c-0.1,0-0.2,0-0.2,0c-0.1,0.1,0,0.2,0.1,0.2
				c0.1,0,0.2,0,0.2-0.1C26.3,18.5,26.3,18.5,26.2,18.4L26.2,18.4z"/>
			<path class="st6" d="M28.3,17.3L28.3,17.3L28.3,17.3L28.3,17.3L28.3,17.3L28.3,17.3c-0.1,0-0.2,0-0.2,0c-0.1,0.1,0,0.2,0.1,0.2
				s0.2,0,0.2-0.1C28.4,17.4,28.4,17.4,28.3,17.3L28.3,17.3z"/>
			<path class="st6" d="M28.9,17.1L28.9,17.1C28.8,17.1,28.8,17.1,28.9,17.1c-0.1,0-0.1,0-0.1,0l0,0l0,0l0,0l0,0
				c-0.1,0.1-0.1,0.2-0.1,0.3c0.1,0.1,0.2,0.1,0.3,0.1c0.1-0.1,0.1-0.2,0.1-0.3C29,17.2,29,17.1,28.9,17.1z"/>
			<path class="st6" d="M27.5,18.4L27.5,18.4L27.5,18.4c0,0.1,0,0.3,0.1,0.3c0.1,0.1,0.3,0,0.3-0.1C27.9,18.3,27.6,18.2,27.5,18.4z"
				/>
			<path class="st6" d="M27.5,7c-0.1-0.5-0.3-0.7-0.6-0.9c-0.1,0-0.1,0-0.2,0c-0.1,0-0.2,0-0.2,0.2c-0.3,0.6-0.5,1.3-0.3,1.9
				c0.1,0.5,0.6,0.7,1,0.4C27.4,8.1,27.6,7.5,27.5,7z"/>
			<path class="st6" d="M23.9,11.1c0.1,0.1,0.2,0.2,0.3,0.2h0.1l0,0c0.3,0,0.7-0.4,0.6-0.7c-0.1-0.2-0.3-0.2-0.5-0.2s-0.3,0-0.4-0.2
				c0-0.1-0.1-0.2-0.2-0.3c-0.3-0.3-0.9,0.1-0.7,0.5c0.1,0.2,0.3,0.3,0.5,0.3c0.1,0,0.2,0,0.3,0.1C23.9,10.9,23.9,11,23.9,11.1z"/>
			<path class="st6" d="M27,10.1c0-0.2-0.2-0.3-0.3-0.3c-0.2-0.1-0.2-0.1-0.3-0.2c0-0.1-0.1-0.2-0.1-0.3c-0.2-0.2-0.6-0.3-0.9,0
				s-0.1,0.7,0.1,0.9c0.1,0,0.2,0,0.2,0c0.1-0.1,0.1-0.2,0.2-0.1l0.1,0.2c0.1,0.1,0.1,0.3,0.3,0.3h0.1C26.6,10.6,27,10.3,27,10.1z"
				/>
			<path class="st6" d="M23,12.1c0.2,0.1,0.4,0,0.6-0.1c0.2-0.2,0.2-0.4,0.1-0.6c0-0.1-0.1-0.2-0.2-0.1c-0.1,0-0.1,0-0.2,0
				c-0.1,0-0.1,0-0.2,0l0,0l0,0c-0.2,0-0.3,0.2-0.4,0.4C22.7,11.8,22.8,12,23,12.1z"/>
			<path class="st6" d="M30.7,11.7c0.2-0.2,0.2-0.4,0.2-0.6c0-0.1-0.1-0.1-0.2-0.1s-0.3,0-0.4,0c0,0,0,0-0.1,0
				c-0.2,0-0.3,0.1-0.4,0.3c0,0.1,0,0.1,0,0.2c0,0,0,0-0.1,0c-0.2-0.1-0.4,0-0.5,0.2c-0.1,0.1-0.1,0.3-0.3,0.3
				c-0.1,0-0.2-0.1-0.4-0.1c-0.5,0-0.6,0.7-0.2,0.9c0.2,0.1,0.4,0,0.6-0.1c0.1-0.2,0.2-0.2,0.4-0.2c0.1,0,0.2,0,0.3-0.1l0,0l0,0
				c0.1,0,0.1-0.1,0.1-0.1c0.1-0.1,0.1-0.3,0-0.5c0,0,0,0,0.1,0C30.3,11.9,30.5,11.9,30.7,11.7z"/>
			<path class="st6" d="M30.3,5.1c-0.2,0-0.4,0-0.5,0.1c-0.3,0.2-0.2,0.2-0.4-0.2c-0.2-0.4-0.6-0.8-1-0.8c-0.5-0.1-0.8,0.4-0.8,0.9
				c0,0.3,0.1,0.5,0.3,0.8c0.1,0.3,0.2,0.5,0.3,0.8c0.2,0.5,0.7,0.3,1,0.1c0,0,0.1,0,0.1-0.1c0,0.1,0,0.2,0.1,0.3
				c0.1,0.2,0.3,0.3,0.5,0.3c0.5,0,0.7-0.5,0.8-0.9c0.1-0.3,0.2-0.8,0-1.1C30.5,5.1,30.4,5.1,30.3,5.1z"/>
			<path class="st6" d="M20.6,4c-0.5,0-0.9,0.4-1.1,0.9c-0.1,0.3-0.1,0.3-0.4,0.2C18.9,5,18.8,5,18.6,5c-0.1,0-0.2,0.1-0.2,0.1
				c-0.2,0.3-0.1,0.8,0,1.1c0.1,0.4,0.3,0.9,0.7,0.9c0.2,0,0.4-0.1,0.5-0.2c0.1-0.1,0.1-0.2,0.1-0.3h0.1c0.4,0.2,0.8,0.3,1-0.1
				C21,6.2,21.1,6,21.2,5.7c0.1-0.2,0.3-0.5,0.3-0.8C21.5,4.5,21.2,4,20.6,4z"/>
			<path class="st6" d="M22.5,10.6c0.1-0.3,0.3-0.7-0.1-0.9l0,0l0,0c-0.3,0-0.3,0.4-0.3,0.6c-0.2,0.2-0.5,0.3-0.5,0.6
				c-0.1,0.2,0,0.6,0.3,0.6C22.2,11.5,22.4,10.9,22.5,10.6z"/>
			<path class="st6" d="M17.7,7.4c-0.3-0.2-0.8,0.1-1,0.4c-0.4,0.5-0.4,1.2-0.6,1.9c-0.1,0.4-0.6,1-0.1,1.4c0,0,0.1,0.1,0.2,0.1
				c0.2,0.1,0.1,0.2,0.2,0.4c0,0.2,0.1,0.3,0.2,0.4c0,0,0.1,0,0.2,0c0.6-0.4,0.4-1,0.4-1.6c0-0.9,0.3-1.9,0.6-2.7
				C17.8,7.5,17.8,7.4,17.7,7.4z"/>
			<path class="st6" d="M23,9.2c0.3-0.2,0.2-0.6,0-0.8C22.7,8.1,22.2,8,21.8,8l0,0l0,0c-0.5,0.1-0.4,0.5-0.1,0.7
				C22,9.1,22.6,9.4,23,9.2z"/>
			<path class="st6" d="M16.9,13.8c-0.3-0.8-0.7-1.5-1.3-2.1c-0.1-0.1-0.1-0.1-0.2,0c0-0.8,0.2-2.2,0.2-2.2s0,0,0-0.1
				C15.4,8.9,15.4,8,15.4,8s0-0.1-0.1-0.1c-0.2-0.1-0.2-0.2-0.1-0.4c0-0.1,0-0.3,0-0.5c-0.1-0.5,0.4-0.7,0.4-0.7l0.1-0.1V6.1
				l-0.8-0.5c-0.8-0.7-1.1-1.4-0.9-2.3c0.2-0.6,0.7-1.1,1.1-1.1c0.9,0,2.4,0.2,2.8,1.2l0,0c0,0,0.3,0.4,0.7,0.5h0.1
				c0,0,0.3-0.2,0.7-0.4c0,0.1,0.1,0.1,0.1,0.1c0.1,0.1,0.2,0.1,0.3,0.1c0.3,0,0.5,0,0.8-0.2c0.2-0.1,0.3-0.3,0.5-0.3
				c0.4-0.2,0.8,0.1,1.3,0.1c0.2,0,0.3,0,0.4-0.1c0.3-0.2,0.2-0.6,0.5-0.8c0.1-0.1,0.2-0.1,0.4-0.1c0.1,0,0.3,0,0.4-0.1
				c0.1-0.1,0.1-0.2,0-0.3c-0.1,0-0.1-0.1-0.2-0.1c-0.4,0-0.9,0-1.4,0c-0.3,0-0.8,0.2-1.1,0.3c-0.8,0.3-1,0.4-1.9,0.9l0,0l0,0
				c-0.4,0.2-0.8,0.4-0.9,0.5c-0.3,0.1-0.5-0.1-0.6-0.2c-0.2-0.5-0.6-0.9-1.3-1.1C16,1.9,15.3,1.8,15,1.8c-0.6,0-1.1,0.7-1.3,1.3
				s-0.1,1.6,1,2.5l0.6,0.5c-0.2,0.1-0.4,0.4-0.3,0.9c0,0.2,0,0.4,0,0.5c0,0.2-0.1,0.4,0.2,0.6c0,0.2,0.1,0.9,0.2,1.3
				c0,0.2-0.2,1.7-0.2,2.4c0,0,0,0.8,0.1,1.2c0.1,0.3,0.2,0.6,0.4,0.8c0.1,0.1,0.2,0.1,0.3,0.1c0.4,0.2,0.3,0.3,0.4,0.7
				c0.1,0.2,0.2,0.4,0.4,0.4C17.5,15.3,17,14,16.9,13.8z"/>
			<path class="st6" d="M29.9,16.7c0-0.6-0.2-1-0.5-1.5c-0.5-0.6-0.9-1.2-1.1-1.9c-0.2-0.5-0.4-1.1-0.5-1.7c0-0.2,0-0.5,0-0.7
				c0.2,0.3,0.5,0.4,0.9,0.4c0.5,0,0.9-0.4,0.8-0.8c0-0.2-0.1-0.4-0.3-0.5c0.2,0.1,0.4,0.2,0.7,0.3c0.1,0,0.1,0,0.1-0.1
				c0.1-0.4-0.2-0.5-0.7-0.6c-0.6-0.1-1.2,0.1-1.7,0.5l0,0l0,0l0,0l0,0l0,0c0,0,0,0,0,0.1c0,0.5-0.1,0.9-0.1,1.4
				c0.1,0.5,0.3,1.1,0.5,1.5c0.2,0.6,0.4,1.1,0.8,1.6c0.5,0.6,1,1.1,0.9,1.9C29.7,16.8,29.9,16.8,29.9,16.7z M28.4,10.5
				c-0.1,0-0.3-0.1-0.3-0.3c0-0.2,0.1-0.3,0.3-0.3c0.1,0,0.3,0.1,0.3,0.3C28.7,10.4,28.5,10.5,28.4,10.5z"/>
			<path class="st6" d="M20.8,8.7c-0.3-0.5-0.7-1.2-1.4-1c-0.4,0.1-1,0.8-0.8,1.2c0.1,0.2,0.4,0.2,0.6,0.1c0.2-0.1,0.4-0.2,0.7-0.1
				c0.1,0.1,0.2,0.2,0.4,0.3C20.6,9.4,21,9.2,21,8.9S21,8.7,20.8,8.7z"/>
			<path class="st6" d="M18.7,11.4c0-0.2-0.2-0.3-0.4-0.4c0,0,0,0-0.1,0c-0.1,0-0.3,0-0.4,0s-0.2,0.1-0.2,0.1c0,0.2,0,0.4,0.2,0.6
				c0.1,0.2,0.4,0.2,0.6,0.1c0,0,0,0,0.1,0c0,0.2,0,0.4,0,0.5c0,0,0,0.1,0.1,0.1l0,0l0,0c0.1,0,0.2,0.1,0.3,0.1c0.2,0,0.3,0,0.5,0.1
				c0.2,0.2,0.4,0.3,0.6,0.2c0.4-0.2,0.3-0.9-0.2-0.9c-0.1,0-0.2,0.1-0.3,0.1c-0.2,0-0.2-0.1-0.3-0.3s-0.3-0.3-0.5-0.2
				c0,0,0,0-0.1,0C18.7,11.5,18.7,11.4,18.7,11.4z"/>
			<path class="st6" d="M19.8,14.7c0.4-0.5,0.6-1,0.8-1.6c0.2-0.5,0.4-1,0.5-1.5c0.1-0.4-0.1-0.9-0.1-1.4v-0.1l0,0l0,0l0,0l0,0l0,0
				c-0.5-0.4-1-0.6-1.7-0.5c-0.4,0-0.7,0.1-0.7,0.6c0,0.1,0.1,0.1,0.1,0.1c0.2-0.1,0.4-0.2,0.7-0.3c-0.1,0.1-0.2,0.3-0.3,0.5
				c0,0.4,0.3,0.8,0.8,0.8c0.4,0,0.7-0.1,0.9-0.4c0,0.3,0.1,0.6,0,0.7c-0.1,0.6-0.3,1.2-0.5,1.7c-0.3,0.8-0.7,1.3-1.1,1.9
				c-0.3,0.4-0.6,0.9-0.5,1.5c0,0.1,0.2,0.1,0.2,0C18.8,15.9,19.3,15.4,19.8,14.7z M20.1,10.5c-0.1,0-0.3-0.1-0.3-0.3
				c0-0.2,0.1-0.3,0.3-0.3c0.1,0,0.3,0.1,0.3,0.3C20.4,10.4,20.3,10.5,20.1,10.5z"/>
			<path class="st6" d="M18.1,16.7c-0.2-0.3-0.5-0.9-0.8-1c-0.6-0.2-0.3,0.9-0.1,1.1l0,0l0,0c0.4,0.5,0.8,0.9,1.2,1.3
				c0.1,0.1,0.3,0,0.3-0.1C18.6,17.5,18.4,17.1,18.1,16.7z"/>
			<path class="st6" d="M23.1,3.7c0,0.1-0.1,0.1-0.1,0.2C23,4,23,4,22.9,4.1c-0.1,0.1-0.2,0.1-0.3,0.2c0,0-0.1,0-0.1,0.1
				c-0.1-0.1-0.2,0.1-0.3,0.2c0,0.1,0,0.2,0,0.2c0.1,0.2,0.3,0.1,0.5,0.1c0.1,0,0.2,0,0.2,0c0.2,0,0.4,0.2,0.6,0.4l0.1,0.1
				c0.4,0.1,0.7,0.2,0.9,0.2c0.1,0,0.2-0.1,0.3-0.2c0-0.1,0-0.2,0-0.3c0-0.1,0-0.2,0.1-0.2c0,0,0.1-0.1,0.2,0c0.2,0,0.4,0.2,0.5,0.4
				c0.1,0.1,0.3,0.3,0.5,0.3c0,0,0,0,0.1,0s0.2-0.1,0.3-0.3c0.1-0.2,0-0.5-0.1-0.6l-0.7-1.1c-0.3-0.5-0.7-0.8-1-0.7
				c-0.4,0.1-0.5,0.5-0.6,0.8c-0.1-0.1-0.3-0.2-0.5-0.2C23.5,3.4,23.2,3.5,23.1,3.7z"/>
			<path class="st6" d="M29.4,18.6c-0.1,0-0.1,0.1-0.1,0.1s0,0.9-1.3,1.4c-0.9,0.4-2.1,0.2-2.8-0.2c-0.4-0.2-0.7-0.4-0.8-0.7
				c0-0.1,0-0.2,0-0.4c0-0.1,0.1-0.2,0.1-0.3c0.3-0.5,0.8-0.9,1.1-1.1v-0.1c0,0,0-0.1-0.1-0.1c-0.1,0-0.2-0.1-0.2-0.2
				s0.1-0.2,0.3-0.4c0.1-0.1,0.2-0.1,0.3-0.2l0,0c0.3-0.2,0.2,0.1,0.2,0.2c0,0.1,0.1,0.1,0.1,0c0.2-0.1,0.4-0.3,0.4-0.7
				c0-0.4-0.3-0.5-0.4-0.5c-0.3-0.1-0.8,0-1.6,0.3c-0.1,0.1-0.5,0.2-0.5,0.2l0,0l-0.2-0.1c-0.1-0.1-0.3-0.1-0.4-0.2
				c-0.8-0.3-1.3-0.4-1.6-0.3c-0.1,0-0.4,0.1-0.4,0.5s0.2,0.6,0.4,0.7c0,0,0.2,0.1,0.1,0c0-0.1-0.1-0.4,0.2-0.2l0,0
				c0.1,0,0.2,0.1,0.3,0.2c0.2,0.1,0.3,0.3,0.3,0.4c0,0.1-0.2,0.2-0.2,0.2l-0.1,0.1v0.1c0.3,0.2,0.8,0.7,1.1,1.1
				c0.1,0.1,0.1,0.2,0.2,0.3c0,0.1,0,0.3,0,0.4c-0.1,0.2-0.4,0.5-0.8,0.7C22.2,20.1,21,20.3,20,20c-1.2-0.5-1.3-1.4-1.3-1.4
				c0-0.1,0-0.1-0.1-0.1l0,0c-0.1,0-0.1,0-0.1,0.1c0,0,0,1.1,1.4,1.6c0.1,0,0.2,0.1,0.3,0.1l0,0c0,0,0.1,0.5,0.9,1.7
				c0.5,0.6,1.6,0.9,2.6,0.9l0,0c0.9,0,2.1-0.2,2.6-0.9c0.9-1.1,0.9-1.6,0.9-1.7l0,0c0.1,0,0.2-0.1,0.3-0.1c1.9-0.4,1.8-1.4,1.8-1.5
				C29.5,18.6,29.5,18.6,29.4,18.6z M26.6,22.1c-0.4,0.5-1.3,0.8-2.4,0.8c-1.1,0-2-0.3-2.4-0.8c-0.6-0.8-0.8-1.3-0.9-1.5
				c0.2,0,0.4,0,0.6,0c0.3,0,0.6,0,0.9-0.1s0.6-0.1,0.8-0.1s0.3,0,0.4,0.1c0.1,0,0.1,0,0.2,0.1l0.1,0.1c0,0,0.1,0,0.1,0.1l0,0h0.1
				l0.1-0.1l0.1-0.1c0.1,0,0.1-0.1,0.2-0.1c0.1,0,0.3-0.1,0.4-0.1c0.2,0,0.5,0,0.8,0.1s0.6,0.1,1,0.1c0.2,0,0.4,0,0.6-0.1
				C27.6,20.7,27.4,21.2,26.6,22.1z"/>
			<path class="st6" d="M21.8,18.4L21.8,18.4c-0.1,0-0.2-0.1-0.2,0c-0.1,0-0.1,0.2-0.1,0.3c0.1,0.1,0.2,0.1,0.3,0
				C21.9,18.6,21.9,18.5,21.8,18.4z"/>
			<path class="st6" d="M21,19.3c-0.1,0-0.1,0-0.2,0c-0.1,0-0.1,0.2-0.1,0.3c0.1,0.1,0.2,0.1,0.3,0C21.2,19.6,21.2,19.4,21,19.3
				C21.1,19.4,21.1,19.3,21,19.3z"/>
			<path class="st6" d="M20.2,18.6c0.1,0,0.2-0.2,0.2-0.3c0-0.1-0.1-0.2-0.3-0.2c-0.1,0-0.2,0.1-0.2,0.2l0,0l0,0
				C19.9,18.5,20,18.6,20.2,18.6z"/>
			<path class="st6" d="M19.3,18c-0.1,0-0.2,0.1-0.2,0.2l0,0l0,0c0,0.1,0.2,0.2,0.3,0.2s0.2-0.2,0.2-0.3C19.6,18.1,19.5,18,19.3,18z
				"/>
			<path class="st6" d="M19.9,19.3c0,0.1,0.2,0.2,0.3,0.2c0.1,0,0.2-0.2,0.2-0.3c0-0.1-0.1-0.2-0.3-0.2C20,19.1,19.9,19.2,19.9,19.3
				L19.9,19.3L19.9,19.3z"/>
			<path class="st6" d="M21.2,17.5c0,0-0.1-0.1-0.2-0.1l0,0l0,0l0,0l0,0l0,0l0,0c0,0.1,0,0.1,0,0.2s0.2,0.1,0.2,0.1
				C21.2,17.7,21.3,17.5,21.2,17.5z"/>
			<path class="st6" d="M22.5,18.7c0.1,0,0.1-0.2,0.1-0.2s-0.1-0.1-0.2-0.1l0,0l0,0l0,0l0,0l0,0l0,0c0,0.1,0,0.1,0,0.2
				C22.3,18.7,22.4,18.7,22.5,18.7z"/>
			<path class="st6" d="M20.4,17.3c0,0-0.1-0.1-0.2-0.1l0,0l0,0l0,0l0,0l0,0l0,0c0,0.1,0,0.1,0,0.2c0,0.1,0.2,0.1,0.2,0.1
				S20.5,17.4,20.4,17.3z"/>
			<path class="st6" d="M19.8,17.4c0.1-0.1,0-0.2-0.1-0.3l0,0l0,0l0,0l0,0l0,0l0,0c0,0,0,0-0.1,0s-0.1,0-0.2,0.1
				c-0.1,0.1,0,0.2,0.1,0.3C19.6,17.6,19.7,17.5,19.8,17.4z"/>
			<path class="st6" d="M21.1,18.4L21.1,18.4L21.1,18.4c-0.1-0.2-0.5,0-0.4,0.1c0,0.1,0.2,0.2,0.3,0.2
				C21.1,18.6,21.2,18.5,21.1,18.4z"/>
			<path class="st6" d="M15.3,3.1C16.1,2.9,17,4,17.6,4.5c-1.1,0.5-1.7,1.6-1.7,2.8c0,0.2,0.2,0.2,0.3,0c0-1.2,0.6-2.2,1.7-2.7
				C18,4.6,18,4.5,18,4.4c-0.6-0.6-1.1-1.3-2-1.5c-0.7-0.1-1.3,0-1.7,0.6c-0.1,0.1,0.1,0.3,0.2,0.1c0.1-0.2,0.3-0.3,0.5-0.4
				c-0.1,0.3-0.1,0.6-0.1,0.9c0,0.2,0.3,0.1,0.2-0.1C15.1,3.7,15.2,3.4,15.3,3.1L15.3,3.1z"/>
			<path class="st6" d="M34.1,3.6c0.1,0.1,0.3,0,0.2-0.1c-0.4-0.6-1-0.7-1.7-0.5c-0.8,0.3-1.3,0.9-2,1.5c-0.1,0.1,0,0.2,0.1,0.2
				c1.1,0.5,1.7,1.5,1.7,2.7c0,0.2,0.3,0.2,0.3,0c0-1.2-0.6-2.3-1.7-2.8c0.6-0.6,1.5-1.5,2.3-1.4l0,0c0.1,0.3,0.2,0.6,0.1,0.9
				c0,0.2,0.2,0.2,0.2,0.1c0-0.3,0-0.6-0.1-0.9C33.8,3.3,34,3.4,34.1,3.6z"/>
		</g>
	</g>
</g>
</svg>
