<?xml version="1.0" encoding="utf-8"?>
<!-- Generator: Adobe Illustrator 21.1.0, SVG Export Plug-In . SVG Version: 6.00 Build 0)  -->
<svg version="1.1" id="Capa_1" xmlns="http://www.w3.org/2000/svg" xmlns:xlink="http://www.w3.org/1999/xlink" x="0px" y="0px"
	 viewBox="0 0 48 25.2" style="enable-background:new 0 0 48 25.2;" xml:space="preserve">
<style type="text/css">
	.st0{fill:#C5FF26;}
	.st1{fill:#68E817;}
	.st2{fill:#B50DFF;}
</style>
<g>
	<g>
		<g>
			<g>
				<path class="st0" d="M48,19.7l-5.5,5.5l-7.1-7.1l-7.1,7.1l-5.4-5.5l7.1-7.1l-7.1-7.1L28.3,0l7.1,7.1L42.5,0L48,5.5l-7.1,7.1
					L48,19.7z"/>
			</g>
		</g>
	</g>
	<g>
		<path class="st1" d="M1.4,2c0.2-0.5,0.7-0.7,1.3-0.7S3.8,1.6,4.1,2c0.2,0.4,0.2,0.8,0.2,0.8c0,0.1,0,0.7,0.4,1.3
			c0.5,1,1.3,1.4,2.4,1.4S9,5.2,9.5,4.2C9.8,3.6,9.8,3,9.8,2.9l0,0c0,0,0-0.5,0.2-0.8c0.2-0.5,0.7-0.7,1.3-0.7
			c0.6,0,1.1,0.2,1.3,0.7C13,2.4,13,2.9,13,2.9c0,0.1,0,0.7,0.4,1.3c0.5,1,1.3,1.4,2.4,1.4s1.9-0.5,2.4-1.4c0.4-0.6,0.4-1.2,0.4-1.3
			l0,0c0,0,0-0.5,0.2-0.8C19,1.6,19.4,1.3,20,1.3s1.1,0.2,1.3,0.7c0.2,0.4,0.2,0.8,0.2,0.8c0,0.1,0,0.7,0.4,1.3
			c0.5,1,1.3,1.4,2.4,1.4c1.1,0,1.9-0.5,2.4-1.4c0.4-0.6,0.4-1.3,0.4-1.3h-1.2c0,0,0,0.5-0.2,0.8c-0.2,0.5-0.7,0.7-1.3,0.7
			S23.3,4.2,23,3.7c-0.2-0.4-0.2-0.8-0.2-0.8c0-0.1,0-0.7-0.4-1.3c-0.5-1-1.3-1.4-2.4-1.4s-1.9,0.5-2.4,1.4
			c-0.4,0.6-0.4,1.2-0.4,1.3l0,0c0,0,0,0.5-0.2,0.8c-0.2,0.5-0.7,0.7-1.3,0.7c-0.6,0-1.1-0.2-1.3-0.7c-0.2-0.4-0.2-0.8-0.2-0.8
			c0-0.1,0-0.7-0.4-1.3c-0.5-1-1.3-1.4-2.4-1.4S9.5,0.6,9,1.6C8.6,2.2,8.6,2.8,8.6,2.9l0,0c0,0,0,0.5-0.2,0.8
			C8.2,4.2,7.7,4.4,7.1,4.4S6,4.2,5.8,3.7C5.5,3.4,5.5,2.9,5.5,2.9c0-0.1,0-0.7-0.4-1.3c-0.5-1-1.3-1.4-2.4-1.4S0.8,0.6,0.4,1.6
			C0,2.2,0,2.8,0,2.9h1.2C1.2,2.9,1.2,2.4,1.4,2z"/>
		<path class="st1" d="M25.7,10.2c-0.2,0.5-0.7,0.7-1.3,0.7s-1.1-0.2-1.3-0.7c-0.2-0.4-0.2-0.8-0.2-0.8c0-0.1,0-0.7-0.4-1.3
			c-0.5-1-1.3-1.4-2.4-1.4S18.1,7.1,17.6,8c-0.4,0.6-0.4,1.2-0.4,1.3l0,0c0,0,0,0.5-0.2,0.8c-0.2,0.5-0.7,0.7-1.3,0.7
			c-0.6,0-1.1-0.2-1.3-0.7c-0.2-0.4-0.2-0.8-0.2-0.8c0-0.1,0-0.7-0.4-1.3c-0.5-1-1.3-1.4-2.4-1.4S9.5,7.1,9,8
			C8.6,8.6,8.6,9.2,8.6,9.4l0,0c0,0,0,0.5-0.2,0.8c-0.2,0.5-0.7,0.7-1.3,0.7S6,10.7,5.8,10.2C5.5,9.8,5.5,9.4,5.5,9.4
			c0-0.1,0-0.7-0.4-1.3c-0.5-1-1.3-1.4-2.4-1.4S0.8,7.1,0.4,8C0,8.6,0,9.2,0,9.4h1.2c0,0,0-0.5,0.2-0.8C1.7,8,2.2,7.8,2.8,7.8
			S3.8,8,4.1,8.5c0.2,0.4,0.2,0.8,0.2,0.8c0,0.1,0,0.7,0.4,1.3c0.5,1,1.3,1.4,2.4,1.4s1.9-0.5,2.4-1.4c0.4-0.6,0.4-1.2,0.4-1.3l0,0
			c0,0,0-0.5,0.2-0.8c0.2-0.5,0.7-0.7,1.3-0.7c0.6,0,1.1,0.2,1.3,0.7C13,8.9,13,9.4,13,9.4c0,0.1,0,0.7,0.4,1.3
			c0.5,1,1.3,1.4,2.4,1.4s1.9-0.5,2.4-1.4c0.4-0.6,0.4-1.2,0.4-1.3l0,0c0,0,0-0.5,0.2-0.8C19,8,19.4,7.8,20,7.8s1.1,0.2,1.3,0.7
			c0.2,0.4,0.2,0.8,0.2,0.8c0,0.1,0,0.7,0.4,1.3c0.5,1,1.3,1.4,2.4,1.4c1.1,0,1.9-0.5,2.4-1.4c0.4-0.6,0.4-1.3,0.4-1.3h-1.2
			C25.9,9.4,25.9,9.7,25.7,10.2z"/>
		<path class="st1" d="M25.7,16.7c-0.2,0.5-0.7,0.7-1.3,0.7s-1.1-0.2-1.3-0.7c-0.2-0.4-0.2-0.8-0.2-0.8c0-0.1,0-0.7-0.4-1.3
			c-0.5-1-1.3-1.4-2.4-1.4s-1.9,0.5-2.4,1.4c-0.4,0.6-0.4,1.2-0.4,1.3l0,0c0,0,0,0.5-0.2,0.8c-0.2,0.5-0.7,0.7-1.3,0.7
			s-1.1-0.2-1.3-0.7c-0.2-0.4-0.2-0.8-0.2-0.8c0-0.1,0-0.7-0.4-1.3c-0.5-1-1.3-1.4-2.4-1.4S9.5,13.6,9,14.5
			c-0.4,0.6-0.4,1.2-0.4,1.3l0,0c0,0,0,0.5-0.2,0.8c-0.2,0.5-0.7,0.7-1.3,0.7S6,17.2,5.8,16.7c-0.2-0.4-0.2-0.8-0.2-0.8
			c0-0.1,0-0.7-0.4-1.3c-0.5-1-1.3-1.4-2.4-1.4s-1.9,0.5-2.4,1.4C0,15.1,0,15.7,0,15.8h1.2c0,0,0-0.5,0.2-0.8
			c0.2-0.5,0.7-0.7,1.3-0.7s1.1,0.2,1.3,0.7c0.2,0.4,0.2,0.8,0.2,0.8c0,0.1,0,0.7,0.4,1.3c0.5,1,1.3,1.4,2.4,1.4s1.9-0.5,2.4-1.4
			c0.4-0.6,0.4-1.2,0.4-1.3l0,0c0,0,0-0.5,0.2-0.8c0.2-0.5,0.7-0.7,1.3-0.7c0.6,0,1.1,0.2,1.3,0.7c0.2,0.4,0.2,0.8,0.2,0.8
			c0,0.1,0,0.7,0.4,1.3c0.5,1,1.3,1.4,2.4,1.4s1.9-0.5,2.4-1.4c0.4-0.6,0.4-1.2,0.4-1.3l0,0c0,0,0-0.5,0.2-0.8
			c0.2-0.5,0.7-0.7,1.3-0.7s1.1,0.2,1.3,0.7c0.2,0.4,0.2,0.8,0.2,0.8c0,0.1,0,0.7,0.4,1.3c0.5,1,1.3,1.4,2.4,1.4
			c1.1,0,1.9-0.5,2.4-1.4c0.4-0.6,0.4-1.3,0.4-1.3h-1.2C25.9,15.8,25.9,16.3,25.7,16.7z"/>
		<path class="st1" d="M25.8,23.2c-0.2,0.5-0.7,0.7-1.3,0.7s-1.1-0.2-1.3-0.7c-0.2-0.4-0.2-0.8-0.2-0.8c0-0.1,0-0.7-0.4-1.3
			c-0.5-1-1.3-1.4-2.4-1.4c-1.1,0-1.9,0.5-2.4,1.4c-0.4,0.6-0.4,1.2-0.4,1.3l0,0c0,0,0,0.5-0.2,0.8c-0.2,0.5-0.7,0.7-1.3,0.7
			c-0.6,0-1.1-0.2-1.3-0.7c-0.2-0.4-0.2-0.8-0.2-0.8c0-0.1,0-0.7-0.4-1.3c-0.5-1-1.3-1.4-2.4-1.4S9.6,20,9.1,21
			c-0.4,0.6-0.4,1.2-0.4,1.3l0,0c0,0,0,0.5-0.2,0.8c-0.2,0.5-0.7,0.7-1.3,0.7s-1.1-0.2-1.3-0.7c-0.2-0.4-0.2-0.8-0.2-0.8
			c0-0.1,0-0.7-0.4-1.3c-0.5-1-1.3-1.4-2.4-1.4S1,20,0.5,21C0,21.6,0,22.3,0,22.3h1.2c0,0,0-0.5,0.2-0.8c0.2-0.5,0.7-0.7,1.3-0.7
			s1.1,0.2,1.3,0.7c0.2,0.4,0.2,0.8,0.2,0.8c0,0.1,0,0.7,0.4,1.3c0.5,1,1.3,1.4,2.4,1.4s1.9-0.5,2.4-1.4c0.4-0.6,0.4-1.2,0.4-1.3
			l0,0c0,0,0-0.5,0.2-0.8c0.2-0.5,0.7-0.7,1.3-0.7c0.6,0,1.1,0.2,1.3,0.7c0.2,0.4,0.2,0.8,0.2,0.8c0,0.1,0,0.7,0.4,1.3
			c0.5,1,1.3,1.4,2.4,1.4s1.9-0.5,2.4-1.4c0.4-0.6,0.4-1.2,0.4-1.3l0,0c0,0,0-0.5,0.2-0.8c0.2-0.5,0.7-0.7,1.3-0.7s1.1,0.2,1.3,0.7
			c0.2,0.4,0.2,0.8,0.2,0.8c0,0.1,0,0.7,0.4,1.3c0.5,1,1.3,1.4,2.4,1.4c1.1,0,1.9-0.5,2.4-1.4c0.4-0.6,0.4-1.3,0.4-1.3h-1.2
			C25.9,22.3,25.9,22.8,25.8,23.2z"/>
	</g>
	<g>
		<path class="st2" d="M34.8,3.4C34.7,2.8,34.1,2,33.5,2c-0.2,0-1,0-1.7,0.2c-0.7,0.2-1.1,0.6-1.3,1.2c0,0-0.2,0.4-0.5,0.5
			c-0.1-0.1-0.5-0.2-0.8-0.5l0,0c-0.6-0.4-0.8-0.5-1.6-0.8c-0.2-0.1-0.7-0.2-1-0.4c-0.5-0.1-1-0.1-1.3-0.1c-0.1,0-0.1,0-0.2,0
			c-0.1,0.1-0.1,0.2,0,0.4c0.1,0.1,0.2,0.1,0.4,0.1c0.1,0,0.2,0,0.4,0.1C26,2.9,26,3.4,26.3,3.6c0.1,0.1,0.2,0.1,0.5,0.1
			c0.4,0,0.8-0.2,1.2,0c0.1,0.1,0.2,0.2,0.5,0.4c0.2,0.1,0.5,0.2,0.7,0.2c0.1,0,0.2,0,0.4-0.1l0.1-0.1c0.2,0.1,0.5,0.2,0.5,0.2h0.1
			C30.7,4.2,31,3.8,31,3.7l0,0c0.4-1.1,1.9-1.3,2.8-1.3c0.5,0,1,0.5,1.1,1.2c0.2,0.8-0.1,1.7-1,2.3l-0.7,0.5v0.1c0,0,0,0.1,0.1,0.1
			c0,0,0.5,0.2,0.4,0.7c0,0.2,0,0.4,0,0.6s0,0.2-0.1,0.4c0,0,0,0,0,0.1c0,0-0.1,1-0.2,1.3c0,0,0,0,0,0.1c0,0,0.2,1.4,0.2,2.2l0,0
			c-0.4,0-0.6,0.4-0.8,0.7c0,0,0,0,0-0.1c-0.1-0.1-0.2-0.1-0.4,0c-0.5,0.7-0.8,1.4-1,2.4c0,0.1,0.1,0.2,0.2,0.1
			c0.2-0.1,0.4-0.4,0.5-0.6c0.2-0.2,0.4-0.2,0.6-0.4c0.1,0,0.1-0.1,0.2-0.1c0.4-0.4,0.5-1.1,0.7-1.6l0,0c0.1-0.1,0.1-0.4,0.1-0.4
			c0-0.7-0.2-2.2-0.2-2.4c0.1-0.4,0.2-1.1,0.2-1.3C34,8.2,34,8,34,7.8c0-0.1,0-0.2,0-0.5c0-0.5-0.2-0.7-0.4-0.8l0.6-0.4
			C35,4.9,35,4,34.8,3.4z"/>
		<path class="st2" d="M25,7.4c0-0.2,0-0.7-0.1-1c-0.2-0.5-0.7-0.2-1,0l0,0c-0.1-0.4-0.2-0.8-0.7-0.7c-0.1,0-0.2,0.1-0.2,0.1
			l-0.1,0.2L22.4,6c-0.1,0-0.2,0-0.2,0c-0.4,0.2-0.1,0.7,0.1,1c0.1,0.1,0.2,0.2,0.4,0.4c0.1,0.1,0.1,0.2,0.2,0.4
			c0.1,0.1,0.4,0.1,0.5,0.2c0.2,0.1,0.4,0,0.4,0.4c0,0.1,0,0.2,0,0.4c0,0.2,0.1,0.5,0.4,0.6c0.5,0.2,0.8-0.1,1-0.6
			C25.1,8.2,25,7.8,25,7.4z"/>
		<path class="st2" d="M26.2,11.2c-0.1,0-0.1,0.1-0.1,0.1v0.1c0,0.1,0,0-0.1,0c-0.1-0.1-0.4-0.1-0.5,0c-0.1,0.2,0,0.5,0.1,0.6
			s0.2,0.4,0.5,0.4c0.1,0,0.4-0.1,0.4-0.2c0.1,0,0.2,0,0.4-0.1c0.1-0.1,0.1-0.4,0.1-0.5C26.6,11.4,26.4,11,26.2,11.2z"/>
		<path class="st2" d="M28.3,9.2c0.1,0,0.2-0.1,0.4-0.2c0.4-0.2,0.5,0,0.7,0c0.2,0.1,0.5,0.1,0.6-0.1c0.2-0.5-0.4-1.1-0.7-1.2
			c-0.7-0.1-1.2,0.5-1.4,1.1v0.1C27.7,9.2,28,9.4,28.3,9.2z"/>
		<path class="st2" d="M31.2,15.8c-0.4,0.1-0.6,0.7-0.7,1c-0.2,0.5-0.5,0.8-0.6,1.3c0,0.1,0.1,0.2,0.2,0.1c0.5-0.4,0.8-0.8,1.2-1.3
			l0,0l0,0C31.6,16.7,31.9,15.5,31.2,15.8z"/>
		<path class="st2" d="M32.4,10.1c0-0.2-0.1-0.4-0.1-0.6c0-0.1-0.2-0.6-0.4-0.7c-0.1-0.1-0.1-0.1-0.2-0.1c0-0.4,0-0.8-0.4-1.1
			c-0.2-0.2-0.6-0.2-0.7,0.1c0,0.1,0,0.4,0,0.5C30.7,8.6,31,9,30.8,9.6c0,0.7,0,1.2,0.5,1.8c0.1,0.2,0.5,0.6,0.6,0.1
			c0-0.1,0-0.1,0-0.1c0-0.2,0-0.4,0.1-0.7C32.3,10.4,32.4,10.3,32.4,10.1z"/>
		<path class="st2" d="M27,19.7L27,19.7C27,19.6,27,19.6,27,19.7C27,19.6,27,19.6,27,19.7C27,19.6,27,19.6,27,19.7
			C26.9,19.6,26.9,19.6,27,19.7c-0.1,0-0.2,0-0.2,0c0,0.1,0,0.1,0,0.2c0.1,0,0.1,0,0.2-0.1V19.7L27,19.7z"/>
		<path class="st2" d="M21.7,19.7L21.7,19.7C21.7,19.6,21.7,19.6,21.7,19.7C21.7,19.6,21.7,19.6,21.7,19.7
			C21.7,19.6,21.7,19.6,21.7,19.7C21.7,19.6,21.7,19.6,21.7,19.7c-0.1,0-0.2,0-0.2,0c0,0.1,0,0.1,0,0.2c0.1,0,0.1,0,0.2-0.1
			C21.8,19.8,21.8,19.7,21.7,19.7L21.7,19.7z"/>
		<path class="st2" d="M27,18.6c-0.1,0-0.1,0-0.2,0l0,0c-0.1,0.1-0.1,0.2,0,0.2c0.1,0.1,0.2,0.1,0.2,0C27.1,18.7,27.1,18.6,27,18.6z
			"/>
		<path class="st2" d="M27.7,19.6c-0.1,0-0.1,0-0.2,0l0,0c-0.1,0.1-0.1,0.2,0,0.2c0.1,0.1,0.2,0.1,0.2,0
			C27.8,19.7,27.8,19.6,27.7,19.6z"/>
		<path class="st2" d="M28.6,18.5L28.6,18.5c0-0.1-0.1-0.2-0.2-0.2s-0.2,0-0.2,0.1s0,0.2,0.1,0.2C28.4,18.7,28.6,18.7,28.6,18.5
			C28.6,18.6,28.6,18.5,28.6,18.5z"/>
		<path class="st2" d="M28.9,18.4c0,0.1,0,0.2,0.1,0.2s0.2-0.1,0.2-0.2l0,0l0,0c0-0.1-0.1-0.2-0.2-0.2C29,18.1,28.9,18.2,28.9,18.4z
			"/>
		<path class="st2" d="M28.3,19.2c-0.1,0-0.2,0-0.2,0.1c0,0.1,0,0.2,0.1,0.2c0.1,0,0.2-0.1,0.2-0.2l0,0l0,0
			C28.6,19.3,28.4,19.3,28.3,19.2z"/>
		<path class="st2" d="M27.6,17.5L27.6,17.5L27.6,17.5L27.6,17.5L27.6,17.5L27.6,17.5c-0.1,0-0.2,0-0.2,0c-0.1,0.1,0,0.2,0,0.2
			c0.1,0,0.2,0,0.2-0.1C27.7,17.8,27.7,17.6,27.6,17.5L27.6,17.5z"/>
		<path class="st2" d="M26.3,18.5L26.3,18.5L26.3,18.5L26.3,18.5C26.2,18.5,26.2,18.5,26.3,18.5C26.2,18.5,26.2,18.5,26.3,18.5
			c-0.1,0-0.2,0-0.2,0c-0.1,0.1,0,0.2,0,0.2c0.1,0,0.2,0,0.2-0.1C26.3,18.7,26.3,18.6,26.3,18.5C26.3,18.6,26.3,18.5,26.3,18.5z"/>
		<path class="st2" d="M28.3,17.4L28.3,17.4L28.3,17.4L28.3,17.4L28.3,17.4C28.3,17.4,28.2,17.4,28.3,17.4c-0.1,0-0.2,0-0.2,0
			c-0.1,0.1,0,0.2,0,0.2c0.1,0,0.2,0,0.2-0.1C28.3,17.5,28.3,17.5,28.3,17.4L28.3,17.4z"/>
		<path class="st2" d="M28.9,17.3L28.9,17.3C28.8,17.3,28.8,17.3,28.9,17.3C28.8,17.3,28.8,17.3,28.9,17.3
			C28.8,17.3,28.8,17.3,28.9,17.3c-0.1,0-0.1,0-0.1,0l0,0l0,0c-0.1,0.1-0.1,0.1,0,0.2c0,0.1,0.2,0.1,0.2,0.1c0.1-0.1,0.1-0.2,0-0.2
			C29,17.3,29,17.3,28.9,17.3z"/>
		<path class="st2" d="M27.5,18.5L27.5,18.5L27.5,18.5c0,0.1,0,0.2,0.1,0.4c0.1,0.1,0.2,0,0.4-0.1C27.8,18.5,27.5,18.4,27.5,18.5z"
			/>
		<path class="st2" d="M27.5,7.1c-0.1-0.5-0.2-0.7-0.6-1c-0.1,0-0.1,0-0.1,0c-0.1,0-0.2,0-0.2,0.1c-0.2,0.6-0.5,1.3-0.4,1.9
			c0.1,0.5,0.6,0.7,1,0.4C27.4,8.3,27.5,7.6,27.5,7.1z"/>
		<path class="st2" d="M23.9,11.2c0.1,0.1,0.1,0.2,0.2,0.2h0.1l0,0c0.4,0,0.7-0.4,0.6-0.7c-0.1-0.2-0.4-0.2-0.6-0.2
			c-0.2,0-0.2,0-0.4-0.2c0-0.1-0.1-0.2-0.1-0.2c-0.4-0.4-0.8,0.1-0.7,0.5c0.1,0.2,0.2,0.4,0.5,0.4c0.1,0,0.2,0,0.2,0.1
			C23.9,11,23.9,11.2,23.9,11.2z"/>
		<path class="st2" d="M26.9,10.2c0-0.1-0.1-0.2-0.4-0.4c-0.1,0-0.2,0-0.2-0.2c0-0.1-0.1-0.2-0.1-0.2c-0.2-0.2-0.6-0.2-0.8,0
			c-0.2,0.2-0.1,0.7,0.1,0.8c0.1,0,0.2,0,0.2,0c0-0.1,0.1-0.2,0.2-0.1c0,0,0.1,0.1,0.1,0.2c0.1,0.1,0.1,0.2,0.2,0.4h0.1
			C26.6,10.7,27,10.4,26.9,10.2z"/>
		<path class="st2" d="M22.9,12.2c0.2,0.1,0.5,0,0.6-0.1c0.1-0.1,0.2-0.5,0.1-0.6c0-0.1-0.1-0.1-0.2-0.1s-0.1,0-0.1,0h-0.1l0,0l0,0
			c-0.2,0-0.4,0.2-0.4,0.4C22.7,12,22.8,12.1,22.9,12.2z"/>
		<path class="st2" d="M30.7,11.9c0.1-0.1,0.2-0.4,0.1-0.6c0-0.1-0.1-0.1-0.2-0.1s-0.2,0-0.4,0l0,0c-0.2,0-0.4,0.1-0.4,0.4
			c0,0.1,0,0.1,0,0.1s0,0-0.1,0c-0.2-0.1-0.4,0-0.5,0.2c-0.1,0.1-0.1,0.2-0.4,0.2c-0.1,0-0.2-0.1-0.4-0.1c-0.5,0-0.6,0.7-0.1,0.8
			c0.2,0.1,0.5,0,0.6-0.1c0.1-0.1,0.2-0.1,0.5-0.1c0.1,0,0.2,0,0.4,0l0,0l0,0l0.1-0.1c0.1-0.1,0.1-0.4,0-0.5l0,0
			C30.2,12,30.6,12,30.7,11.9z"/>
		<path class="st2" d="M30.4,5.2c-0.2,0-0.4,0-0.6,0.1c-0.4,0.1-0.2,0.2-0.4-0.1c-0.2-0.5-0.6-0.8-1.1-0.8c-0.5-0.1-0.8,0.4-0.8,0.8
			c0,0.2,0.1,0.5,0.2,0.8c0.1,0.2,0.2,0.6,0.4,0.8c0.2,0.5,0.7,0.4,1.1,0.1c0,0,0,0,0.1,0c0,0.1,0,0.2,0.1,0.2
			c0.1,0.1,0.2,0.2,0.5,0.2c0.5,0,0.7-0.5,0.7-1c0.1-0.4,0.2-0.8,0-1.1C30.5,5.3,30.5,5.2,30.4,5.2z"/>
		<path class="st2" d="M20.6,4.1c-0.5,0-1,0.5-1.1,0.8c-0.1,0.4,0,0.4-0.4,0.1c-0.2-0.1-0.4-0.1-0.6-0.1c-0.1,0-0.1,0.1-0.2,0.1
			c-0.2,0.4-0.1,0.8,0,1.1c0.1,0.4,0.2,0.8,0.7,1c0.2,0,0.4-0.1,0.5-0.2c0-0.1,0.1-0.2,0.1-0.2s0,0,0.1,0c0.4,0.2,0.8,0.4,1.1-0.1
			C21,6.2,21,5.9,21.2,5.6c0.1-0.2,0.2-0.5,0.2-0.8C21.5,4.6,21.1,4.1,20.6,4.1z"/>
		<path class="st2" d="M22.4,10.8c0.1-0.2,0.2-0.7-0.1-1l0,0l0,0c-0.2,0-0.4,0.4-0.4,0.6c-0.2,0.1-0.5,0.2-0.5,0.6
			c0,0.2,0,0.6,0.4,0.6C22.2,11.5,22.3,11,22.4,10.8z"/>
		<path class="st2" d="M17.8,7.6c-0.4-0.2-0.7,0.1-1,0.4c-0.5,0.6-0.4,1.2-0.6,1.9c-0.1,0.5-0.6,1.1-0.1,1.4l0.1,0.1
			c0.1,0.1,0.1,0.2,0.2,0.5c0,0.1,0.1,0.2,0.2,0.4h0.1c0.6-0.4,0.4-1.1,0.5-1.7c0-1,0.4-1.9,0.6-2.8C17.8,7.7,17.8,7.6,17.8,7.6z"/>
		<path class="st2" d="M22.9,9.4c0.4-0.1,0.2-0.6,0-0.8c-0.2-0.2-0.8-0.4-1.2-0.2l0,0l0,0c-0.5,0.1-0.4,0.5-0.1,0.7
			C22,9.1,22.6,9.5,22.9,9.4z"/>
		<path class="st2" d="M16.9,13.9c-0.4-0.8-0.7-1.4-1.3-2c0,0-0.1-0.1-0.1,0c0-0.8,0.2-2.3,0.2-2.3s0,0,0-0.1
			c-0.2-0.5-0.2-1.3-0.2-1.3V8c-0.2-0.1-0.2-0.2-0.1-0.4c0-0.1,0-0.4,0-0.6c0-0.5,0.4-0.7,0.4-0.7s0.1,0,0.1-0.1V6.1l-0.7-0.5
			c-0.8-0.7-1.2-1.4-1-2.3c0.1-0.6,0.7-1.2,1.1-1.2c0.8,0,2.5,0.2,2.8,1.3l0,0c0,0,0.2,0.4,0.7,0.6h0.1c0,0,0.2-0.2,0.7-0.4l0.1,0.1
			C19.8,4,19.9,4,20,4c0.2,0,0.6,0,0.7-0.1c0.1-0.1,0.4-0.2,0.5-0.4c0.4-0.1,0.8,0.1,1.3,0.1c0.1,0,0.4,0,0.5-0.1
			c0.2-0.2,0.2-0.6,0.6-0.8c0.1,0,0.2,0,0.4,0c0.1,0,0.2,0,0.4-0.1c0.1-0.1,0.1-0.2,0-0.4c0,0-0.1,0-0.2,0c-0.5,0-1,0-1.4,0
			c-0.4,0-0.8,0.2-1.1,0.2c-0.8,0.4-1.1,0.5-1.9,0.8l0,0l0,0c-0.5,0.2-0.7,0.5-0.8,0.5c-0.2-0.1-0.5-0.4-0.5-0.5
			c-0.1-0.5-0.6-1-1.3-1.2c-0.7-0.2-1.4-0.2-1.7-0.2c-0.6,0-1.2,0.7-1.3,1.3c-0.1,0.6-0.1,1.7,1.1,2.5L15.7,6
			c-0.1,0.1-0.4,0.4-0.4,0.8c0,0.2,0,0.4,0,0.5c0,0.2-0.1,0.4,0.2,0.6c0,0.2,0.1,1,0.2,1.3c0,0.2-0.2,1.7-0.2,2.4c0,0,0,0.8,0.1,1.2
			c0.1,0.2,0.2,0.6,0.5,0.8c0.1,0.1,0.2,0.1,0.4,0.1c0.4,0.2,0.4,0.4,0.5,0.7c0.1,0.1,0.1,0.5,0.4,0.5
			C17.5,15.4,16.9,14.2,16.9,13.9z"/>
		<path class="st2" d="M29.9,16.8c0-0.6-0.2-1.1-0.5-1.4c-0.5-0.6-0.8-1.2-1.2-1.9c-0.2-0.6-0.5-1.2-0.6-1.8c0-0.2,0-0.5,0-0.7
			c0.1,0.2,0.5,0.5,0.8,0.4c0.5,0,0.8-0.5,0.8-0.8c0-0.2-0.1-0.4-0.2-0.5c0.2,0.1,0.5,0.2,0.7,0.2h0.1c0.1-0.5-0.2-0.5-0.7-0.6
			c-0.6-0.1-1.2,0.1-1.7,0.5l0,0l0,0l0,0l0,0l0,0c0,0,0,0,0,0.1c0,0.5-0.1,1-0.1,1.4c0.1,0.5,0.4,1.1,0.5,1.6
			c0.2,0.6,0.5,1.2,0.8,1.7c0.5,0.6,1,1.1,1,1.9C29.6,16.9,29.9,16.9,29.9,16.8z M28.3,10.6c-0.1,0-0.2-0.1-0.2-0.2
			c0-0.1,0.1-0.2,0.2-0.2c0.1,0,0.2,0.1,0.2,0.2C28.7,10.4,28.6,10.6,28.3,10.6z"/>
		<path class="st2" d="M20.9,8.9c-0.2-0.5-0.7-1.2-1.4-1.1c-0.4,0.1-1.1,0.7-0.7,1.2c0.1,0.2,0.4,0.2,0.6,0.1C19.6,9,19.7,8.9,20,9
			c0.1,0.1,0.2,0.2,0.4,0.4C20.6,9.5,21,9.2,21,9C20.9,8.9,20.9,8.9,20.9,8.9z"/>
		<path class="st2" d="M18.7,11.5c0-0.2-0.1-0.4-0.4-0.4l0,0c-0.1,0-0.2,0-0.4,0c-0.1,0-0.1,0.1-0.2,0.1c0,0.2,0,0.5,0.1,0.6
			c0.1,0.1,0.4,0.2,0.6,0.1l0,0c0,0.1,0,0.4,0,0.5c0,0,0,0.1,0.1,0.1l0,0l0,0c0.1,0,0.2,0,0.4,0c0.2,0,0.2,0,0.5,0.1
			c0.2,0.1,0.4,0.2,0.6,0.1c0.5-0.2,0.4-0.8-0.1-0.8c-0.1,0-0.2,0-0.4,0.1c-0.2,0-0.2-0.1-0.4-0.2C19.1,11.6,19,11.5,18.7,11.5
			c0,0.1,0,0.1,0,0.1C18.7,11.5,18.7,11.5,18.7,11.5z"/>
		<path class="st2" d="M19.8,14.9c0.4-0.5,0.6-1.1,0.8-1.7c0.1-0.5,0.5-1.1,0.5-1.6s-0.1-1-0.1-1.4v-0.1l0,0l0,0l0,0l0,0l0,0
			c-0.5-0.4-1.1-0.6-1.7-0.5c-0.4,0-0.7,0.1-0.7,0.6c0,0.1,0.1,0.1,0.1,0c0.2-0.1,0.5-0.2,0.7-0.2c-0.2,0.1-0.2,0.2-0.4,0.5
			c0,0.5,0.4,0.8,0.8,0.8c0.4,0,0.7-0.1,0.8-0.4c0,0.2,0,0.6,0,0.7c-0.1,0.6-0.4,1.2-0.6,1.8c-0.2,0.7-0.7,1.3-1.2,1.9
			c-0.4,0.5-0.6,1-0.5,1.4c0,0.1,0.2,0.1,0.2,0C18.7,16,19.3,15.5,19.8,14.9z M20.2,10.6c-0.1,0-0.2-0.1-0.2-0.2
			c0-0.1,0.1-0.2,0.2-0.2c0.1,0,0.2,0.1,0.2,0.2C20.4,10.4,20.3,10.6,20.2,10.6z"/>
		<path class="st2" d="M18.1,16.8c-0.1-0.2-0.5-0.8-0.8-1c-0.6-0.2-0.2,0.8-0.1,1.1l0,0l0,0c0.4,0.5,0.7,1,1.2,1.3
			c0.1,0.1,0.4,0,0.2-0.1C18.6,17.6,18.4,17.2,18.1,16.8z"/>
		<path class="st2" d="M23,3.7c0,0-0.1,0.1-0.1,0.2c0,0,0,0.1-0.1,0.1c0,0.1-0.1,0.1-0.2,0.2c0,0-0.1,0-0.1,0.1
			c-0.1,0.1-0.2,0.2-0.2,0.4c0,0.1,0,0.1,0,0.2c0.1,0.2,0.4,0.1,0.6,0.1c0.1,0,0.1,0,0.2,0c0.2,0,0.5,0.2,0.6,0.4l0.1,0.1
			c0.2,0.2,0.5,0.2,0.7,0.2c0.1,0,0.2-0.1,0.2-0.2s0-0.1,0-0.2s0-0.2,0.1-0.2c0,0,0.1,0,0.2,0c0.2,0,0.4,0.2,0.5,0.4
			c0.1,0.1,0.4,0.4,0.6,0.5l0,0c0.1,0,0.2-0.1,0.4-0.4c0.1-0.1,0-0.5-0.1-0.6l-0.7-1.2c-0.4-0.6-0.7-0.7-1-0.7
			c-0.4,0.1-0.5,0.5-0.6,0.8c-0.1-0.1-0.2-0.2-0.5-0.2C23.5,3.5,23.2,3.6,23,3.7z"/>
		<path class="st2" d="M29.4,18.7C29.4,18.7,29.3,18.8,29.4,18.7c-0.1,0.1-0.1,1.1-1.4,1.6c-1,0.4-2.2,0.1-2.9-0.1
			c-0.4-0.2-0.7-0.5-0.7-0.7c0-0.1,0-0.2,0-0.4c0-0.1,0.1-0.2,0.1-0.4c0.2-0.5,0.8-1,1.1-1.2v-0.1c0,0,0-0.1-0.1-0.1
			c0,0-0.2-0.1-0.2-0.2s0.1-0.2,0.2-0.4c0.1-0.1,0.2-0.1,0.4-0.2l0,0c0.4-0.1,0.2,0.1,0.2,0.2c0,0.1,0.1,0.1,0.1,0
			c0.2-0.1,0.4-0.2,0.4-0.7c0-0.4-0.2-0.5-0.4-0.5c-0.2-0.1-0.8,0-1.6,0.2c-0.1,0-0.5,0.2-0.5,0.2l0,0L24,15.8
			c-0.1-0.1-0.4-0.1-0.4-0.2c-0.7-0.4-1.3-0.4-1.6-0.2c-0.1,0-0.4,0.1-0.4,0.5c0,0.5,0.2,0.6,0.4,0.7h0.1c0-0.1-0.1-0.4,0.2-0.2l0,0
			c0.1,0,0.2,0.1,0.4,0.2c0.2,0.1,0.2,0.2,0.2,0.4c0,0.1-0.1,0.2-0.2,0.2c0,0-0.1,0-0.1,0.1c0,0.1,0,0.1,0,0.1
			c0.2,0.2,0.8,0.7,1.1,1.2c0.1,0.1,0.1,0.2,0.1,0.4c0,0.1,0,0.2,0,0.4c-0.1,0.2-0.4,0.5-0.7,0.7c-0.7,0.4-1.9,0.5-2.9,0.1
			c-1.1-0.4-1.1-1.2-1.1-1.3s0-0.1-0.1-0.1l0,0c-0.1,0-0.1,0-0.1,0.1c0,0,0,1.1,1.4,1.7c0.1,0,0.2,0.1,0.4,0.1l0,0
			c0,0,0.1,0.6,1,1.7c0.5,0.7,1.7,0.8,2.6,0.8l0,0c1,0,2.2-0.2,2.6-0.8c0.8-1.2,1-1.7,1-1.7l0,0c0.1,0,0.2-0.1,0.4-0.1
			C29.5,19.9,29.5,19,29.4,18.7C29.5,18.8,29.5,18.7,29.4,18.7z M26.6,22.2c-0.4,0.5-1.3,0.8-2.4,0.8c-1.1,0-2-0.4-2.4-0.8
			c-0.6-0.8-0.8-1.3-0.8-1.4c0.2,0,0.4,0,0.6,0c0.4,0,0.6,0,1-0.1c0.2,0,0.6-0.1,0.8-0.1c0.1,0,0.4,0,0.5,0.1c0.1,0,0.1,0,0.2,0.1
			h0.1c0,0,0.1,0,0.1,0.1l0,0h0.1c0,0,0.1,0,0.1-0.1h0.1c0.1,0,0.1-0.1,0.2-0.1c0.1,0,0.2-0.1,0.5-0.1c0.2,0,0.5,0,0.7,0.1
			c0.4,0.1,0.7,0.1,1,0.1c0.2,0,0.5,0,0.6,0C27.5,20.9,27.4,21.4,26.6,22.2z"/>
		<path class="st2" d="M21.7,18.6L21.7,18.6c-0.1,0-0.1,0-0.2,0s-0.1,0.2-0.1,0.2c0.1,0.1,0.2,0.1,0.2,0
			C21.8,18.7,21.8,18.6,21.7,18.6z"/>
		<path class="st2" d="M21,19.4c0,0-0.1,0-0.2,0c-0.1,0-0.1,0.2-0.1,0.2c0.1,0.1,0.2,0.1,0.2,0C21.1,19.7,21.1,19.6,21,19.4
			C21,19.6,21,19.6,21,19.4z"/>
		<path class="st2" d="M20.2,18.7c0.1,0,0.2-0.1,0.2-0.4c0-0.1-0.1-0.2-0.2-0.1c-0.1,0-0.2,0.1-0.2,0.2l0,0l0,0
			C19.9,18.7,20,18.7,20.2,18.7z"/>
		<path class="st2" d="M19.3,18.1c-0.1,0-0.2,0.1-0.2,0.2l0,0l0,0c0,0.1,0.1,0.2,0.2,0.2c0.1,0,0.2-0.1,0.2-0.4
			C19.6,18.2,19.4,18.1,19.3,18.1z"/>
		<path class="st2" d="M19.9,19.6c0,0.1,0.1,0.2,0.2,0.2s0.2-0.1,0.2-0.4c0-0.1-0.1-0.2-0.2-0.1C20,19.3,19.9,19.3,19.9,19.6
			C19.9,19.4,19.9,19.4,19.9,19.6C19.9,19.4,19.9,19.4,19.9,19.6z"/>
		<path class="st2" d="M21.1,17.6c0,0-0.1-0.1-0.2-0.1l0,0l0,0l0,0l0,0l0,0l0,0c0,0,0,0.1,0,0.2c0,0.1,0.1,0.1,0.2,0.1
			C21.1,17.8,21.2,17.6,21.1,17.6z"/>
		<path class="st2" d="M22.4,18.8c0.1,0,0.1-0.1,0.1-0.2c0,0-0.1-0.1-0.2-0.1l0,0l0,0l0,0l0,0l0,0l0,0c0,0,0,0.1,0,0.2
			C22.2,18.8,22.3,18.8,22.4,18.8z"/>
		<path class="st2" d="M20.4,17.4c0,0-0.1-0.1-0.2-0.1l0,0l0,0l0,0l0,0l0,0l0,0c0,0,0,0.1,0,0.2s0.1,0.1,0.2,0.1
			S20.5,17.5,20.4,17.4z"/>
		<path class="st2" d="M19.8,17.5c0-0.1,0-0.2,0-0.2l0,0l0,0l0,0l0,0l0,0l0,0c0,0,0,0-0.1,0c-0.1,0-0.1,0-0.1,0.1
			c-0.1,0.1,0,0.2,0,0.2S19.7,17.6,19.8,17.5z"/>
		<path class="st2" d="M21.1,18.5L21.1,18.5L21.1,18.5c-0.1-0.2-0.5,0-0.4,0.1c0,0.1,0.2,0.2,0.4,0.1C21.1,18.7,21.1,18.6,21.1,18.5
			z"/>
		<path class="st2" d="M15.2,3.2c0.8-0.1,1.8,0.8,2.4,1.4c-1.1,0.6-1.7,1.7-1.8,2.9c0,0.1,0.2,0.1,0.2,0c0-1.2,0.6-2.3,1.8-2.8
			c0.1,0,0.1-0.1,0-0.2c-0.6-0.6-1.2-1.3-2-1.6c-0.7-0.2-1.3,0-1.7,0.5c-0.1,0.1,0.1,0.2,0.2,0.1c0.1-0.2,0.4-0.4,0.5-0.5
			c-0.1,0.2-0.1,0.6-0.1,0.8c0,0.1,0.2,0.1,0.2-0.1C15.1,3.7,15.1,3.5,15.2,3.2L15.2,3.2z"/>
		<path class="st2" d="M34.1,3.7c0.1,0.1,0.4,0,0.2-0.1C34,3,33.2,2.9,32.6,3.1c-0.8,0.2-1.3,1-2,1.6c-0.1,0.1,0,0.2,0,0.2
			c1.1,0.5,1.7,1.6,1.8,2.8c0,0.1,0.2,0.1,0.2,0c0-1.2-0.6-2.4-1.8-2.9c0.6-0.6,1.6-1.6,2.4-1.4l0,0c0.1,0.2,0.1,0.6,0.1,0.8
			c0,0.1,0.2,0.2,0.2,0.1c0-0.2,0-0.6-0.1-0.8C33.8,3.4,34,3.5,34.1,3.7z"/>
	</g>
</g>
</svg>
