<?xml version="1.0" encoding="utf-8"?>
<!-- Generator: Adobe Illustrator 21.1.0, SVG Export Plug-In . SVG Version: 6.00 Build 0)  -->
<svg version="1.1" id="Capa_1" xmlns="http://www.w3.org/2000/svg" xmlns:xlink="http://www.w3.org/1999/xlink" x="0px" y="0px"
	 viewBox="0 0 48 43.8" style="enable-background:new 0 0 48 43.8;" xml:space="preserve">
<style type="text/css">
	.st0{fill:#68E817;}
</style>
<g>
	<path class="st0" d="M3,3.2C3.5,2.3,4.2,2,5.3,2s1.8,0.3,2.3,1.2c0.3,0.7,0.3,1.4,0.3,1.5c0,0.2,0,1.2,0.7,2.3
		c0.9,1.5,2.3,2.4,4.3,2.4s3.5-0.9,4.3-2.4c0.5-1.1,0.7-2.1,0.7-2.3l0,0c0,0,0-0.7,0.3-1.5C18.7,2.3,19.3,2,20.4,2s1.8,0.3,2.3,1.2
		C23,3.8,23,4.6,23,4.7c0,0.2,0,1.2,0.7,2.3C24.6,8.5,26,9.4,28,9.4s3.5-0.9,4.3-2.4c0.5-1.1,0.7-2.1,0.7-2.3l0,0c0,0,0-0.7,0.3-1.5
		C33.8,2.3,34.4,2,35.5,2s1.8,0.3,2.3,1.2c0.3,0.7,0.3,1.4,0.3,1.5c0,0.2,0,1.2,0.7,2.3c0.9,1.5,2.3,2.4,4.3,2.4s3.5-0.9,4.3-2.4
		C47.9,5.9,48,4.7,48,4.7h-2.1c0,0,0,0.7-0.3,1.4C45,7,44.4,7.3,43.3,7.3S41.3,7,41,6.1c-0.3-0.7-0.3-1.4-0.3-1.4
		c0-0.2,0-1.2-0.7-2.3C39.1,0.9,37.7,0,35.7,0c-2,0-3.4,0.9-4.3,2.4c-0.5,1.1-0.7,2.1-0.7,2.3l0,0c0,0,0,0.7-0.3,1.4
		c-0.5,0.9-1.2,1.2-2.3,1.2s-2-0.3-2.3-1.2c-0.3-0.7-0.3-1.4-0.3-1.4c0-0.2,0-1.2-0.7-2.3C24,0.9,22.6,0,20.6,0s-3.4,0.9-4.3,2.4
		c-0.5,1.1-0.7,2.1-0.7,2.3l0,0c0,0,0,0.7-0.3,1.4c-0.5,0.9-1.2,1.2-2.3,1.2c-1.1,0-2-0.3-2.3-1.2c-0.3-0.7-0.3-1.4-0.3-1.4
		c0-0.2,0-1.2-0.7-2.3C8.8,1,7.4,0.1,5.4,0.1S2.1,1,1.3,2.5C0.7,3.6,0.6,4.8,0.6,4.8h2.1C2.5,4.8,2.6,3.9,3,3.2z"/>
	<path class="st0" d="M45.5,17.6c-0.5,0.9-1.2,1.2-2.3,1.2s-2-0.3-2.3-1.2c-0.3-0.7-0.3-1.4-0.3-1.4c0-0.2,0-1.2-0.7-2.3
		c-0.9-1.5-2.3-2.4-4.3-2.4s-3.4,0.9-4.3,2.4c-0.5,1.1-0.7,2.1-0.7,2.3l0,0c0,0,0,0.7-0.3,1.4c-0.5,0.9-1.2,1.2-2.3,1.2
		s-2-0.3-2.3-1.2c-0.3-0.7-0.3-1.4-0.3-1.4c0-0.2,0-1.2-0.7-2.3c-0.9-1.5-2.3-2.4-4.3-2.4s-3.4,0.9-4.3,2.4
		c-0.5,1.1-0.7,2.1-0.7,2.3l0,0c0,0,0,0.7-0.3,1.4c-0.5,0.9-1.2,1.2-2.3,1.2c-1.1,0-2-0.3-2.3-1.2c-0.3-0.7-0.3-1.4-0.3-1.4
		c0-0.2,0-1.2-0.7-2.3c-0.9-1.5-2.3-2.4-4.3-2.4S2,12.4,1.2,13.9c-0.5,1.1-0.7,2.3-0.7,2.3h2.1c0,0,0-0.7,0.3-1.5
		c0.5-0.9,1.2-1.2,2.3-1.2s1.8,0.3,2.3,1.2c0.3,0.7,0.3,1.4,0.3,1.5c0,0.2,0,1.2,0.7,2.3c0.9,1.5,2.3,2.4,4.3,2.4s3.5-0.9,4.3-2.4
		c0.5-1.1,0.7-2.1,0.7-2.3l0,0c0,0,0-0.7,0.3-1.5c0.5-0.9,1.2-1.2,2.3-1.2s1.8,0.3,2.3,1.2c0.3,0.7,0.3,1.4,0.3,1.5
		c0,0.2,0,1.2,0.7,2.3c0.9,1.5,2.3,2.4,4.3,2.4s3.5-0.9,4.3-2.4c0.5-1.1,0.7-2.1,0.7-2.3l0,0c0,0,0-0.7,0.3-1.5
		c0.5-0.9,1.2-1.2,2.3-1.2c1.1,0,1.8,0.3,2.3,1.2c0.3,0.7,0.3,1.4,0.3,1.5c0,0.2,0,1.2,0.7,2.3c0.9,1.5,2.3,2.4,4.3,2.4
		c2,0,3.5-0.9,4.3-2.4c0.5-1.1,0.7-2.3,0.7-2.3h-2.1C46,16.1,45.9,17,45.5,17.6z"/>
	<path class="st0" d="M45.5,29.1c-0.5,0.9-1.2,1.2-2.3,1.2s-2-0.3-2.3-1.2c-0.3-0.7-0.3-1.4-0.3-1.4c0-0.2,0-1.2-0.7-2.3
		C39,23.9,37.6,23,35.6,23s-3.4,0.9-4.3,2.4c-0.5,1.1-0.7,2.1-0.7,2.3l0,0c0,0,0,0.7-0.3,1.4c-0.5,0.9-1.2,1.2-2.3,1.2
		s-2-0.3-2.3-1.2c-0.3-0.7-0.3-1.4-0.3-1.4c0-0.2,0-1.2-0.7-2.3c-0.9-1.5-2.3-2.4-4.3-2.4s-3.4,0.9-4.3,2.4
		c-0.5,1.1-0.7,2.1-0.7,2.3l0,0c0,0,0,0.7-0.3,1.4c-0.5,0.9-1.2,1.2-2.3,1.2c-1.1,0-2-0.3-2.3-1.2c-0.3-0.7-0.3-1.4-0.3-1.4
		c0-0.2,0-1.2-0.7-2.3C8.8,23.9,7.4,23,5.4,23S2,23.9,1.2,25.4c-0.5,1.1-0.7,2.3-0.7,2.3h2.1c0,0,0-0.7,0.3-1.5
		c0.5-1,1.3-1.3,2.4-1.3s1.8,0.3,2.3,1.2c0.3,0.7,0.3,1.4,0.3,1.5c0,0.1,0,1.2,0.7,2.3c0.9,1.5,2.3,2.4,4.3,2.4s3.5-0.9,4.3-2.4
		c0.5-1.1,0.7-2.1,0.7-2.3l0,0c0,0,0-0.7,0.3-1.5c0.5-0.9,1.2-1.2,2.3-1.2s1.8,0.3,2.3,1.2c0.3,0.7,0.3,1.4,0.3,1.5
		c0,0.1,0,1.2,0.7,2.3c0.9,1.5,2.3,2.4,4.3,2.4s3.5-0.9,4.3-2.4c0.5-1.1,0.7-2.1,0.7-2.3l0,0c0,0,0-0.7,0.3-1.5
		c0.5-0.9,1.2-1.2,2.3-1.2s1.8,0.3,2.3,1.2c0.3,0.7,0.3,1.4,0.3,1.5c0,0.1,0,1.2,0.7,2.3c0.9,1.5,2.3,2.4,4.3,2.4s3.5-0.9,4.3-2.4
		c0.5-1.1,0.7-2.3,0.7-2.3h-2.1C46,27.5,45.9,28.3,45.5,29.1z"/>
	<path class="st0" d="M45.5,40.5c-0.5,0.9-1.2,1.2-2.3,1.2s-2-0.3-2.3-1.2c-0.3-0.7-0.3-1.4-0.3-1.4c0-0.2,0-1.2-0.7-2.3
		c-0.9-1.5-2.3-2.4-4.3-2.4s-3.4,0.9-4.3,2.4c-0.5,1.1-0.7,2.1-0.7,2.3l0,0c0,0,0,0.7-0.3,1.4c-0.5,0.9-1.2,1.2-2.3,1.2
		s-2-0.3-2.3-1.2c-0.3-0.7-0.3-1.4-0.3-1.4c0-0.2,0-1.2-0.7-2.3c-0.9-1.5-2.3-2.4-4.3-2.4s-3.4,0.9-4.3,2.4
		c-0.5,1.1-0.7,2.1-0.7,2.3l0,0c0,0,0,0.7-0.3,1.4c-0.5,0.9-1.2,1.2-2.3,1.2c-1.1,0-2-0.3-2.3-1.2c-0.3-0.7-0.3-1.4-0.3-1.4
		c0-0.2,0-1.2-0.7-2.3c-0.9-1.5-2.3-2.4-4.3-2.4S2,35.2,1.2,36.8c-0.5,1.1-0.7,2.3-0.7,2.3h2.1c0,0,0-0.7,0.3-1.5
		c0.5-0.9,1.2-1.2,2.3-1.2s1.8,0.3,2.3,1.2c0.3,0.7,0.3,1.4,0.3,1.5c0,0.2,0,1.2,0.7,2.3c0.9,1.5,2.3,2.4,4.3,2.4s3.5-0.9,4.3-2.4
		c0.5-1.1,0.7-2.1,0.7-2.3l0,0c0,0,0-0.7,0.3-1.5c0.5-0.9,1.2-1.2,2.3-1.2s1.8,0.3,2.3,1.2c0.3,0.7,0.3,1.4,0.3,1.5
		c0,0.2,0,1.2,0.7,2.3c0.9,1.5,2.3,2.4,4.3,2.4s3.5-0.9,4.3-2.4c0.5-1.1,0.7-2.1,0.7-2.3l0,0c0,0,0-0.7,0.3-1.5
		c0.5-0.9,1.2-1.2,2.3-1.2c1.1,0,1.8,0.3,2.3,1.2C38,38.2,38,39,38,39.1c0,0.2,0,1.2,0.7,2.3c0.9,1.5,2.3,2.4,4.3,2.4
		c2,0,3.5-0.9,4.3-2.4c0.5-1.1,0.7-2.3,0.7-2.3h-2.1C46,39,45.9,39.8,45.5,40.5z"/>
</g>
</svg>
