<?xml version="1.0" encoding="utf-8"?>
<!-- Generator: Adobe Illustrator 21.1.0, SVG Export Plug-In . SVG Version: 6.00 Build 0)  -->
<svg version="1.1" id="Capa_1" xmlns="http://www.w3.org/2000/svg" xmlns:xlink="http://www.w3.org/1999/xlink" x="0px" y="0px"
	 viewBox="0 0 406 306" style="enable-background:new 0 0 406 306;" xml:space="preserve">
<style type="text/css">
	.st0{fill:#C5FF26;}
	.st1{fill:#093F68;}
	.st2{fill:#FFFFFF;}
	.st3{fill:#FF7A19;}
	.st4{fill:#DFEAEF;}
	.st5{fill:#B50DFF;}
	.st6{fill:#FFC9B0;}
	.st7{fill:#68E817;}
	.st8{fill:#70CC40;}
</style>
<g id="_77_marketing_outline">
	<path class="st0" d="M162.6,82.3h74.6c5.7,0,10.3,4.6,10.3,10.3v134.7c0,5.7-4.6,10.3-10.3,10.3h-74.6c-5.7,0-10.3-4.6-10.3-10.3
		V92.7C152.2,87,156.9,82.3,162.6,82.3z"/>
	<path class="st1" d="M237.1,238.8h-74.6c-6.3,0-11.3-5.1-11.3-11.4V92.7c0-6.3,5.1-11.4,11.4-11.4h74.6c6.3,0,11.4,5.1,11.4,11.4
		v134.7C248.5,233.7,243.4,238.8,237.1,238.8C237.1,238.8,237.1,238.8,237.1,238.8z M162.6,83.4c-5.1,0-9.3,4.2-9.3,9.3v134.7
		c0,5.1,4.2,9.3,9.3,9.3h74.6c5.2,0,9.3-4.2,9.3-9.3V92.7c0-5.2-4.2-9.3-9.3-9.3H162.6z"/>
	<rect x="152.2" y="95.3" class="st2" width="95.3" height="118.9"/>
	<path class="st1" d="M247.5,215.3h-95.2c-0.6,0-1-0.5-1-1V95.3c0-0.6,0.5-1,1-1h95.3c0.6,0,1,0.5,1,1v118.9
		C248.5,214.8,248.1,215.3,247.5,215.3C247.5,215.3,247.5,215.3,247.5,215.3z M153.2,213.2h93.2V96.3h-93.2L153.2,213.2z"/>
	<path class="st1" d="M209.9,90.1h-15.3c-0.6,0-1-0.5-1-1s0.5-1,1-1h15.3c0.6,0,1,0.5,1,1S210.4,90.1,209.9,90.1z"/>
	<path class="st1" d="M189.8,90.1c-0.3,0-0.5-0.1-0.7-0.3c-0.3-0.3-0.4-0.7-0.2-1.1c0.1-0.1,0.1-0.2,0.2-0.3
		c0.1-0.1,0.2-0.2,0.3-0.2c0.2-0.1,0.4-0.1,0.6-0.1c0.1,0,0.1,0,0.2,0.1c0.1,0,0.1,0.1,0.2,0.1c0.1,0,0.1,0.1,0.2,0.1
		c0.1,0.1,0.2,0.2,0.2,0.3c0.2,0.5,0,1.1-0.6,1.3C190.1,90,189.9,90.1,189.8,90.1z"/>
	<circle class="st1" cx="199.9" cy="225.5" r="4.9"/>
	<path class="st3" d="M131.1,168.5H166c1.9,0,3.4,1.5,3.4,3.4v24.9c0,1.9-1.5,3.4-3.4,3.4h-34.9c-1.9,0-3.4-1.5-3.4-3.4v-24.9
		C127.7,170,129.2,168.5,131.1,168.5z"/>
	<path class="st1" d="M166,201.2h-34.9c-2.4,0-4.4-2-4.4-4.4v-24.9c0-2.4,2-4.4,4.4-4.4H166c2.4,0,4.4,2,4.4,4.4v24.9
		C170.4,199.2,168.4,201.2,166,201.2L166,201.2z M131.1,169.5c-1.3,0-2.4,1.1-2.4,2.4v24.9c0,1.3,1.1,2.4,2.4,2.4l0,0H166
		c1.3,0,2.4-1.1,2.4-2.4l0,0v-24.9c0-1.3-1.1-2.4-2.4-2.4l0,0L131.1,169.5z"/>
	<polygon class="st2" points="157.4,184.3 142.5,193.4 142.5,175.2 	"/>
	<path class="st1" d="M142.5,194.5c-0.6,0-1-0.5-1-1v-18.3c0-0.6,0.4-1,1-1c0.2,0,0.4,0.1,0.6,0.2l14.8,9.1c0.3,0.2,0.5,0.5,0.5,0.9
		c0,0.4-0.2,0.7-0.5,0.9l-14.8,9.1C142.9,194.4,142.7,194.5,142.5,194.5z M143.6,177v14.6l11.9-7.3L143.6,177z"/>
	<path class="st2" d="M262.1,182.4h-23.8c-1.4,0-2.4,1.1-2.4,2.4l0,0V201c0,1.4,1.1,2.4,2.4,2.4l0,0h3.2v5.4l4.3-5.4h16.4
		c1.4,0,2.4-1.1,2.4-2.4l0,0v-16.1C264.6,183.6,263.5,182.5,262.1,182.4C262.1,182.4,262.1,182.4,262.1,182.4z"/>
	<path class="st1" d="M241.5,210c-0.1,0-0.2,0-0.3-0.1c-0.4-0.1-0.7-0.5-0.7-1v-4.4h-2.2c-1.9,0-3.5-1.5-3.5-3.5l0,0v-16.2
		c0-1.9,1.5-3.5,3.5-3.5l0,0h23.8c1.9,0,3.5,1.5,3.5,3.5l0,0v16.2c0,1.9-1.5,3.5-3.5,3.5l0,0h-15.9l-4,5
		C242.1,209.8,241.8,210,241.5,210z M238.3,183.4c-0.8,0-1.4,0.6-1.4,1.4l0,0V201c0,0.8,0.6,1.4,1.4,1.4l0,0h3.2c0.6,0,1,0.5,1,1
		v2.5l2.5-3.1c0.2-0.2,0.5-0.4,0.8-0.4h16.4c0.8,0,1.4-0.6,1.4-1.4l0,0v-16.1c0-0.8-0.6-1.4-1.4-1.4l0,0L238.3,183.4z"/>
	<path class="st4" d="M258.5,190.6h-16.7c-0.6,0-1-0.5-1-1s0.5-1,1-1h16.7c0.6,0,1,0.5,1,1S259.1,190.6,258.5,190.6z"/>
	<path class="st4" d="M254,196.5h-12.2c-0.6,0-1-0.5-1-1s0.5-1,1-1H254c0.6,0,1,0.5,1,1S254.6,196.5,254,196.5z"/>
	<path class="st5" d="M244.3,140.1h28.7c1.9,0,3.4,1.5,3.4,3.4v20.9c0,1.9-1.5,3.4-3.4,3.4h-28.7c-1.9,0-3.4-1.5-3.4-3.4v-20.9
		C240.9,141.7,242.4,140.1,244.3,140.1z"/>
	<path class="st1" d="M273,169h-28.7c-2.5,0-4.5-2-4.5-4.4v-20.9c0-2.5,2-4.5,4.5-4.5H273c2.5,0,4.5,2,4.5,4.5v20.9
		C277.5,167,275.5,169,273,169z M244.3,141.1c-1.3,0-2.4,1.1-2.4,2.4v20.9c0,1.3,1.1,2.4,2.4,2.4H273c1.3,0,2.4-1.1,2.4-2.4v-20.9
		c0-1.3-1.1-2.4-2.4-2.4l0,0H244.3z"/>
	<g id="SBwUh1">
		<path class="st2" d="M263.8,155.8v-5.6c0-0.5-0.2-0.7-0.7-0.5c-0.7,0.2-1.3,0.4-2,0.6l-2.8,0.9c-0.7,0.2-1.5,0.4-2.2,0.7
			c-0.2,0.1-0.4,0.2-0.6,0.4c-0.2,0.2-0.3,0.5-0.3,0.7c0,2.2,0,4.4,0,6.6c0.1,1.2-0.5,2.3-1.6,2.9c-1,0.7-2.3,0.9-3.5,0.5
			c-1.1-0.3-1.8-1.5-1.5-2.6c0-0.2,0.1-0.3,0.2-0.5c0.4-0.8,1.1-1.5,1.9-1.8c0.6-0.3,1.3-0.4,2-0.4c0.4,0,0.8,0.1,1.1,0.2v-0.2
			c0-2.6,0-5.3,0-7.9c0-1.1,0.7-2.1,1.8-2.4c1.7-0.5,3.3-1,5-1.5l2.7-0.8c0.3-0.1,0.7-0.1,1,0c0.5,0.1,0.8,0.5,0.9,1
			c0,0.1,0,0.3,0,0.4c0,3.8,0,7.6,0,11.3c0,0.9-0.4,1.7-1,2.3c-0.9,0.8-2.1,1.1-3.3,1c-0.6,0-1.3-0.3-1.7-0.7
			c-0.5-0.5-0.8-1.2-0.7-1.9c0.1-0.8,0.6-1.5,1.2-1.9c0.9-0.7,2-1,3.1-0.9C263.1,155.7,263.4,155.7,263.8,155.8L263.8,155.8z"/>
	</g>
	<path class="st6" d="M216.8,139.5c-8.3-4.3-32.4,19.1-33.8,26.3c-0.8,4.1-3.2,28.8-2.8,48.3h39.5l-3.3-28.7c0,0,16-14.2,18.6-21.8
		C237.5,155.9,225.1,143.9,216.8,139.5z"/>
	<path class="st1" d="M219.6,215.1h-39.5c-0.6,0-1-0.5-1-1c-0.3-19.5,2-44.3,2.9-48.5c1.4-6.8,17.3-21.7,26.2-25.9
		c3.9-1.8,7-2.2,9.1-1.1l0,0c7.9,4.1,21.6,16.7,18.7,25.3c-2.5,7.2-16,19.6-18.5,21.9l3.2,28.2c0,0.3-0.1,0.6-0.3,0.8
		C220.1,214.9,219.9,215.1,219.6,215.1z M181.1,213h37.3l-3.1-27.6c0-0.3,0.1-0.7,0.3-0.9c0.2-0.1,15.9-14.2,18.4-21.4
		c2.3-6.6-9.1-18.4-17.7-22.8l0,0c-1.6-0.8-4.1-0.4-7.3,1.1c-10.4,5-24.1,19.6-25.1,24.5C183.1,170.1,180.9,193.9,181.1,213z"/>
	<polygon class="st1" points="234.7,174.6 222.3,182.5 188.1,145.5 200.6,137.6 	"/>
	<path class="st1" d="M222.3,183.5c-0.3,0-0.6-0.1-0.8-0.3l-34.1-37c-0.2-0.2-0.3-0.5-0.3-0.8c0-0.3,0.2-0.6,0.5-0.7l12.4-7.8
		c0.4-0.3,1-0.2,1.3,0.2l34.2,37c0.2,0.2,0.3,0.5,0.3,0.8c0,0.3-0.2,0.6-0.5,0.7l-12.4,7.9C222.7,183.5,222.5,183.5,222.3,183.5z
		 M189.7,145.7l32.7,35.5l10.7-6.8l-32.7-35.5L189.7,145.7z"/>
	<path class="st1" d="M252.9,94.3l-23.3,18.9l-12.5-19.8l27.1-13c3.8-1.8,8.3-0.5,10.6,3l0,0C256.9,87,256.2,91.6,252.9,94.3z"/>
	<path class="st1" d="M229.6,114.2h-0.2c-0.3,0-0.5-0.2-0.7-0.5L216.2,94c-0.2-0.2-0.2-0.5-0.1-0.8c0.1-0.3,0.3-0.5,0.5-0.6l27.1-13
		c4.6-2.2,10.2-0.3,12.4,4.3c1.9,3.9,0.8,8.5-2.5,11.3l0,0L230.2,114C230,114.1,229.8,114.2,229.6,114.2z M218.5,93.9l11.3,17.8
		l22.4-18.2l0,0c3.1-2.5,3.7-7,1.2-10.2c-2.1-2.7-5.8-3.5-8.9-2L218.5,93.9z M252.9,94.3L252.9,94.3z"/>
	<polygon class="st2" points="265.1,123.1 219.7,133 194.9,93.9 223.3,57.1 	"/>
	<path class="st1" d="M219.7,134c-0.4,0-0.7-0.2-0.9-0.5l-24.8-39.1c-0.2-0.4-0.2-0.8,0.1-1.2l28.3-36.7c0.2-0.3,0.5-0.4,0.9-0.4
		c0.3,0,0.6,0.2,0.8,0.5l41.8,65.9c0.3,0.5,0.2,1.1-0.3,1.4c-0.1,0.1-0.2,0.1-0.3,0.1L220,134L219.7,134z M196.2,94l24.1,37.9
		l43.2-9.5l-40.3-63.5L196.2,94z"/>
	<path class="st0" d="M161.1,115.2l33.7-21.4l0,0l24.9,39.3l0,0l-33.7,21.4c-10.9,6.9-25.2,3.7-32.1-7.2l0,0l0,0
		C147,136.4,150.3,122.1,161.1,115.2L161.1,115.2L161.1,115.2z"/>
	<path class="st1" d="M173.6,159.1c-13.4,0-24.3-10.8-24.3-24.3c0-8.3,4.2-16.1,11.3-20.6l0.5,0.9l-0.5-0.9l33.7-21.4
		c0.5-0.3,1.1-0.2,1.4,0.3c0,0,0,0,0,0l24.9,39.3c0.1,0.2,0.2,0.5,0.1,0.8c-0.1,0.3-0.2,0.5-0.4,0.6l-33.7,21.4
		C182.7,157.8,178.2,159.1,173.6,159.1z M194.6,95.2L161.7,116c-10.4,6.6-13.5,20.3-6.9,30.7c6.6,10.4,20.3,13.5,30.7,6.9l0,0
		l32.9-20.8L194.6,95.2z"/>
	<path class="st6" d="M188.5,157.4c0,0,8.6-12.8,15.7-7.8c7.1,5,20.8,18,15.1,19.9c-9,2.9-17.1-8.5-17.1-8.5s6.1,12.2-1.4,17.7"/>
	<path class="st1" d="M200.8,179.7c-0.3,0-0.6-0.2-0.8-0.4c-0.3-0.4-0.2-1.1,0.2-1.4c6.7-5,1.1-16.3,1-16.5c-0.2-0.5,0-1.1,0.6-1.3
		c0.4-0.2,0.9,0,1.2,0.3c0.1,0.1,7.8,10.8,15.9,8.1c0.6-0.2,0.6-0.5,0.6-0.6c0.5-3-9.3-12.8-16-17.5c-1.1-0.8-2.6-1.2-4-0.9
		c-5.2,0.9-10.2,8.3-10.3,8.4c-0.3,0.5-0.9,0.6-1.4,0.3s-0.6-0.9-0.3-1.4c0.2-0.3,5.6-8.1,11.6-9.2c1.9-0.4,3.9,0.1,5.5,1.2
		c4.6,3.2,17.6,14.3,16.8,19.4c-0.2,1.1-1,2-2,2.2c-5.9,1.9-11.3-1.7-14.7-4.9c1.1,4.3,1.4,10.4-3.5,14
		C201.2,179.7,201,179.7,200.8,179.7z"/>
	<path class="st1" d="M174.2,154.1c-0.6,0-1-0.4-1-1c0-0.3,0.2-0.7,0.5-0.9l14.3-9.3c0.4-0.3,1.1-0.3,1.4,0.2
		c0.3,0.4,0.3,1.1-0.2,1.4c0,0-0.1,0.1-0.1,0.1l-14.3,9.3C174.6,154,174.4,154.1,174.2,154.1z"/>
	<path class="st1" d="M169.6,147.5c-0.3,0-0.7-0.2-0.9-0.5c-0.3-0.5-0.2-1.1,0.3-1.4l14.3-9.3c0.5-0.3,1.1-0.2,1.4,0.3c0,0,0,0,0,0
		c0.3,0.5,0.2,1.1-0.3,1.4l-14.3,9.3C170,147.4,169.8,147.5,169.6,147.5z"/>
	<path class="st7" d="M138.1,73.9h29c1.9,0,3.5,1.6,3.5,3.5v19c0,1.9-1.6,3.5-3.5,3.5h-29c-1.9,0-3.5-1.6-3.5-3.5v-19
		C134.6,75.5,136.1,73.9,138.1,73.9z"/>
	<path class="st1" d="M167,100.9h-29c-2.5,0-4.5-2-4.5-4.5v-19c0-2.5,2-4.5,4.5-4.5h29c2.5,0,4.5,2,4.5,4.5c0,0,0,0,0,0v19
		C171.5,98.9,169.5,100.9,167,100.9C167,100.9,167,100.9,167,100.9z M138,74.9c-1.4,0-2.5,1.1-2.5,2.5c0,0,0,0,0,0v19
		c0,1.4,1.1,2.5,2.5,2.5h29c1.4,0,2.5-1.1,2.5-2.4c0,0,0,0,0,0v-19c0-1.4-1.1-2.5-2.5-2.5c0,0,0,0,0,0L138,74.9z"/>
	<path class="st1" d="M134.6,94.9c-0.3,0-0.6-0.1-0.8-0.3c-0.4-0.4-0.3-1.1,0.1-1.4l13.7-12c0.4-0.4,1-0.4,1.4,0l12,12
		c0.4,0.4,0.4,1,0,1.4c-0.4,0.4-1,0.4-1.4,0l-11.3-11.3l-13,11.4C135.1,94.8,134.8,94.9,134.6,94.9z"/>
	<path class="st1" d="M170.5,91.8c-0.3,0-0.5-0.1-0.7-0.3l-6.3-6.2l-5.8,5.7c-0.4,0.4-1,0.4-1.4,0s-0.4-1,0-1.4l0,0l6.5-6.4
		c0.4-0.4,1-0.4,1.4,0l7,6.9c0.4,0.4,0.4,1,0,1.4C171,91.7,170.8,91.8,170.5,91.8z"/>
	<circle class="st8" cx="157" cy="80" r="2.5"/>
	<path class="st1" d="M157,83.6c-2,0-3.6-1.6-3.6-3.6s1.6-3.6,3.6-3.6c2,0,3.6,1.6,3.6,3.6l0,0C160.5,82,158.9,83.6,157,83.6z
		 M157,78.5c-0.8,0-1.5,0.7-1.5,1.5c0,0.8,0.7,1.5,1.5,1.5c0.8,0,1.5-0.7,1.5-1.5l0,0C158.5,79.2,157.8,78.5,157,78.5
		C157,78.5,157,78.5,157,78.5L157,78.5z"/>
	<path class="st4" d="M244.4,62.2c-0.6,0-1-0.4-1-1c0-0.2,0-0.3,0.1-0.5l6.6-13.3c0.3-0.5,0.9-0.7,1.4-0.5c0.5,0.3,0.7,0.9,0.5,1.4
		l-6.6,13.2C245.1,62,244.8,62.2,244.4,62.2z"/>
	<path class="st4" d="M282.4,106.6L282.4,106.6l-14.7-1.2c-0.6,0-1-0.5-0.9-1.1s0.5-1,1.1-0.9l0,0l14.7,1.2c0.6,0,1,0.5,0.9,1.1
		C283.3,106.2,282.9,106.6,282.4,106.6z"/>
	<path class="st4" d="M262.8,79.6c-0.6,0-1-0.4-1-1c0-0.4,0.2-0.7,0.5-0.9l9.3-5.4c0.5-0.3,1.1-0.1,1.4,0.4c0.3,0.5,0.1,1.1-0.4,1.4
		l-9.3,5.3C263.2,79.5,263,79.6,262.8,79.6z"/>
</g>
</svg>
