<?xml version="1.0" encoding="utf-8"?>
<!-- Generator: Adobe Illustrator 21.1.0, SVG Export Plug-In . SVG Version: 6.00 Build 0)  -->
<svg version="1.1" id="Capa_1" xmlns="http://www.w3.org/2000/svg" xmlns:xlink="http://www.w3.org/1999/xlink" x="0px" y="0px"
	 viewBox="0 0 406 306" style="enable-background:new 0 0 406 306;" xml:space="preserve">
<style type="text/css">
	.st0{fill:#FFFFFF;}
	.st1{fill:#093F68;}
	.st2{fill:#68E1FD;}
	.st3{fill:#DFEAEF;}
	.st4{fill:#C5FF26;}
	.st5{fill:#FF7A19;}
	.st6{fill:#B50DFF;}
	.st7{fill:#FFE219;}
	.st8{fill:#2500FF;}
</style>
<g id="_209_polaroid_outline">
	<path class="st0" d="M128.5,66.4h149c2.9,0,5.4,2.3,5.6,5.2l5.8,74.8H117.1l5.8-74.8C123.1,68.7,125.6,66.4,128.5,66.4z"/>
	<path class="st1" d="M288.9,147.4H117.1c-0.3,0-0.5-0.1-0.7-0.3c-0.2-0.2-0.3-0.5-0.3-0.8l5.8-74.8c0.3-3.4,3.2-6.1,6.6-6.1h149
		c3.5,0,6.3,2.7,6.6,6.1l5.8,74.8c0,0.3-0.1,0.6-0.3,0.8C289.5,147.3,289.2,147.4,288.9,147.4z M118.2,145.4h169.6l-5.7-73.7
		c-0.2-2.4-2.2-4.3-4.6-4.3h-149c-2.4,0-4.4,1.9-4.6,4.3L118.2,145.4z"/>
	<path class="st0" d="M292.5,166.6l-0.5,7.9l-2.3,34.5c-0.4,6.2-5.5,11-11.7,11H128c-6.2,0-11.3-4.8-11.7-10.9l-2.3-34.5l-0.5-7.9
		l3.6-20.2h171.9L292.5,166.6z"/>
	<path class="st1" d="M278,221H128c-6.7,0-12.2-5.2-12.7-11.9l-2.9-42.4c0-0.1,0-0.2,0-0.2l3.6-20.2c0.1-0.5,0.5-0.8,1-0.8h171.9
		c0.5,0,0.9,0.3,1,0.8l3.6,20.2c0,0.1,0,0.2,0,0.2l-2.9,42.4C290.2,215.8,284.6,221,278,221z M114.5,166.7l2.8,42.3
		c0.4,5.6,5,10,10.7,10H278c5.6,0,10.3-4.4,10.7-10l2.8-42.3l-3.4-19.2H117.9L114.5,166.7z"/>
	<path class="st1" d="M292,174.5l-2.3,34.5c-0.4,6.2-5.5,11-11.7,11H128c-6.2,0-11.3-4.8-11.7-10.9l-2.3-34.5L292,174.5z"/>
	<path class="st1" d="M278,221H128c-6.7,0-12.2-5.2-12.7-11.9l-2.3-34.5c0-0.3,0.1-0.6,0.3-0.8c0.2-0.2,0.5-0.3,0.7-0.3H292
		c0.3,0,0.5,0.1,0.7,0.3c0.2,0.2,0.3,0.5,0.3,0.8l-2.3,34.5C290.2,215.8,284.6,221,278,221z M115.1,175.5l2.3,33.4
		c0.4,5.6,5,10,10.7,10H278c5.6,0,10.3-4.4,10.7-10l2.3-33.4L115.1,175.5z"/>
	<path class="st2" d="M131.4,183.2h143.2c2.3,0,4.1,1.8,4.1,4.1l0,0c0,2.3-1.8,4.1-4.1,4.1H131.4c-2.3,0-4.1-1.8-4.1-4.1l0,0
		C127.3,185,129.1,183.2,131.4,183.2z"/>
	<path class="st1" d="M274.6,192.4H131.4c-2.8,0-5.1-2.3-5.1-5.1s2.3-5.1,5.1-5.1c0,0,0,0,0,0h143.2c2.8,0,5.1,2.3,5.1,5.1
		C279.8,190.1,277.5,192.4,274.6,192.4C274.6,192.4,274.6,192.4,274.6,192.4z M131.4,184.2c-1.7,0-3.1,1.4-3.1,3.1
		c0,1.7,1.4,3.1,3.1,3.1c0,0,0,0,0,0h143.2c1.7,0,3.1-1.4,3.1-3.1c0-1.7-1.4-3.1-3.1-3.1c0,0,0,0,0,0H131.4z"/>
	<path class="st0" d="M248.6,74.7H272c1.6,0,2.9,1.3,2.9,2.9v23.4c0,1.6-1.3,2.9-2.9,2.9h-23.4c-1.6,0-2.9-1.3-2.9-2.9V77.5
		C245.8,75.9,247,74.7,248.6,74.7z"/>
	<path class="st1" d="M271.9,104.7h-23.3c-2.1,0-3.9-1.7-3.9-3.9V77.5c0-2.1,1.7-3.9,3.9-3.9h23.3c2.1,0,3.9,1.7,3.9,3.9v23.3
		C275.8,103,274.1,104.7,271.9,104.7z M248.6,75.7c-1,0-1.8,0.8-1.8,1.8v23.3c0,1,0.8,1.8,1.8,1.8h23.3c1,0,1.8-0.8,1.8-1.8V77.5
		c0-1-0.8-1.8-1.8-1.8H248.6z"/>
	<path class="st3" d="M260.3,100.9c-6.5,0-11.7-5.3-11.7-11.7c0-6.5,5.3-11.7,11.7-11.7c6.5,0,11.7,5.3,11.7,11.7
		C272,95.7,266.8,100.9,260.3,100.9z M260.3,79.5c-5.3,0-9.7,4.4-9.7,9.7c0,5.3,4.4,9.7,9.7,9.7c5.3,0,9.7-4.4,9.7-9.7
		C270,83.8,265.6,79.5,260.3,79.5C260.3,79.5,260.3,79.5,260.3,79.5z"/>
	<circle class="st4" cx="260.3" cy="128.8" r="8.4"/>
	<path class="st1" d="M260.3,138.2c-5.2,0-9.4-4.2-9.4-9.4c0-5.2,4.2-9.4,9.4-9.4s9.4,4.2,9.4,9.4v0
		C269.7,134,265.5,138.2,260.3,138.2z M260.3,121.4c-4.1,0-7.4,3.3-7.4,7.4c0,4.1,3.3,7.4,7.4,7.4c4.1,0,7.4-3.3,7.4-7.4
		c0,0,0,0,0,0C267.7,124.7,264.4,121.4,260.3,121.4z"/>
	<circle class="st5" cx="146.4" cy="124.9" r="12.3"/>
	<path class="st1" d="M146.4,138.2c-7.3,0-13.3-5.9-13.3-13.3c0-7.3,5.9-13.3,13.3-13.3c7.3,0,13.3,5.9,13.3,13.3c0,0,0,0,0,0
		C159.7,132.3,153.8,138.2,146.4,138.2z M146.4,113.7c-6.2,0-11.3,5-11.3,11.3c0,6.2,5,11.3,11.3,11.3s11.3-5,11.3-11.3c0,0,0,0,0,0
		C157.7,118.7,152.7,113.7,146.4,113.7z"/>
	<path class="st4" d="M132.3,89.2h25.3c1.8,0,3.3,1.5,3.3,3.3v5.1c0,1.8-1.5,3.3-3.3,3.3h-25.3c-1.8,0-3.3-1.5-3.3-3.3v-5.1
		C129,90.7,130.5,89.2,132.3,89.2z"/>
	<path class="st1" d="M157.7,102h-25.4c-2.4,0-4.3-1.9-4.3-4.3v-5.1c0-2.4,1.9-4.3,4.3-4.3h25.4c2.4,0,4.3,1.9,4.3,4.3v5.1
		C162,100.1,160.1,102,157.7,102z M132.3,90.2c-1.3,0-2.3,1-2.3,2.3v5.1c0,1.3,1,2.3,2.3,2.3h25.4c1.3,0,2.3-1,2.3-2.3v-5.1
		c0-1.3-1-2.3-2.3-2.3H132.3z"/>
	<path class="st6" d="M181.2,55.1h43.5c2.2,0,4.2,1.2,5.3,3.2l4.3,8.1h-62.6l4.3-8.1C177,56.3,179,55.1,181.2,55.1z"/>
	<path class="st1" d="M234.3,67.4h-62.6c-0.6,0-1-0.4-1-1c0-0.2,0-0.3,0.1-0.5l4.3-8.1c1.2-2.3,3.6-3.7,6.2-3.7h43.5
		c2.6,0,5,1.4,6.2,3.7l4.3,8.1c0.3,0.5,0.1,1.1-0.4,1.4C234.6,67.4,234.5,67.4,234.3,67.4z M173.4,65.4h59.2l-3.5-6.7
		c-0.9-1.6-2.5-2.6-4.4-2.6h-43.5c-1.8,0-3.5,1-4.4,2.6L173.4,65.4z"/>
	<polygon class="st0" points="281.7,250.9 124.3,250.9 138.6,183.2 267.4,183.2 	"/>
	<path class="st1" d="M281.7,252H124.3c-0.3,0-0.6-0.1-0.8-0.4c-0.2-0.2-0.3-0.5-0.2-0.8l14.2-67.8c0.1-0.5,0.5-0.8,1-0.8h128.8
		c0.5,0,0.9,0.3,1,0.8l14.2,67.8c0.1,0.3,0,0.6-0.2,0.8C282.2,251.8,281.9,252,281.7,252z M125.6,249.9h154.8l-13.8-65.7H139.4
		L125.6,249.9z"/>
	<polygon class="st5" points="264.5,235.1 141.5,235.1 150.4,183.2 255.6,183.2 	"/>
	<path class="st1" d="M264.5,236.1h-123c-0.6,0-1-0.4-1-1c0-0.1,0-0.1,0-0.2l8.9-51.9c0.1-0.5,0.5-0.8,1-0.8h105.2
		c0.5,0,0.9,0.4,1,0.8l8.9,51.9c0.1,0.6-0.3,1.1-0.8,1.2C264.6,236.1,264.6,236.1,264.5,236.1L264.5,236.1z M142.7,234h120.6
		l-8.5-49.8H151.2L142.7,234z"/>
	<path class="st1" d="M188.9,222.5c-0.2,0-0.4-0.1-0.5-0.2l-40.6-25.9c-0.5-0.3-0.6-0.9-0.3-1.4c0.3-0.5,0.9-0.6,1.4-0.3l40,25.5
		l35.4-31c0.4-0.4,1.1-0.3,1.4,0.1c0.4,0.4,0.3,1.1-0.1,1.4l0,0l-36,31.5C189.4,222.5,189.1,222.6,188.9,222.5z"/>
	<path class="st1" d="M238.6,214.7c-0.2,0-0.4-0.1-0.6-0.2l-22.2-16.2c-0.5-0.3-0.6-0.9-0.3-1.4c0.3-0.5,0.9-0.6,1.4-0.3
		c0,0,0.1,0,0.1,0.1l21.6,15.7l18.4-18.2c0.4-0.4,1-0.4,1.4,0c0.4,0.4,0.4,1,0,1.4c0,0,0,0,0,0l-19,18.8
		C239.1,214.6,238.9,214.7,238.6,214.7z"/>
	<path class="st7" d="M226.8,218.4c0.3,3.6-2.7,6.5-6.7,6.5s-7.2-3-7.3-6.5c-0.1-3.6,2.9-6.3,6.7-6.3
		C223.3,212.1,226.5,214.9,226.8,218.4z"/>
	<path class="st1" d="M220.1,225.9c-4.5,0-8.2-3.4-8.3-7.5c-0.1-1.9,0.7-3.7,2-5c1.5-1.5,3.6-2.4,5.8-2.4c4.3,0,8,3.2,8.3,7.2
		c0.1,1.9-0.5,3.8-1.8,5.2C224.4,225.1,222.3,225.9,220.1,225.9z M219.5,213.1c-1.6,0-3.2,0.6-4.3,1.7c-0.9,0.9-1.4,2.2-1.4,3.5
		c0.1,3,2.9,5.5,6.3,5.5c1.6,0,3.2-0.6,4.4-1.8c0.9-1,1.4-2.3,1.3-3.6l0,0C225.6,215.5,222.7,213.1,219.5,213.1L219.5,213.1z"/>
	<rect x="184.7" y="123.5" class="st5" width="9.1" height="51"/>
	<path class="st1" d="M193.9,175.5h-9.1c-0.6,0-1-0.5-1-1v-50.9c0-0.6,0.5-1,1-1h9.1c0.6,0,1,0.5,1,1v51
		C194.9,175.1,194.4,175.5,193.9,175.5z M185.7,173.5h7.1v-48.9h-7.1V173.5z"/>
	<rect x="193.9" y="123.5" class="st7" width="9.1" height="51"/>
	<path class="st1" d="M203,175.5h-9.1c-0.6,0-1-0.5-1-1v-50.9c0-0.6,0.5-1,1-1h9.1c0.6,0,1,0.5,1,1v51
		C204,175.1,203.6,175.5,203,175.5z M194.9,173.5h7.1v-48.9h-7.1V173.5z"/>
	<rect x="203" y="123.5" class="st4" width="9.1" height="51"/>
	<path class="st1" d="M212.1,175.5H203c-0.6,0-1-0.5-1-1v-50.9c0-0.6,0.5-1,1-1h9.1c0.6,0,1,0.5,1,1v51
		C213.1,175.1,212.7,175.5,212.1,175.5z M204,173.5h7.1v-48.9H204V173.5z"/>
	<rect x="212.1" y="123.5" class="st8" width="9.1" height="51"/>
	<path class="st1" d="M221.3,175.5h-9.1c-0.6,0-1-0.5-1-1v-50.9c0-0.6,0.5-1,1-1h9.1c0.6,0,1,0.5,1,1v51
		C222.3,175.1,221.8,175.5,221.3,175.5z M213.1,173.5h7.1v-48.9h-7.1V173.5z"/>
	<path class="st1" d="M221.3,147.4h-36.5c-0.6,0-1-0.5-1-1s0.5-1,1-1h36.5c0.6,0,1,0.5,1,1S221.8,147.4,221.3,147.4z"/>
	<circle class="st4" cx="203" cy="103.7" r="31.3"/>
	<path class="st1" d="M203,136c-17.8,0-32.3-14.5-32.3-32.3s14.5-32.3,32.3-32.3c17.8,0,32.3,14.5,32.3,32.3
		C235.3,121.5,220.8,135.9,203,136z M203,73.4c-16.7,0-30.3,13.6-30.3,30.3s13.6,30.3,30.3,30.3s30.3-13.6,30.3-30.3
		C233.3,86.9,219.7,73.4,203,73.4z"/>
	<circle class="st1" cx="203" cy="103.7" r="19.9"/>
	<path class="st1" d="M203,124.6c-11.5,0-20.9-9.4-20.9-20.9c0-11.5,9.4-20.9,20.9-20.9s20.9,9.4,20.9,20.9c0,0,0,0,0,0
		C223.9,115.2,214.5,124.6,203,124.6z M203,84.8c-10.4,0-18.9,8.4-18.9,18.9c0,10.4,8.4,18.9,18.9,18.9c10.4,0,18.9-8.4,18.9-18.9
		c0,0,0,0,0,0C221.9,93.3,213.4,84.8,203,84.8L203,84.8z"/>
	<path class="st0" d="M195.1,91.8c-0.6,0-1-0.5-1-1c0-0.3,0.2-0.7,0.5-0.9c1.6-1,3.3-1.7,5.1-2c0.5-0.1,1.1,0.2,1.2,0.8c0,0,0,0,0,0
		c0.1,0.5-0.2,1.1-0.8,1.2c-1.6,0.3-3,0.9-4.4,1.8C195.5,91.8,195.3,91.8,195.1,91.8z"/>
	<path class="st0" d="M188.9,110c-0.4,0-0.8-0.3-1-0.7c-2-5.4-1-11.4,2.6-15.8c0.4-0.4,1-0.5,1.4-0.1c0.4,0.4,0.5,1,0.1,1.4l0,0
		c-3.2,3.9-4,9.1-2.3,13.8c0.2,0.5-0.1,1.1-0.6,1.3c0,0,0,0,0,0C189.2,110,189,110,188.9,110z"/>
</g>
</svg>
