<?xml version="1.0" encoding="utf-8"?>
<!-- Generator: Adobe Illustrator 21.1.0, SVG Export Plug-In . SVG Version: 6.00 Build 0)  -->
<svg version="1.1" id="Capa_1" xmlns="http://www.w3.org/2000/svg" xmlns:xlink="http://www.w3.org/1999/xlink" x="0px" y="0px"
	 viewBox="0 0 406 306" style="enable-background:new 0 0 406 306;" xml:space="preserve">
<style type="text/css">
	.st0{fill:#C5FF26;}
	.st1{fill:#093F68;}
	.st2{fill:#FFFFFF;}
	.st3{fill:#FFE219;}
	.st4{fill:#DFEAEF;}
	.st5{fill:#68E817;}
	.st6{fill:#FF7A19;}
	.st7{fill:none;}
</style>
<g id="_59_ui_design_outline">
	<path class="st0" d="M160.3,85.8H292c4.8,0,8.7,3.9,8.7,8.7v84.2c0,4.8-3.9,8.7-8.7,8.7H160.3c-4.8,0-8.7-3.9-8.7-8.7V94.4
		C151.6,89.6,155.5,85.8,160.3,85.8z"/>
	<path class="st1" d="M291.9,188.3H160.4c-5.4,0-9.7-4.4-9.7-9.7V94.4c0-5.4,4.4-9.7,9.7-9.7h131.6c5.4,0,9.7,4.3,9.7,9.7v84.2
		C301.7,184,297.3,188.3,291.9,188.3z M160.4,86.8c-4.2,0-7.7,3.4-7.7,7.7v84.2c0,4.2,3.4,7.7,7.7,7.7h131.6c4.2,0,7.7-3.4,7.7-7.7
		V94.4c0-4.2-3.4-7.7-7.7-7.7H160.4z"/>
	<polygon class="st0" points="249.9,209.1 202.3,209.1 207.3,187.3 245,187.3 	"/>
	<path class="st1" d="M249.9,210.2h-47.6c-0.3,0-0.6-0.1-0.8-0.4c-0.2-0.2-0.3-0.6-0.2-0.9l5-21.8c0.1-0.5,0.5-0.8,1-0.8H245
		c0.5,0,0.9,0.3,1,0.8l5,21.8c0.1,0.3,0,0.6-0.2,0.9C250.6,210,250.3,210.2,249.9,210.2z M203.6,208.1h45.1l-4.5-19.8h-36.1
		L203.6,208.1z"/>
	<rect x="161.8" y="94.2" class="st2" width="128.7" height="75.4"/>
	<path class="st1" d="M290.5,170.6H161.8c-0.6,0-1-0.5-1-1V94.2c0-0.6,0.5-1,1-1h128.7c0.6,0,1,0.5,1,1v75.4
		C291.5,170.1,291,170.6,290.5,170.6z M162.8,168.6h126.7V95.2H162.8V168.6z"/>
	<path class="st0" d="M196.5,209.1h59.3c2.3,0,4.1,1.8,4.1,4.1v0c0,2.3-1.8,4.1-4.1,4.1h-59.3c-2.3,0-4.1-1.8-4.1-4.1v0
		C192.4,211,194.2,209.1,196.5,209.1z"/>
	<path class="st1" d="M255.8,218.3h-59.3c-2.8,0-5.1-2.3-5.1-5.1c0-2.8,2.3-5.1,5.1-5.1h59.3c2.8,0,5.1,2.3,5.1,5.1
		C260.9,216,258.6,218.3,255.8,218.3z M196.5,210.2c-1.7,0-3,1.4-3,3c0,1.7,1.4,3,3,3h59.3c1.7,0,3-1.4,3-3c0-1.7-1.4-3-3-3l0,0
		H196.5z"/>
	<path class="st1" d="M289.9,104.6H162.4c-0.6,0-1-0.5-1-1c0-0.6,0.5-1,1-1h127.5c0.6,0,1,0.5,1,1
		C290.9,104.2,290.4,104.6,289.9,104.6z"/>
	<circle class="st0" cx="168.7" cy="99" r="2"/>
	<circle class="st1" cx="176.4" cy="99" r="2"/>
	<circle class="st1" cx="184.1" cy="99" r="2"/>
	<rect x="176.4" y="109.7" class="st3" width="54.9" height="22.2"/>
	<path class="st1" d="M231.3,132.9h-54.9c-0.6,0-1-0.5-1-1v-22.2c0-0.6,0.5-1,1-1h54.9c0.6,0,1,0.5,1,1v22.2
		C232.3,132.5,231.9,132.9,231.3,132.9z M177.4,130.9h52.9v-20.1h-52.9V130.9z"/>
	<path class="st1" d="M176.4,132.9c-0.3,0-0.6-0.1-0.8-0.4c-0.4-0.4-0.3-1.1,0.1-1.4c0,0,0,0,0,0l18-14.8c0.4-0.3,0.9-0.3,1.3,0
		l14.3,11.9c0.4,0.4,0.5,1,0.1,1.4c-0.4,0.4-1,0.5-1.4,0.1l-13.7-11.4L177,132.7C176.9,132.8,176.6,132.9,176.4,132.9z"/>
	<path class="st1" d="M231.3,132.9c-0.2,0-0.4-0.1-0.6-0.2l-16.2-12.9l-8.3,7.3c-0.4,0.4-1.1,0.3-1.4-0.2c-0.3-0.4-0.3-1,0.1-1.4
		l8.9-7.8c0.4-0.3,0.9-0.3,1.3,0l16.9,13.4c0.4,0.4,0.5,1,0.2,1.4C231.9,132.8,231.6,132.9,231.3,132.9L231.3,132.9z"/>
	<path class="st4" d="M273.4,111.7h-31.5c-0.6,0-1-0.5-1-1s0.5-1,1-1h31.5c0.6,0,1,0.5,1,1S274,111.7,273.4,111.7z"/>
	<path class="st4" d="M273.4,120.7h-31.5c-0.6,0-1-0.5-1-1s0.5-1,1-1h31.5c0.6,0,1,0.5,1,1S274,120.7,273.4,120.7z"/>
	<path class="st4" d="M266.7,129.7h-24.8c-0.6,0-1-0.5-1-1s0.5-1,1-1h24.8c0.6,0,1,0.5,1,1S267.3,129.7,266.7,129.7z"/>
	<rect x="176.4" y="139.3" class="st5" width="23.4" height="16.5"/>
	<path class="st1" d="M199.8,156.8h-23.4c-0.6,0-1-0.5-1-1v-16.5c0-0.6,0.5-1,1-1h23.4c0.6,0,1,0.5,1,1v16.5
		C200.8,156.3,200.4,156.8,199.8,156.8z M177.4,154.7h21.4v-14.4h-21.4V154.7z"/>
	<rect x="214.1" y="139.3" class="st5" width="23.4" height="16.5"/>
	<path class="st1" d="M237.5,156.8h-23.4c-0.6,0-1-0.5-1-1v-16.5c0-0.6,0.5-1,1-1h23.4c0.6,0,1,0.5,1,1v16.5
		C238.5,156.3,238.1,156.8,237.5,156.8z M215.1,154.7h21.4v-14.4h-21.4L215.1,154.7z"/>
	<rect x="251.8" y="139.3" class="st5" width="23.4" height="16.5"/>
	<path class="st1" d="M275.2,156.8h-23.4c-0.6,0-1-0.5-1-1v-16.5c0-0.6,0.5-1,1-1h23.4c0.6,0,1,0.5,1,1v16.5
		C276.2,156.3,275.7,156.8,275.2,156.8z M252.8,154.7h21.4v-14.4h-21.4L252.8,154.7z"/>
	<path class="st4" d="M193.2,164.4h-10.1c-0.6,0-1-0.5-1-1s0.5-1,1-1h10.1c0.6,0,1,0.5,1,1S193.7,164.4,193.2,164.4L193.2,164.4z"/>
	<path class="st4" d="M230.8,164.4h-10.1c-0.6,0-1-0.5-1-1s0.5-1,1-1h10.1c0.6,0,1,0.5,1,1S231.4,164.4,230.8,164.4z"/>
	<path class="st4" d="M268.5,164.4h-10.1c-0.6,0-1-0.5-1-1s0.5-1,1-1h10.1c0.6,0,1,0.5,1,1S269.1,164.4,268.5,164.4z"/>
	<path class="st0" d="M106.4,113.9h55.9c3,0,5.4,2.4,5.4,5.4v92.6c0,3-2.4,5.4-5.4,5.4h-55.9c-3,0-5.4-2.4-5.4-5.4v-92.6
		C101,116.3,103.4,113.9,106.4,113.9z"/>
	<path class="st1" d="M162.2,218.3h-55.8c-3.6,0-6.5-2.9-6.5-6.4c0,0,0,0,0-0.1v-92.5c0-3.5,2.9-6.4,6.4-6.4h55.8
		c3.6,0,6.4,2.9,6.4,6.4v92.5C168.7,215.4,165.8,218.3,162.2,218.3z M106.4,114.9c-2.4,0-4.4,2-4.4,4.4v92.5c0,2.4,2,4.4,4.4,4.4
		h55.8c2.4,0,4.4-2,4.4-4.4v-92.5c0-2.4-2-4.4-4.4-4.4H106.4z"/>
	<path class="st2" d="M109.2,127.6h50.3c1.4,0,2.6,1.2,2.6,2.6v69.1c0,1.4-1.2,2.6-2.6,2.6h-50.3c-1.4,0-2.6-1.2-2.6-2.6v-69.1
		C106.6,128.8,107.8,127.6,109.2,127.6z"/>
	<path class="st1" d="M159.4,202.9h-50.2c-2,0-3.6-1.6-3.6-3.6v-69.1c0-2,1.6-3.6,3.6-3.6h50.2c2,0,3.6,1.6,3.6,3.6v69.1
		C163.1,201.3,161.4,202.9,159.4,202.9C159.4,202.9,159.4,202.9,159.4,202.9z M109.2,128.6c-0.9,0-1.6,0.7-1.6,1.6v69.1
		c0,0.9,0.7,1.6,1.6,1.6h50.2c0.9,0,1.6-0.7,1.6-1.6c0,0,0,0,0,0v-69.1c0-0.9-0.7-1.6-1.6-1.6c0,0,0,0,0,0L109.2,128.6z"/>
	<circle class="st1" cx="125.7" cy="119.7" r="0.9"/>
	<path class="st1" d="M143.8,120.7h-13.9c-0.6,0-1-0.5-1-1s0.5-1,1-1h13.9c0.6,0,1,0.5,1,1S144.4,120.7,143.8,120.7L143.8,120.7z"/>
	<circle class="st1" cx="134.3" cy="210.9" r="3.7"/>
	<rect x="113.3" y="135.6" class="st6" width="42.1" height="26.5"/>
	<path class="st1" d="M155.4,163.1h-42.1c-0.6,0-1-0.5-1-1v-26.5c0-0.6,0.5-1,1-1h42.1c0.6,0,1,0.5,1,1v26.5
		C156.4,162.7,156,163.1,155.4,163.1z M114.3,161.1h40.1v-24.5h-40.1V161.1z"/>
	<path class="st5" d="M117.7,185.9H151c2.4,0,4.4,2,4.4,4.4v0c0,2.4-2,4.4-4.4,4.4h-33.3c-2.4,0-4.4-2-4.4-4.4v0
		C113.3,187.8,115.3,185.9,117.7,185.9z"/>
	<path class="st1" d="M151,195.7h-33.3c-3-0.1-5.3-2.7-5.2-5.7c0.1-2.8,2.4-5.1,5.2-5.2H151c3-0.1,5.5,2.2,5.7,5.2
		c0.1,3-2.2,5.5-5.2,5.7C151.3,195.7,151.2,195.7,151,195.7L151,195.7z M117.7,186.9c-1.9,0.1-3.3,1.7-3.2,3.6
		c0.1,1.7,1.5,3.1,3.2,3.2H151c1.9,0.1,3.5-1.3,3.6-3.2c0.1-1.9-1.3-3.5-3.2-3.6c-0.1,0-0.2,0-0.4,0H117.7z"/>
	<path class="st4" d="M155.4,170.6h-42.1c-0.6,0-1-0.5-1-1s0.5-1,1-1h42.1c0.6,0,1,0.5,1,1S156,170.6,155.4,170.6z"/>
	<path class="st4" d="M145.9,178.7h-32.6c-0.6,0-1-0.5-1-1s0.5-1,1-1h32.6c0.6,0,1,0.5,1,1S146.5,178.7,145.9,178.7L145.9,178.7z"/>
	<path class="st1" d="M141.6,159.6c-0.3,0-0.6-0.1-0.8-0.4l-12.7-14.6l-13.4,14c-0.4,0.4-1,0.4-1.4,0c-0.4-0.4-0.4-1,0-1.4l0,0
		l14.2-14.8c0.4-0.4,1-0.4,1.4-0.1c0,0,0,0,0.1,0.1l13.4,15.5c0.4,0.4,0.3,1.1-0.1,1.4C142.1,159.5,141.9,159.6,141.6,159.6z"/>
	<path class="st1" d="M155.4,156.9c-0.2,0-0.5-0.1-0.6-0.2l-8.8-7.4l-6.8,6.6c-0.4,0.4-1,0.4-1.4,0s-0.4-1,0-1.4l7.4-7.2
		c0.4-0.4,1-0.4,1.4,0l9.5,8c0.4,0.4,0.5,1,0.1,1.4C156,156.8,155.7,156.9,155.4,156.9L155.4,156.9z"/>
	<path class="st1" d="M94,218.3c-0.5,0-0.9-0.4-1-0.8c-0.1-0.6,0.3-1.1,0.8-1.2c0,0,0,0,0,0c1-0.2,168-0.1,219.1,0c0.6,0,1,0.5,1,1
		s-0.5,1-1,1l0,0c-2.2,0-215.9-0.2-218.9,0H94z"/>
	<path class="st2" d="M280.4,165.6h29.9c1.5,0,2.8,1.2,2.8,2.8v21.5c0,1.5-1.2,2.8-2.8,2.8h-29.9c-1.5,0-2.8-1.2-2.8-2.8v-21.5
		C277.6,166.9,278.8,165.6,280.4,165.6z"/>
	<path class="st1" d="M310.3,193.7h-29.9c-2.1,0-3.8-1.7-3.8-3.8v-21.5c0-2.1,1.7-3.8,3.8-3.8h29.9c2.1,0,3.8,1.7,3.8,3.8v21.5
		C314,192,312.4,193.7,310.3,193.7z M280.4,166.6c-1,0-1.7,0.8-1.7,1.7l0,0v21.5c0,1,0.8,1.7,1.7,1.7l0,0h29.9c1,0,1.7-0.8,1.7-1.7
		l0,0v-21.5c0-1-0.8-1.7-1.7-1.7l0,0L280.4,166.6z"/>
	<path class="st4" d="M306.9,173.8h-21.7c-0.6,0-1-0.5-1-1s0.5-1,1-1h21.7c0.6,0,1,0.5,1,1S307.4,173.8,306.9,173.8z"/>
	<path class="st4" d="M306.9,180.2h-21.7c-0.6,0-1-0.5-1-1s0.5-1,1-1h21.7c0.6,0,1,0.5,1,1S307.4,180.2,306.9,180.2z"/>
	<path class="st4" d="M300.9,186.5h-15.8c-0.6,0-1-0.5-1-1s0.5-1,1-1h15.8c0.6,0,1,0.5,1,1S301.5,186.5,300.9,186.5z"/>
	<polygon class="st2" points="318,187.9 305.6,200.2 298.6,180.8 	"/>
	<path class="st1" d="M305.6,201.3h-0.2c-0.3-0.1-0.6-0.3-0.7-0.6l-7-19.4c-0.2-0.5,0.1-1.1,0.6-1.3c0.2-0.1,0.5-0.1,0.7,0l19.4,7
		c0.5,0.2,0.7,0.8,0.5,1.3c0,0.1-0.1,0.2-0.2,0.3l-12.4,12.4C306.1,201.1,305.9,201.2,305.6,201.3z M300.3,182.5l5.8,15.9l10.1-10.1
		L300.3,182.5z"/>
	<line class="st7" x1="311.8" y1="194" x2="316" y2="198.2"/>
	<path class="st1" d="M316,199.2c-0.3,0-0.5-0.1-0.7-0.3l-4.2-4.2c-0.4-0.4-0.4-1,0-1.4c0,0,0,0,0,0c0.4-0.4,1-0.4,1.4,0l4.2,4.2
		c0.4,0.4,0.4,1,0,1.4C316.5,199.1,316.3,199.2,316,199.2z"/>
</g>
</svg>
