<?xml version="1.0" encoding="utf-8"?>
<!-- Generator: Adobe Illustrator 21.1.0, SVG Export Plug-In . SVG Version: 6.00 Build 0)  -->
<svg version="1.1" id="Capa_1" xmlns="http://www.w3.org/2000/svg" xmlns:xlink="http://www.w3.org/1999/xlink" x="0px" y="0px"
	 viewBox="0 0 406 306" style="enable-background:new 0 0 406 306;" xml:space="preserve">
<style type="text/css">
	.st0{fill:#093F68;}
	.st1{fill:#FFFFFF;}
	.st2{fill:#C5FF26;}
	.st3{fill:#DFEAEF;}
	.st4{fill:#FF7A19;}
	.st5{fill:#68E817;}
	.st6{fill:#FFE219;}
</style>
<g id="_33_wireframe_outline">
	<path class="st0" d="M203,192.7c-0.6,0-1-0.5-1-1V156c0-0.6,0.5-1,1-1s1,0.5,1,1v35.7C204,192.3,203.5,192.7,203,192.7z"/>
	<path class="st0" d="M282.6,187.9c-0.6,0-1-0.5-1-1v-13H124.5v13c0,0.6-0.5,1-1,1s-1-0.5-1-1v-14c0-0.6,0.5-1,1-1h159.1
		c0.6,0,1,0.5,1,1v14C283.6,187.5,283.1,187.9,282.6,187.9C282.6,187.9,282.6,187.9,282.6,187.9z"/>
	<path class="st1" d="M147.9,191.4v36c0,2.5-2,4.5-4.5,4.5l0,0h-39.7c-2.5,0-4.5-2-4.5-4.5l0,0v-36c0-2.5,2-4.5,4.5-4.5l0,0h39.7
		C145.8,186.9,147.9,188.9,147.9,191.4L147.9,191.4z"/>
	<path class="st0" d="M143.3,233h-39.7c-3.1,0-5.5-2.5-5.6-5.6v-36c0-3.1,2.5-5.5,5.6-5.6h39.7c3.1,0,5.5,2.5,5.6,5.6v36
		C148.9,230.5,146.4,233,143.3,233z M103.6,187.9c-1.9,0-3.5,1.6-3.5,3.5v36c0,1.9,1.6,3.5,3.5,3.5h39.7c1.9,0,3.5-1.6,3.5-3.5v-36
		c0-1.9-1.6-3.5-3.5-3.5L103.6,187.9z"/>
	<path class="st2" d="M147.9,191.4v4.1H99v-4.1c0-2.5,2-4.5,4.5-4.5l0,0h39.7C145.8,186.9,147.9,188.9,147.9,191.4L147.9,191.4z"/>
	<path class="st0" d="M147.9,196.6H99c-0.6,0-1-0.5-1-1v-4.1c0-3.1,2.5-5.5,5.6-5.6h39.7c3.1,0,5.5,2.5,5.6,5.6v4.1
		C148.9,196.1,148.4,196.6,147.9,196.6z M100.1,194.5h46.8v-3.1c0-1.9-1.6-3.5-3.5-3.5h-39.7c-1.9,0-3.5,1.6-3.5,3.5V194.5z"/>
	<path class="st3" d="M139.3,204.9h-31.7c-0.6,0-1-0.5-1-1s0.5-1,1-1h31.8c0.6,0,1,0.5,1,1S139.9,204.9,139.3,204.9L139.3,204.9z"/>
	<path class="st3" d="M139.3,211.4h-31.7c-0.6,0-1-0.5-1-1s0.5-1,1-1h31.8c0.6,0,1,0.5,1,1S139.9,211.4,139.3,211.4L139.3,211.4z"/>
	<path class="st2" d="M111.2,216.9h24.6c2,0,3.6,1.6,3.6,3.6l0,0c0,2-1.6,3.6-3.6,3.6h-24.6c-2,0-3.6-1.6-3.6-3.6l0,0
		C107.6,218.5,109.2,216.9,111.2,216.9z"/>
	<path class="st0" d="M135.7,225.1h-24.6c-2.6,0-4.6-2.1-4.6-4.6s2.1-4.6,4.6-4.6l0,0h24.6c2.6,0,4.6,2.1,4.6,4.6
		S138.3,225.1,135.7,225.1z M111.2,218c-1.4,0-2.6,1.2-2.6,2.6c0,1.4,1.2,2.6,2.6,2.6l0,0h24.6c1.4,0,2.6-1.2,2.6-2.6
		c0-1.4-1.2-2.6-2.6-2.6H111.2z"/>
	<path class="st1" d="M227.4,191.4v36c0,2.5-2,4.5-4.5,4.5c0,0,0,0,0,0h-39.7c-2.5,0-4.5-2-4.5-4.5c0,0,0,0,0,0v-36
		c0-2.5,2-4.5,4.5-4.5c0,0,0,0,0,0h39.7C225.4,186.9,227.4,189,227.4,191.4z"/>
	<path class="st0" d="M222.9,233h-39.7c-3.1,0-5.5-2.5-5.5-5.6v-36c0-3.1,2.5-5.5,5.5-5.6h39.7c3.1,0,5.5,2.5,5.5,5.6v36
		C228.4,230.5,225.9,233,222.9,233z M183.1,187.9c-1.9,0-3.5,1.6-3.5,3.5v36c0,1.9,1.6,3.5,3.5,3.5h39.7c1.9,0,3.5-1.6,3.5-3.5v-36
		c0-1.9-1.6-3.5-3.5-3.5L183.1,187.9z"/>
	<path class="st2" d="M227.4,191.4v4.1h-48.7v-4.1c0-2.5,2-4.5,4.5-4.5c0,0,0,0,0,0h39.7C225.4,187,227.4,189,227.4,191.4z"/>
	<path class="st0" d="M227.4,196.6h-48.7c-0.6,0-1-0.5-1-1v-4.1c0-3.1,2.5-5.5,5.5-5.6h39.7c3.1,0,5.5,2.5,5.5,5.6v4.1
		C228.5,196.1,228,196.6,227.4,196.6C227.4,196.6,227.4,196.6,227.4,196.6z M179.6,194.5h46.8v-3.1c0-1.9-1.6-3.5-3.5-3.5h-39.7
		c-1.9,0-3.5,1.6-3.5,3.5L179.6,194.5z"/>
	<path class="st3" d="M218.9,204.9h-31.8c-0.6,0-1-0.5-1-1s0.5-1,1-1h31.8c0.6,0,1,0.5,1,1S219.5,204.9,218.9,204.9z"/>
	<path class="st3" d="M218.9,211.4h-31.8c-0.6,0-1-0.5-1-1s0.5-1,1-1h31.8c0.6,0,1,0.5,1,1S219.5,211.4,218.9,211.4z"/>
	<path class="st2" d="M190.7,216.9h24.6c2,0,3.6,1.6,3.6,3.6l0,0c0,2-1.6,3.6-3.6,3.6h-24.6c-2,0-3.6-1.6-3.6-3.6l0,0
		C187.1,218.5,188.7,216.9,190.7,216.9z"/>
	<path class="st0" d="M215.3,225.1h-24.6c-2.6,0-4.6-2.1-4.6-4.6s2.1-4.6,4.6-4.6l0,0h24.6c2.6,0,4.6,2.1,4.6,4.6
		S217.8,225.1,215.3,225.1z M190.7,218c-1.4,0-2.6,1.2-2.6,2.6c0,1.4,1.2,2.6,2.6,2.6h24.6c1.4,0,2.6-1.2,2.6-2.6
		c0-1.4-1.2-2.6-2.6-2.6H190.7z"/>
	<path class="st1" d="M307,191.4v36c0,2.5-2,4.5-4.5,4.5l0,0h-39.7c-2.5,0-4.5-2-4.5-4.5l0,0v-36c0-2.5,2-4.5,4.5-4.5l0,0h39.8
		C305,186.9,307,189,307,191.4z"/>
	<path class="st0" d="M302.5,233h-39.8c-3.1,0-5.5-2.5-5.6-5.6v-36c0-3.1,2.5-5.5,5.6-5.6h39.8c3.1,0,5.5,2.5,5.6,5.6v36
		C308,230.5,305.5,233,302.5,233z M262.7,187.9c-1.9,0-3.5,1.6-3.5,3.5v36c0,1.9,1.6,3.5,3.5,3.5h39.8c1.9,0,3.5-1.6,3.5-3.5v-36
		c0-1.9-1.6-3.5-3.5-3.5H262.7z"/>
	<path class="st2" d="M307,191.4v4.1h-48.8v-4.1c0-2.5,2-4.5,4.5-4.5h39.8C305,186.9,307,189,307,191.4z"/>
	<path class="st0" d="M307,196.6h-48.8c-0.6,0-1-0.5-1-1v-4.1c0-3.1,2.5-5.5,5.6-5.6h39.8c3.1,0,5.5,2.5,5.6,5.6v4.1
		C308,196.1,307.6,196.6,307,196.6C307,196.6,307,196.6,307,196.6z M259.2,194.5h46.8v-3.1c0-1.9-1.6-3.5-3.5-3.5h-39.7
		c-1.9,0-3.5,1.6-3.5,3.5L259.2,194.5z"/>
	<path class="st3" d="M298.4,204.9h-31.7c-0.6,0-1-0.5-1-1s0.5-1,1-1h31.7c0.6,0,1,0.5,1,1S299,204.9,298.4,204.9z"/>
	<path class="st3" d="M298.4,211.4h-31.7c-0.6,0-1-0.5-1-1s0.5-1,1-1h31.7c0.6,0,1,0.5,1,1S299,211.4,298.4,211.4z"/>
	<path class="st2" d="M270.3,216.9h24.6c2,0,3.6,1.6,3.6,3.6l0,0c0,2-1.6,3.6-3.6,3.6h-24.6c-2,0-3.6-1.6-3.6-3.6l0,0
		C266.7,218.5,268.3,216.9,270.3,216.9z"/>
	<path class="st0" d="M294.8,225.1h-24.6c-2.6,0-4.6-2.1-4.6-4.6s2.1-4.6,4.6-4.6h24.6c2.6,0,4.6,2.1,4.6,4.6
		S297.4,225.1,294.8,225.1L294.8,225.1z M270.3,218c-1.4,0-2.6,1.2-2.6,2.6c0,1.4,1.2,2.6,2.6,2.6h24.6c1.4,0,2.6-1.2,2.6-2.6
		c0-1.4-1.2-2.6-2.6-2.6H270.3z"/>
	<path class="st1" d="M269,80.3v71.9c0,3.5-2.8,6.3-6.3,6.3H143.3c-3.5,0-6.3-2.8-6.3-6.3V80.3c0-3.5,2.8-6.3,6.2-6.3c0,0,0,0,0,0
		h119.3C266.1,74,268.9,76.8,269,80.3C269,80.3,269,80.3,269,80.3z"/>
	<path class="st0" d="M262.7,159.5H143.3c-4,0-7.3-3.3-7.3-7.3V80.3c0-4,3.3-7.3,7.3-7.3h119.3c4,0,7.3,3.2,7.3,7.3c0,0,0,0,0,0
		v71.9C270,156.2,266.7,159.5,262.7,159.5C262.7,159.5,262.7,159.5,262.7,159.5z M143.3,75.1c-2.9,0-5.2,2.4-5.2,5.2v71.9
		c0,2.9,2.3,5.2,5.2,5.2h119.3c2.9,0,5.3-2.3,5.3-5.2c0,0,0,0,0,0V80.3c0-2.9-2.3-5.2-5.2-5.2H143.3z"/>
	<path class="st2" d="M269,80.3V86H137.1v-5.7c0-3.5,2.8-6.3,6.2-6.3c0,0,0,0,0,0h119.3C266.1,74,268.9,76.8,269,80.3
		C269,80.3,269,80.3,269,80.3z"/>
	<path class="st0" d="M269,87H137.1c-0.6,0-1-0.5-1-1v-5.7c0-4,3.3-7.3,7.3-7.3h119.3c4,0,7.3,3.2,7.3,7.3c0,0,0,0,0,0V86
		C270,86.6,269.5,87,269,87z M138.1,85H268v-4.7c0-2.9-2.3-5.2-5.2-5.2H143.3c-2.9,0-5.2,2.4-5.2,5.2L138.1,85z"/>
	<rect x="148.5" y="96.1" class="st4" width="27.6" height="27.6"/>
	<path class="st0" d="M176.1,124.8h-27.6c-0.6,0-1-0.5-1-1V96.2c0-0.6,0.5-1,1-1h27.6c0.6,0,1,0.5,1,1v27.6
		C177.1,124.3,176.7,124.8,176.1,124.8z M149.5,122.8h25.6V97.2h-25.6V122.8z"/>
	<path class="st3" d="M176.1,134.7h-27.6c-0.6,0-1-0.5-1-1s0.5-1,1-1h27.6c0.6,0,1,0.5,1,1S176.7,134.7,176.1,134.7z"/>
	<path class="st3" d="M176.1,140.6h-27.6c-0.6,0-1-0.5-1-1c0-0.6,0.5-1,1-1h27.6c0.6,0,1,0.5,1,1
		C177.1,140.2,176.7,140.6,176.1,140.6z"/>
	<path class="st3" d="M172.1,146.5h-19.7c-0.6,0-1-0.5-1-1s0.5-1,1-1h19.7c0.6,0,1,0.5,1,1S172.7,146.5,172.1,146.5z"/>
	<path class="st0" d="M148.5,124.8c-0.3,0-0.5-0.1-0.7-0.3c-0.4-0.4-0.4-1,0-1.4l27.6-27.6c0.4-0.4,1.1-0.3,1.4,0.1
		c0.3,0.4,0.3,0.9,0,1.3l-27.6,27.6C149,124.7,148.7,124.8,148.5,124.8z"/>
	<path class="st0" d="M176.1,124.8c-0.3,0-0.5-0.1-0.7-0.3l-27.6-27.6c-0.4-0.4-0.4-1,0-1.4c0.4-0.4,1-0.4,1.4,0l27.6,27.6
		c0.4,0.4,0.4,1,0,1.4C176.6,124.7,176.4,124.8,176.1,124.8z"/>
	<rect x="189.2" y="96.1" class="st5" width="27.6" height="27.6"/>
	<path class="st0" d="M216.8,124.8h-27.6c-0.6,0-1-0.5-1-1V96.2c0-0.6,0.5-1,1-1h27.6c0.6,0,1,0.5,1,1v27.6
		C217.8,124.3,217.4,124.8,216.8,124.8z M190.2,122.8h25.6V97.2h-25.6V122.8z"/>
	<path class="st3" d="M216.8,134.7h-27.6c-0.6,0-1-0.5-1-1s0.5-1,1-1h27.6c0.6,0,1,0.5,1,1S217.4,134.7,216.8,134.7z"/>
	<path class="st3" d="M216.8,140.6h-27.6c-0.6,0-1-0.5-1-1c0-0.6,0.5-1,1-1h27.6c0.6,0,1,0.5,1,1
		C217.8,140.2,217.4,140.6,216.8,140.6z"/>
	<path class="st3" d="M212.8,146.5h-19.7c-0.6,0-1-0.5-1-1s0.5-1,1-1h19.7c0.6,0,1,0.5,1,1S213.4,146.5,212.8,146.5z"/>
	<path class="st0" d="M189.2,124.8c-0.3,0-0.5-0.1-0.7-0.3c-0.4-0.4-0.4-1,0-1.4l27.6-27.6c0.4-0.4,1-0.5,1.4-0.1s0.5,1,0.1,1.4
		c0,0-0.1,0.1-0.1,0.1l-27.6,27.6C189.7,124.7,189.5,124.8,189.2,124.8z"/>
	<path class="st0" d="M216.8,124.8c-0.3,0-0.5-0.1-0.7-0.3l-27.6-27.6c-0.4-0.4-0.5-1-0.1-1.4c0.4-0.4,1-0.5,1.4-0.1
		c0,0,0.1,0.1,0.1,0.1l27.6,27.6c0.4,0.4,0.4,1,0,1.4C217.3,124.7,217.1,124.8,216.8,124.8z"/>
	<rect x="229.9" y="96.1" class="st6" width="27.6" height="27.6"/>
	<path class="st0" d="M257.5,124.8h-27.6c-0.6,0-1-0.5-1-1V96.2c0-0.6,0.5-1,1-1h27.6c0.6,0,1,0.5,1,1v27.6
		C258.5,124.3,258.1,124.8,257.5,124.8z M230.9,122.8h25.6V97.2h-25.6V122.8z"/>
	<path class="st3" d="M257.5,134.7h-27.6c-0.6,0-1-0.5-1-1s0.5-1,1-1h27.6c0.6,0,1,0.5,1,1S258.1,134.7,257.5,134.7z"/>
	<path class="st3" d="M257.5,140.6h-27.6c-0.6,0-1-0.5-1-1c0-0.6,0.5-1,1-1h27.6c0.6,0,1,0.5,1,1
		C258.5,140.2,258.1,140.6,257.5,140.6z"/>
	<path class="st3" d="M253.6,146.5h-19.7c-0.6,0-1-0.5-1-1s0.5-1,1-1h19.7c0.6,0,1,0.5,1,1S254.1,146.5,253.6,146.5z"/>
	<path class="st0" d="M229.9,124.8c-0.3,0-0.5-0.1-0.7-0.3c-0.4-0.4-0.4-1,0-1.4l27.6-27.6c0.4-0.4,1-0.5,1.4-0.1
		c0.4,0.4,0.5,1,0.1,1.4c0,0-0.1,0.1-0.1,0.1l-27.6,27.6C230.4,124.7,230.2,124.8,229.9,124.8z"/>
	<path class="st0" d="M257.5,124.8c-0.3,0-0.5-0.1-0.7-0.3l-27.6-27.6c-0.4-0.4-0.3-1.1,0.1-1.4c0.4-0.3,0.9-0.3,1.3,0l27.6,27.6
		c0.4,0.4,0.4,1,0,1.4C258.1,124.7,257.8,124.8,257.5,124.8z"/>
</g>
</svg>
